<svg id="Layer_1" data-name="Layer 1" xmlns="http://www.w3.org/2000/svg" viewBox="0 0 64 64">
  <path d="M41.65,15.48a19.14,19.14,0,0,1,9.56,16.64,19.28,19.28,0,0,1-2.08,8.79A18.89,18.89,0,0,1,35,51.14V37.71h4.5l.91-5.59H35V28.51a3,3,0,0,1,.72-2.08,3.1,3.1,0,0,1,2.43-.9h2.44V20.75a26.45,26.45,0,0,0-4.33-.36,7,7,0,0,0-5.28,2A7.53,7.53,0,0,0,29,27.88v4.24H24.15v5.59H29V51.14a18,18,0,0,1-8.29-3.33A19.32,19.32,0,0,1,14.91,41a19.13,19.13,0,0,1-2.12-8.88A19.14,19.14,0,0,1,32,12.91,18.89,18.89,0,0,1,41.65,15.48Z" style="fill: #005eab"/>
</svg>
