<svg id="Layer_1" data-name="Layer 1" xmlns="http://www.w3.org/2000/svg" viewBox="0 0 64 64">
  <path d="M43.18,35.81a9,9,0,0,1-2.52,2.08,14.82,14.82,0,0,1-6.77,2l7.31,7.3a2.3,2.3,0,0,1,0,3.16l-.27.27a2.3,2.3,0,0,1-3.16,0L32,44.92,26.32,50.6a2.4,2.4,0,0,1-1.62.63,2.09,2.09,0,0,1-1.54-.63l-.27-.27a2.09,2.09,0,0,1,0-3.16l7.31-7.3a16.07,16.07,0,0,1-6.86-2,9,9,0,0,1-2.52-2.08,2.07,2.07,0,0,1,0-2.34,2.15,2.15,0,0,1,1.44-1.26,3,3,0,0,1,2.53.72,10.36,10.36,0,0,0,3.15,1.62,21,21,0,0,0,2.8.54l1.26.09a14.1,14.1,0,0,0,2.53-.27A10.4,10.4,0,0,0,39.12,33a3.12,3.12,0,0,1,2.62-.81,2.15,2.15,0,0,1,1.44,1.26A2.07,2.07,0,0,1,43.18,35.81ZM27.13,31a9.75,9.75,0,0,1-4.87-8.48,9.43,9.43,0,0,1,1.31-4.87,9.74,9.74,0,0,1,3.56-3.51,9.71,9.71,0,0,1,9.74,0,9.74,9.74,0,0,1,3.56,3.51,9.43,9.43,0,0,1,1.31,4.87A9.75,9.75,0,0,1,36.87,31a9.71,9.71,0,0,1-9.74,0Zm1.49-11.86a4.78,4.78,0,0,0-1.4,3.43,4.78,4.78,0,0,0,8.16,3.38,4.61,4.61,0,0,0,1.4-3.38,4.78,4.78,0,0,0-1.4-3.43,4.69,4.69,0,0,0-6.76,0Z" style="fill: #ec8d00"/>
</svg>
