<svg id="Layer_1" data-name="Layer 1" xmlns="http://www.w3.org/2000/svg" viewBox="0 0 64 64">
  <path d="M46.16,13.81a7.12,7.12,0,0,1,4.06,4.06,25.78,25.78,0,0,1,1,8.29V37.89a25.74,25.74,0,0,1-1,8.29,7.12,7.12,0,0,1-4.06,4.06,25.85,25.85,0,0,1-8.3,1H26.14a25.85,25.85,0,0,1-8.3-1,7.12,7.12,0,0,1-4.06-4.06,25.74,25.74,0,0,1-1-8.29V26.16a25.78,25.78,0,0,1,1-8.29,7.12,7.12,0,0,1,4.06-4.06,25.85,25.85,0,0,1,8.3-1H37.86A25.85,25.85,0,0,1,46.16,13.81ZM44.81,39.06a13.54,13.54,0,0,0-2.35-3.34l-1.08-1.08a6.07,6.07,0,0,1-.81-.9c-.24-.24-.35-.44-.32-.59a2.51,2.51,0,0,1,.32-.67q-.09,0,.27-.45c2.1-3.13,3.24-5.11,3.42-6s0-1.08-.81-1.08H40.66a1.29,1.29,0,0,0-1.27.81,15.25,15.25,0,0,1-1,2A15.71,15.71,0,0,1,36,31.48c-.6.61-1,.91-1.31.91s-.41-.27-.41-.82V26q0-1-.81-1H29a.73.73,0,0,0-.54.18.61.61,0,0,0-.18.45,1.32,1.32,0,0,0,.36.72,3.16,3.16,0,0,1,.73,2v4.15a3,3,0,0,1-.09.85.45.45,0,0,1-.46.23c-.48,0-1.2-.77-2.16-2.3a24.87,24.87,0,0,1-2.43-5.19,1.71,1.71,0,0,0-.46-.85A1.24,1.24,0,0,0,23,25H20.19c-.67,0-1,.29-1,.86a9.63,9.63,0,0,0,.9,3,31.23,31.23,0,0,0,3.51,6.22,13,13,0,0,0,4,3.79,8.93,8.93,0,0,0,4.55,1.35A3.41,3.41,0,0,0,33.85,40a.9.9,0,0,0,.4-.81V36.62a1.54,1.54,0,0,1,.14-.81c.09-.12.28-.18.59-.18.6,0,1.53.6,2.79,1.81L39,38.88A8,8,0,0,0,40.12,40a1.44,1.44,0,0,0,.9.27h2.79C44.71,40.23,45,39.84,44.81,39.06Z" style="fill: #006fba"/>
</svg>
