<svg id="Layer_1" data-name="Layer 1" xmlns="http://www.w3.org/2000/svg" viewBox="0 0 64 64">
  <path d="M39.39,14.26a18.29,18.29,0,0,1,6.18,4.15,19.23,19.23,0,0,1,4.1,6.18,19.08,19.08,0,0,1-1.12,16.86,19.19,19.19,0,0,1-6.95,6.94A18.35,18.35,0,0,1,32.09,51,18.56,18.56,0,0,1,23,48.62l-10.1,2.61,2.71-9.83a18.82,18.82,0,0,1-.05-19.07,19.22,19.22,0,0,1,7-6.94,18.63,18.63,0,0,1,9.56-2.57A19,19,0,0,1,39.39,14.26ZM24.15,18.14a16.69,16.69,0,0,0-5.77,5.77,15.14,15.14,0,0,0-2.16,7.93,15.64,15.64,0,0,0,2.43,8.48l.36.54-1.53,5.86,5.95-1.53.54.27a15.18,15.18,0,0,0,8,2.26,15.62,15.62,0,0,0,8-2.12,16.1,16.1,0,0,0,5.82-5.77,15.73,15.73,0,0,0,.94-14,16.28,16.28,0,0,0-8.61-8.61,15.41,15.41,0,0,0-6-1.22A15.18,15.18,0,0,0,24.15,18.14Zm2.17,5a.9.9,0,0,1,.54.13,2.13,2.13,0,0,1,.45.68l1.44,3.52a.81.81,0,0,1,.09.81l-.09.18a3.28,3.28,0,0,1-.45.67c-.18.22-.42.47-.72.77a.79.79,0,0,0-.18,1,16.62,16.62,0,0,0,2.71,3.34,10.84,10.84,0,0,0,3.51,2.16l.27.18A.91.91,0,0,0,35,36.35a22.5,22.5,0,0,0,1.44-1.8c.18-.24.34-.36.49-.36a2.57,2.57,0,0,1,.59.09,11.24,11.24,0,0,1,1.62.72l1.81.9a2.89,2.89,0,0,1,.76.54,1.29,1.29,0,0,1,.05.82,7.33,7.33,0,0,1-.36,1.39A3,3,0,0,1,40,40.1a6.83,6.83,0,0,1-1.81.85,8.08,8.08,0,0,1-3.11-.22,15.8,15.8,0,0,1-2.66-1,19.52,19.52,0,0,1-8-6.94l-.17-.36a8.38,8.38,0,0,1-1.9-4.78A5.49,5.49,0,0,1,24,23.73l.09-.09A1.62,1.62,0,0,1,25.33,23Z" style="fill: #4bad30"/>
</svg>
