<svg width="623" height="113" viewBox="0 0 623 113" fill="none" xmlns="http://www.w3.org/2000/svg">
<path d="M306.407 53.999C303.727 57.909 300.107 62.999 298.027 63.869C293.537 65.869 288.937 63.509 288.757 54.009C288.607 46.569 288.087 46.499 285.887 48.409C283.687 50.319 274.697 64.579 268.997 64.059C263.297 63.539 263.177 55.009 269.067 46.059C274.957 37.109 284.597 44.959 286.517 44.059C288.437 43.159 282.517 30.439 267.817 35.889C253.947 41.019 256.037 59.889 258.467 62.889C254.707 70.029 250.217 79.449 245.137 79.449C240.057 79.449 238.297 71.129 239.837 57.589C241.377 44.049 242.127 42.789 240.057 41.909C237.987 41.029 236.057 42.499 234.397 48.909C232.737 55.319 223.207 79.319 215.247 79.319C207.287 79.319 210.097 59.369 211.347 53.109C212.597 46.849 212.677 41.699 210.907 41.699C209.137 41.699 205.907 42.579 202.737 55.019C199.567 67.459 190.517 80.019 185.137 79.019C179.757 78.019 180.057 57.479 181.897 48.669C183.737 39.859 179.617 40.079 177.777 43.389C175.823 47.0893 174.607 51.1344 174.197 55.299C169.857 60.089 165.367 65.389 161.387 65.389C157.407 65.389 155.137 56.779 155.727 53.389C156.317 49.999 156.387 47.869 155.797 47.129C155.207 46.389 152.797 47.129 149.387 52.949C145.977 58.769 136.837 67.409 132.677 63.249C128.517 59.089 137.617 37.629 147.547 41.459C149.837 42.709 151.897 44.629 153.657 44.189C154.767 43.669 154.107 40.509 149.657 36.529C145.207 32.549 132.357 33.439 127.657 40.869C122.957 48.299 123.317 58.869 125.817 63.399C128.317 67.929 137.007 70.399 141.207 67.449C145.407 64.499 149.157 61.189 149.157 61.189C149.157 61.189 151.437 73.119 158.357 73.189C165.277 73.259 167.267 69.069 171.907 64.189C172.347 86.059 179.487 87.379 184.647 87.009C189.807 86.639 195.097 82.449 201.207 71.009C203.427 84.599 210.277 88.869 215.997 86.999C221.717 85.129 231.237 70.729 231.237 70.729C231.237 70.729 230.997 87.999 240.997 87.389C250.997 86.779 254.907 80.329 261.457 67.299C266.907 70.839 273.907 70.029 281.777 61.299C284.507 71.679 288.917 73.889 291.647 73.889C294.377 73.889 305.537 67.779 309.757 54.089C310.577 51.399 308.927 50.299 306.407 53.999ZM99.3268 7.99895C98.2468 9.92895 98.4268 13.439 97.8968 17.159C97.1717 21.4218 96.1492 25.6288 94.8368 29.749C91.4168 41.349 79.9268 70.749 79.1568 70.749C78.7768 70.749 76.8668 55.399 75.7368 38.399C74.5868 21.059 74.1968 1.99895 72.9968 0.418955C70.5668 -2.78105 51.9968 12.339 44.2068 46.169C36.4168 79.999 41.2068 102.569 48.2568 95.939C52.1368 92.299 53.5568 91.519 53.4468 82.799C53.3368 74.079 56.0968 32.549 69.2368 16.429C69.2368 29.789 73.7668 80.149 75.2368 85.559C76.7068 90.969 80.0968 89.319 81.7468 85.779C83.3968 82.239 95.6668 53.089 103.617 27.359C113.887 59.059 105.707 88.209 108.027 90.639C110.347 93.069 119.627 90.859 120.727 85.559C121.827 80.259 127.967 42.339 106.647 9.76896C104.547 6.62896 100.497 5.99895 99.3268 7.99895ZM622.577 51.849C621.327 50.159 617.577 57.099 611.977 61.569C604.367 67.629 594.347 71.049 591.807 59.949C607.117 56.559 609.957 41.789 607.467 35.419C604.697 28.349 583.107 30.769 581.787 62.009C572.997 83.639 565.997 80.279 563.997 76.999C559.137 69.189 567.237 41.509 562.667 41.509C558.807 41.509 557.227 47.739 554.717 54.759C550.817 65.689 546.037 79.209 537.347 79.209C527.407 79.209 538.077 42.209 532.927 41.069C527.777 39.929 523.927 67.429 515.257 67.429C511.017 67.429 509.257 60.359 509.077 53.139C508.857 45.569 510.177 37.829 506.867 37.829C503.557 37.829 503.427 43.019 501.717 48.279C500.007 53.539 496.717 59.179 492.137 59.179C483.137 59.179 490.667 34.589 489.047 32.529C487.427 30.469 477.567 34.039 477.857 57.879C466.667 80.089 461.677 82.249 458.567 77.589C452.677 68.749 459.897 41.659 456.067 41.659C452.237 41.659 450.217 50.439 446.207 59.499C441.587 69.929 434.207 82.259 429.717 78.909C423.237 74.049 428.097 61.139 425.147 59.199C422.197 57.259 417.787 65.199 405.857 64.329C409.687 44.019 406.447 36.059 401.737 32.829C397.027 29.599 383.337 28.829 385.397 44.899C375.507 52.589 375.807 61.999 375.807 61.999C362.407 81.429 349.497 79.619 345.467 63.179C336.787 27.689 360.597 8.17895 365.647 13.699C371.467 20.069 362.547 27.099 364.647 28.699C370.087 31.649 377.157 10.299 366.117 4.69895C352.987 -1.95105 328.117 22.699 328.417 52.699C328.717 82.699 352.277 101.139 375.417 69.629C381.307 78.629 392.057 86.269 403.247 69.049C408.229 69.5827 413.256 68.6072 417.677 66.249C416.207 80.529 422.387 86.709 428.277 86.709C434.167 86.709 441.527 79.649 446.387 69.629C448.007 79.499 450.387 87.379 457.727 87.379C465.067 87.379 469.887 80.559 477.997 68.049C477.847 76.049 477.847 77.619 480.057 78.939C482.267 80.259 486.247 76.439 486.057 66.569C495.057 67.569 499.747 62.739 502.837 57.149C503.137 77.149 516.387 79.529 523.457 67.749C524.777 86.299 532.457 86.299 534.347 86.299C536.237 86.299 543.917 87.779 553.197 69.519C553.197 79.239 557.907 82.919 557.907 82.919C540.827 95.139 544.807 105.299 547.307 108.829C549.807 112.359 560.857 115.599 568.067 106.469C575.277 97.339 569.067 86.009 569.067 86.009C578.197 82.009 582.757 69.659 582.757 69.659C582.757 69.659 590.857 79.089 601.457 75.409C612.057 71.729 625.517 55.819 622.577 51.849ZM397.197 67.269C388.467 77.539 382.837 65.389 385.597 57.269C386.83 53.3356 388.344 49.4958 390.127 45.779C393.777 37.279 396.427 35.779 399.847 38.939C403.267 42.099 405.917 56.999 397.197 67.269ZM558.567 104.189C554.377 103.449 552.567 96.189 562.837 88.649C568.997 97.189 562.767 104.919 558.567 104.189V104.189ZM602.157 37.839C608.267 40.599 601.657 56.219 591.057 55.059C589.837 43.409 599.997 36.849 602.157 37.839ZM32.1568 41.479C33.2668 41.319 34.1568 39.049 33.0468 37.619C31.9368 36.189 27.0468 37.449 27.0468 36.619C27.0468 35.789 27.0968 26.409 27.0468 24.309C26.9968 22.209 22.4668 22.049 22.4668 24.309C22.4668 25.859 22.0168 34.689 22.0168 36.309C22.0168 37.129 20.7668 37.029 19.5068 36.969C18.2468 36.909 16.9968 36.929 16.9968 36.459C16.9968 35.519 16.8268 27.949 16.9968 25.249C17.1668 22.549 12.7468 22.649 11.8068 24.199C10.8668 25.749 11.1968 35.569 10.1468 36.729C9.0968 37.889 0.196804 34.859 0.196804 38.999C0.415513 39.7052 0.825664 40.337 1.38172 40.8242C1.93777 41.3114 2.61797 41.6349 3.3468 41.759C5.31252 41.929 7.28849 41.9457 9.2568 41.809C10.8068 41.809 10.4668 46.669 9.1968 46.669C8.4868 46.669 4.0668 46.669 1.6968 46.559C-0.673196 46.449 -0.573196 51.309 2.0768 51.309C3.3168 51.309 10.2468 51.199 10.2468 52.409C10.2468 53.619 10.1368 61.969 10.1368 65.219C10.1368 68.469 15.9968 68.319 16.1368 65.999C16.2768 63.679 16.1368 53.739 16.5768 52.999C17.0168 52.259 20.7468 51.999 21.4968 52.769C22.2468 53.539 21.3268 65.969 21.7168 67.189C22.1068 68.409 25.1968 68.189 25.9668 67.189C26.7368 66.189 25.5768 53.189 26.1868 52.339C26.7968 51.489 30.7168 52.609 32.1868 51.789C33.6568 50.969 33.5168 47.699 32.3568 47.089C31.1968 46.479 26.6668 46.979 26.2268 46.489C25.7868 45.999 26.1768 42.289 26.3968 41.959C26.6168 41.629 31.0668 41.649 32.1668 41.479H32.1568ZM20.9968 45.839C20.9968 46.729 20.1668 46.999 18.4568 46.999C16.7468 46.999 15.9168 46.119 15.9168 43.999C15.8977 43.7038 15.9418 43.4079 16.0461 43.1311C16.1504 42.8543 16.3125 42.603 16.5217 42.3938C16.7308 42.1847 16.9822 42.0225 17.259 41.9182C17.5358 41.8139 17.8316 41.7699 18.1268 41.789C19.1768 41.789 20.9968 41.789 20.9968 43.229V45.839Z" fill="#FC310E"/>
</svg>
