<svg width="112" height="64" viewBox="0 0 112 64" fill="none" xmlns="http://www.w3.org/2000/svg">
<path d="M14.3788 39.2155C15.6273 38.4985 17.4509 37.638 19.8778 36.6341C22.5711 35.5298 24.7595 34.5116 26.4429 33.5938C28.2244 32.5612 29.6553 31.2849 30.7355 29.7791C31.9138 28.1585 32.503 26.2225 32.503 23.9422C32.503 20.5434 31.1283 17.8616 28.3928 15.9112C25.6433 13.9752 21.8697 13 17.0581 13C11.8397 13 7.78557 14.1329 4.86773 16.3845C1.96393 18.636 0.50501 21.7911 0.50501 25.8496H10.4509C10.4509 24.5016 11.012 23.469 12.1202 22.7233C13.2285 21.9775 14.7715 21.619 16.7635 21.619C18.5872 21.619 20.018 21.8628 21.0842 22.3647C22.1503 22.8667 22.6693 23.5407 22.6693 24.4012C22.6693 26.0217 21.477 27.4415 19.0922 28.6891C18.0541 29.2341 16.5952 29.9225 14.7575 30.7543C11.8677 32.0593 9.42685 33.307 7.43487 34.4686C5.55511 35.5729 3.87174 37.1217 2.38477 39.1151C0.953908 41.0368 0.168337 43.4461 0 46.3287V49.5841H31.3948V41.6391H11.4609C12.1623 40.75 13.1443 39.9326 14.3788 39.2155ZM67.1804 31.2705V31.0698C70.9118 29.6643 72.7775 26.9395 72.7775 22.9097C72.7775 16.614 68.6393 13.4733 60.3627 13.4733H38.002V49.5984H60.3627C64.6413 49.5984 67.8116 48.7954 69.8737 47.1748C71.9359 45.5543 72.9739 43.0589 72.9739 39.6888C72.988 35.5442 71.0521 32.7477 67.1804 31.2705ZM47.9058 21.5186H59.3667C61.6954 21.5186 62.8457 22.5655 62.8457 24.6593C62.8457 25.5915 62.495 26.3229 61.7796 26.8822C61.0781 27.4271 60.1102 27.714 58.9038 27.714H47.9058V21.5186ZM59.3527 41.5818H47.8497V34.7124H58.9038C60.1804 34.7124 61.2044 35.0422 61.9619 35.6876C62.7194 36.3473 63.0982 37.2508 63.0982 38.4267C63.0982 40.5349 61.8497 41.5818 59.3527 41.5818ZM107.455 38.3407C107.216 36.7919 106.459 35.5729 105.182 34.6837V34.4256C109.517 32.9054 111.691 29.8364 111.691 25.1899C111.691 21.3035 110.457 18.3779 108.002 16.4132C105.547 14.4484 102.012 13.4733 97.3968 13.4733H75.008V49.5984H84.8978V36.6485H92.7254C94.9419 36.7202 96.2605 36.9209 96.6814 37.2364C97.1022 37.5663 97.509 38.6705 97.9158 40.5636C98.3507 43.7329 99.4308 46.0992 101.142 47.6624C102.854 49.2256 105.309 50.0143 108.507 50.0143C109.685 50.0143 110.85 49.9857 111.986 49.914V41.969C109.307 41.9547 107.792 40.75 107.455 38.3407ZM100.651 27.8287C99.8797 28.4597 98.7996 28.7895 97.4248 28.7895H84.9118V21.4039H97.4248C98.7996 21.4039 99.8797 21.7337 100.651 22.3791C101.423 23.0388 101.816 23.9422 101.816 25.1182C101.802 26.2942 101.423 27.1977 100.651 27.8287Z" fill="#2C2B3B"/>
</svg>
