<svg width="93" height="42" viewBox="0 0 93 42" fill="none" xmlns="http://www.w3.org/2000/svg">
<path d="M35.8893 5.48872C34.781 4.0741 33.3176 2.91411 31.5132 1.99461C31.1296 1.79656 30.7318 1.61266 30.3055 1.44291C27.9328 0.48097 25.2191 0 22.1644 0C18.2998 0 14.7905 0.749748 11.6363 2.2351C8.48214 3.73459 6.05258 5.7292 4.34763 8.24722L12.4035 13.3116C13.4549 11.996 14.6768 10.9916 16.0266 10.2843C17.3905 9.59111 18.8255 9.23745 20.3316 9.23745C21.9939 9.23745 23.2726 9.57696 24.1677 10.256C25.0628 10.935 25.5033 11.8545 25.5033 13.0145C25.5033 14.1745 25.0912 15.3062 24.2814 16.4096C23.4715 17.513 21.9797 18.8569 19.8343 20.4554L1.16505 34.2903L0 41.5049H25.1339L26.5973 32.3806H18.8966L27.6344 25.9299L27.8618 25.7602C31.5558 23.0866 34.1559 20.6393 35.6335 18.4325C37.1111 16.2257 37.8642 13.835 37.8642 11.2745C37.9068 9.15258 37.2248 7.21455 35.8893 5.48872Z" fill="#EEB91D"/>
<path d="M63.268 14.6413C61.9182 12.3496 60.1281 10.6097 57.9116 9.40724C55.6952 8.20481 53.3224 7.59653 50.7934 7.59653C47.3409 7.59653 44.343 8.58676 41.7856 10.5814L43.1922 2.00879H31.5133C33.3177 2.91414 34.7811 4.07413 35.8893 5.5029C37.2248 7.22873 37.9068 9.15261 37.9068 11.2887C37.9068 13.8491 37.168 16.2257 35.6762 18.4466C34.1843 20.6535 31.5985 23.1007 27.9044 25.7744L27.6771 25.9441L26.6399 32.3948L25.1765 41.5191H36.8554L37.2817 38.8454C39.3987 40.9957 42.5386 42 46.6873 42C50.0688 42 53.1804 41.222 56.0219 39.5527C58.8777 37.8835 61.1226 35.5777 62.7991 32.6636C64.4615 29.7494 65.2997 26.4675 65.2997 22.832C65.2855 19.7622 64.6178 16.933 63.268 14.6413ZM51.9585 30.1172C50.4382 31.8289 48.4775 32.6918 46.0764 32.6918C44.0447 32.6918 42.4534 32.126 41.3025 31.0085C40.1375 29.8909 39.555 28.349 39.555 26.3827C39.555 23.61 40.308 21.3608 41.8282 19.6491C43.3485 17.9374 45.3092 17.0745 47.7103 17.0745C49.742 17.0745 51.3333 17.6403 52.4842 18.7862C53.6492 19.932 54.2318 21.4881 54.2318 23.4402C54.2318 26.1705 53.4787 28.3914 51.9585 30.1172ZM81.099 10.6662L81.511 8.09165H69.8321L64.4615 41.5191H76.1404L78.5273 26.6514L78.8967 24.8549C78.982 24.4588 79.0672 24.0768 79.1667 23.709C79.3372 23.1149 79.5361 22.5773 79.7634 22.0681C80.3175 20.9364 81.0279 20.0169 81.8946 19.3237C83.4717 18.0647 85.5745 17.4281 88.2029 17.4281C90.874 17.4281 90.7604 17.4281 90.8598 17.4281L92.4653 7.95018C86.0291 6.88922 81.9372 9.9165 81.099 10.6662Z" fill="black"/>
</svg>
