<?xml version="1.0" encoding="utf-8"?>
<!-- Generator: Adobe Illustrator 24.3.0, SVG Export Plug-In . SVG Version: 6.00 Build 0)  -->
<svg version="1.1" id="Layer_1" xmlns="http://www.w3.org/2000/svg" xmlns:xlink="http://www.w3.org/1999/xlink" x="0px" y="0px"
	 viewBox="0 0 145 64" style="enable-background:new 0 0 145 64;" xml:space="preserve">
<style type="text/css">
	.st0{fill:#858685;}
	.st1{fill:url(#SVGID_1_);}
	.st2{fill:url(#SVGID_2_);}
	.st3{fill:url(#SVGID_3_);}
	.st4{fill:url(#SVGID_4_);}
	.st5{fill:url(#SVGID_5_);}
	.st6{fill:url(#SVGID_6_);}
	.st7{fill:url(#SVGID_7_);}
	.st8{fill:url(#SVGID_8_);}
	.st9{fill:url(#SVGID_9_);}
	.st10{fill:url(#SVGID_10_);}
	.st11{fill:url(#SVGID_11_);}
</style>
<g>
	<g>
		<path class="st0" d="M69.2,57.9c-0.1,0-0.2,0-0.3-0.1s-0.1-0.2-0.1-0.3V52c0-0.1,0-0.2,0.1-0.3c0.1-0.1,0.2-0.1,0.3-0.1h1.6
			c0.4,0,0.8,0.1,1.1,0.3c0.3,0.2,0.6,0.4,0.7,0.7s0.3,0.7,0.3,1.1c0,0.4-0.1,0.7-0.3,1s-0.4,0.5-0.7,0.7c-0.3,0.2-0.7,0.3-1.1,0.3
			h-1.2v1.8c0,0.1,0,0.2-0.1,0.3S69.3,57.9,69.2,57.9z M69.6,54.9h1.2c0.2,0,0.5-0.1,0.7-0.2c0.2-0.1,0.3-0.3,0.4-0.4
			s0.2-0.4,0.2-0.6c0-0.3-0.1-0.5-0.2-0.7s-0.3-0.4-0.4-0.5c-0.2-0.1-0.4-0.2-0.7-0.2h-1.2V54.9z"/>
		<path class="st0" d="M73.3,57.9c-0.2,0-0.3-0.1-0.3-0.2c-0.1-0.1-0.1-0.3,0-0.4l2.3-5.4c0.1-0.2,0.2-0.3,0.4-0.3
			c0.2,0,0.3,0.1,0.4,0.3l2.3,5.4c0.1,0.2,0,0.3,0,0.4s-0.2,0.2-0.4,0.2c-0.1,0-0.2,0-0.2-0.1c-0.1,0-0.1-0.1-0.2-0.2l-2-5h0.2l-2,5
			c0,0.1-0.1,0.2-0.2,0.2S73.3,57.9,73.3,57.9z M73.7,56.5l0.3-0.7h3.2l0.3,0.7H73.7z"/>
		<path class="st0" d="M81.8,58c-0.4,0-0.8-0.1-1.2-0.2s-0.7-0.4-1-0.7c-0.3-0.3-0.5-0.6-0.7-1c-0.2-0.4-0.2-0.8-0.2-1.3
			c0-0.5,0.1-0.9,0.2-1.3c0.2-0.4,0.4-0.7,0.7-1c0.3-0.3,0.6-0.5,1-0.7c0.4-0.2,0.8-0.2,1.2-0.2c0.4,0,0.8,0.1,1.1,0.2
			c0.3,0.1,0.6,0.3,0.9,0.5c0,0,0.1,0.1,0.1,0.1s0,0.1,0,0.1c0,0,0,0.1,0,0.1c0,0.1,0,0.2-0.1,0.3c-0.1,0.1-0.2,0.1-0.3,0.1
			s-0.2,0-0.3-0.1c-0.2-0.2-0.4-0.3-0.6-0.4c-0.2-0.1-0.5-0.1-0.8-0.1c-0.3,0-0.6,0.1-0.9,0.2c-0.3,0.1-0.5,0.3-0.7,0.5
			c-0.2,0.2-0.4,0.5-0.5,0.8c-0.1,0.3-0.2,0.6-0.2,1c0,0.3,0.1,0.7,0.2,1c0.1,0.3,0.3,0.6,0.5,0.8c0.2,0.2,0.5,0.4,0.7,0.5
			c0.3,0.1,0.6,0.2,0.9,0.2c0.3,0,0.5,0,0.8-0.1c0.2-0.1,0.5-0.2,0.7-0.4c0.1-0.1,0.2-0.1,0.3-0.1c0.1,0,0.2,0,0.2,0.1
			c0.1,0.1,0.1,0.2,0.1,0.3c0,0.1,0,0.1,0,0.2c0,0.1-0.1,0.1-0.1,0.1c-0.3,0.2-0.6,0.4-0.9,0.5S82.2,58,81.8,58z"/>
		<path class="st0" d="M85,52.4c-0.1,0-0.2,0-0.3-0.1c-0.1-0.1-0.1-0.2-0.1-0.3s0-0.2,0.1-0.3c0.1-0.1,0.2-0.1,0.3-0.1h4.3
			c0.1,0,0.2,0,0.3,0.1c0.1,0.1,0.1,0.2,0.1,0.3s0,0.2-0.1,0.3c-0.1,0.1-0.2,0.1-0.3,0.1H85z M87.2,57.9c-0.1,0-0.2,0-0.3-0.1
			c-0.1-0.1-0.1-0.2-0.1-0.3v-5.9h0.8v5.9c0,0.1,0,0.2-0.1,0.3C87.4,57.9,87.3,57.9,87.2,57.9z"/>
		<path class="st0" d="M91.1,57.9c-0.1,0-0.2,0-0.3-0.1s-0.1-0.2-0.1-0.3V52c0-0.1,0-0.2,0.1-0.3c0.1-0.1,0.2-0.1,0.3-0.1
			c0.1,0,0.2,0,0.3,0.1c0.1,0.1,0.1,0.2,0.1,0.3v4.6l3.9-4.8c0.1-0.1,0.2-0.2,0.3-0.2c0.1,0,0.2,0,0.3,0.1c0.1,0.1,0.1,0.2,0.1,0.3
			v5.5c0,0.1,0,0.2-0.1,0.3s-0.2,0.1-0.3,0.1c-0.1,0-0.2,0-0.3-0.1s-0.1-0.2-0.1-0.3v-4.6l-3.9,4.8c0,0-0.1,0.1-0.1,0.1
			C91.2,57.9,91.1,57.9,91.1,57.9z"/>
		<path class="st0" d="M98.1,57.9c-0.1,0-0.2,0-0.3-0.1s-0.1-0.2-0.1-0.3V52c0-0.1,0-0.2,0.1-0.3c0.1-0.1,0.2-0.1,0.3-0.1
			c0.2,0,0.3,0.1,0.4,0.2l2.5,5.1h-0.3l2.5-5.1c0.1-0.2,0.2-0.2,0.4-0.2c0.1,0,0.2,0,0.3,0.1c0.1,0.1,0.1,0.2,0.1,0.3v5.5
			c0,0.1,0,0.2-0.1,0.3c-0.1,0.1-0.2,0.1-0.3,0.1c-0.1,0-0.2,0-0.3-0.1c-0.1-0.1-0.1-0.2-0.1-0.3v-4.3l0.2,0l-2.1,4.3
			c-0.1,0.1-0.2,0.2-0.4,0.2c-0.2,0-0.3-0.1-0.4-0.2l-2.1-4.2l0.2,0v4.3c0,0.1,0,0.2-0.1,0.3C98.3,57.9,98.2,57.9,98.1,57.9z"/>
		<path class="st0" d="M109.9,56.6l-2.7-4.4c-0.1-0.2-0.1-0.4,0.2-0.5c0.2-0.1,0.4-0.1,0.5,0.1l2.5,4.4L109.9,56.6z M108.7,58
			c-0.2,0-0.5-0.1-0.7-0.2c-0.1-0.1-0.2-0.1-0.2-0.2c0-0.1,0-0.2,0.1-0.3c0.1-0.1,0.1-0.2,0.3-0.2c0.1,0,0.2,0,0.3,0.1
			c0,0,0.1,0,0.1,0.1c0,0,0.1,0,0.1,0c0.1,0,0.3-0.1,0.4-0.2c0.2-0.1,0.3-0.3,0.4-0.6l2.2-4.5c0.1-0.2,0.3-0.3,0.5-0.2
			c0.2,0.1,0.3,0.3,0.2,0.5l-2.2,4.6c-0.2,0.4-0.4,0.7-0.7,0.9C109.3,57.9,109.1,58,108.7,58z"/>
		<path class="st0" d="M113.4,57.9c-0.2,0-0.3-0.1-0.3-0.2c-0.1-0.1-0.1-0.3,0-0.4l2.3-5.4c0.1-0.2,0.2-0.3,0.4-0.3
			c0.2,0,0.3,0.1,0.4,0.3l2.3,5.4c0.1,0.2,0.1,0.3,0,0.4s-0.2,0.2-0.3,0.2c-0.1,0-0.2,0-0.2-0.1c-0.1,0-0.1-0.1-0.2-0.2l-2-5h0.3
			l-2.1,5c0,0.1-0.1,0.2-0.2,0.2C113.6,57.9,113.5,57.9,113.4,57.9z"/>
		<path class="st0" d="M119.8,57.9c-0.1,0-0.2,0-0.3-0.1s-0.1-0.2-0.1-0.3V52c0-0.1,0-0.2,0.1-0.3s0.2-0.1,0.3-0.1
			c0.1,0,0.2,0,0.3,0.1s0.1,0.2,0.1,0.3v2h1.4c0.4,0,0.8,0.1,1.1,0.2c0.3,0.2,0.6,0.4,0.7,0.7s0.3,0.6,0.3,1c0,0.4-0.1,0.7-0.3,1
			c-0.2,0.3-0.4,0.5-0.7,0.7c-0.3,0.2-0.7,0.3-1.1,0.3H119.8z M120.2,57.1h1.4c0.2,0,0.5,0,0.7-0.1c0.2-0.1,0.3-0.2,0.4-0.4
			c0.1-0.2,0.2-0.4,0.2-0.7c0-0.3-0.1-0.5-0.2-0.7c-0.1-0.2-0.3-0.3-0.4-0.4c-0.2-0.1-0.4-0.1-0.7-0.1h-1.4V57.1z M125,57.9
			c-0.1,0-0.2,0-0.3-0.1s-0.1-0.2-0.1-0.3V52c0-0.1,0-0.2,0.1-0.3c0.1-0.1,0.2-0.1,0.3-0.1c0.1,0,0.2,0,0.3,0.1
			c0.1,0.1,0.1,0.2,0.1,0.3v5.5c0,0.1,0,0.2-0.1,0.3S125.1,57.9,125,57.9z"/>
		<path class="st0" d="M127.4,57.9c-0.1,0-0.2,0-0.3-0.1s-0.1-0.2-0.1-0.3V52c0-0.1,0-0.2,0.1-0.3c0.1-0.1,0.2-0.1,0.3-0.1h3.4
			c0.1,0,0.2,0,0.3,0.1c0.1,0.1,0.1,0.2,0.1,0.3c0,0.1,0,0.2-0.1,0.3c-0.1,0.1-0.2,0.1-0.3,0.1h-3v1.8h1.8c0.4,0,0.8,0.1,1.1,0.2
			s0.6,0.4,0.7,0.6s0.3,0.6,0.3,0.9c0,0.4-0.1,0.7-0.3,1s-0.4,0.5-0.7,0.7s-0.7,0.2-1.1,0.2H127.4z M127.9,57.1h1.8
			c0.2,0,0.5,0,0.7-0.1c0.2-0.1,0.3-0.2,0.4-0.4c0.1-0.2,0.2-0.4,0.2-0.6c0-0.2-0.1-0.5-0.2-0.6s-0.3-0.3-0.4-0.4
			c-0.2-0.1-0.4-0.1-0.7-0.1h-1.8V57.1z"/>
		<path class="st0" d="M133.4,57.9c-0.1,0-0.2,0-0.3-0.1s-0.1-0.2-0.1-0.3V52c0-0.1,0-0.2,0.1-0.3c0.1-0.1,0.2-0.1,0.3-0.1
			c0.1,0,0.2,0,0.3,0.1c0.1,0.1,0.1,0.2,0.1,0.3v2.3h1.3v0.7h-1.3v2.4c0,0.1,0,0.2-0.1,0.3S133.6,57.9,133.4,57.9z M137.6,57.8
			c-0.1,0.1-0.2,0.1-0.3,0.1c-0.1,0-0.2,0-0.3-0.1l-2.6-3.1l2.5-3c0.1-0.1,0.2-0.1,0.3-0.1c0.1,0,0.2,0,0.3,0.1
			c0.1,0.1,0.1,0.2,0.1,0.3c0,0.1,0,0.2-0.1,0.3l-2,2.4l2.3,2.6c0.1,0.1,0.1,0.2,0.1,0.3C137.8,57.6,137.7,57.7,137.6,57.8z"/>
		<path class="st0" d="M139.3,57.9c-0.1,0-0.2,0-0.3-0.1s-0.1-0.2-0.1-0.3V52c0-0.1,0-0.2,0.1-0.3c0.1-0.1,0.2-0.1,0.3-0.1
			c0.1,0,0.2,0,0.3,0.1c0.1,0.1,0.1,0.2,0.1,0.3v4.6l3.9-4.8c0.1-0.1,0.2-0.2,0.3-0.2c0.1,0,0.2,0,0.3,0.1c0.1,0.1,0.1,0.2,0.1,0.3
			v5.5c0,0.1,0,0.2-0.1,0.3s-0.2,0.1-0.3,0.1c-0.1,0-0.2,0-0.3-0.1s-0.1-0.2-0.1-0.3v-4.6l-3.9,4.8c0,0-0.1,0.1-0.1,0.1
			C139.5,57.9,139.4,57.9,139.3,57.9z"/>
	</g>
	<g>
		<g>
			<linearGradient id="SVGID_1_" gradientUnits="userSpaceOnUse" x1="105.4913" y1="6.0563" x2="105.4913" y2="47.1047">
				<stop  offset="0" style="stop-color:#D2D700"/>
				<stop  offset="1" style="stop-color:#87BC2F"/>
			</linearGradient>
			<path class="st1" d="M81.1,19.2c0.2,0,0.4,0,0.6,0c0.2,0,0.4,0,0.6,0c0.2,0,0.4,0,0.6,0c0.2,0,0.3,0.1,0.4,0.1l0.2,0.2
				c0.1,0.1,0.2,0.1,0.2,0.2c0.2,0.2,0.4,0.4,0.6,0.6c0.1,0.2,0.2,0.5,0.2,0.7c0,0.1,0,0.1,0,0.2c0,0.1,0,0.1,0,0.2c0,0.3,0,0.6,0,1
				c0,0.1,0,0.1,0,0.2c0,0,0,0.1,0,0.2c0,0.1,0,0.1,0,0.2c0,0.1,0,0.1,0,0.2c0,0.1,0,0.1,0,0.2c0,0.1,0,0.1,0,0.2
				c0,0.2-0.1,0.5-0.1,0.7c0,0.2,0,0.5,0.1,0.7c0,0.1,0,0.1,0,0.1s0,0.1,0,0.1c0,0.3,0,0.6-0.1,0.9c-0.1,0.3-0.3,0.5-0.5,0.7
				c-0.3,0.2-0.6,0.3-1,0.3c-0.3,0-0.6,0-0.9-0.2c-0.3-0.1-0.5-0.3-0.8-0.6c-0.2-0.3-0.4-0.5-0.4-0.9c0-0.1,0-0.1-0.1-0.2
				c0-0.1,0-0.1,0-0.2c-0.1-0.5,0-1,0.1-1.5c0.1-0.5,0.3-1,0.7-1.3c-0.3,0-0.6,0-1,0c-0.3,0-0.6,0-1,0c-0.1,0-0.1,0-0.2,0
				c-0.1,0-0.1,0-0.2,0c-0.5,0-1-0.1-1.4-0.1c-0.5,0-1,0-1.5,0c-0.9,0-1.8,0.1-2.7,0.2s-1.8,0.1-2.7,0.1c0.1,0.2,0.2,0.5,0.4,0.7
				c0.1,0.3,0.2,0.5,0.3,0.8c0.1,0.3,0.1,0.5,0.1,0.8s-0.1,0.5-0.2,0.8c-0.1,0.2-0.3,0.4-0.5,0.6c-0.2,0.2-0.5,0.3-0.7,0.3
				c-0.3,0.1-0.5,0.1-0.8,0c-0.3-0.1-0.5-0.2-0.7-0.4c-0.2-0.2-0.3-0.3-0.4-0.5c-0.1-0.2-0.1-0.4-0.2-0.6c0-0.2,0-0.4,0-0.7
				c0-0.2,0-0.5,0-0.7c0-0.1,0-0.1,0-0.2c0-0.1,0-0.1-0.1-0.2c-0.1-0.2-0.1-0.5-0.2-0.7c0-0.2-0.1-0.4-0.1-0.7
				c-0.1-0.3-0.1-0.6-0.1-1c0-0.3,0.1-0.6,0.3-0.9c0.1-0.3,0.3-0.5,0.6-0.7c0.3-0.2,0.6-0.2,0.9-0.2h0.5c0.1,0,0.2,0,0.3,0
				c0.1,0,0.2,0,0.2,0c0.1,0,0.1,0,0.2-0.1c0.1-0.1,0.1-0.1,0.2-0.2c0.1-0.2,0.2-0.3,0.3-0.5c0.1-0.2,0.2-0.3,0.3-0.5
				c0-0.1,0.1-0.1,0.1-0.2c0-0.1,0.1-0.1,0.1-0.2c0.1-0.1,0.1-0.3,0.1-0.4l0.1-0.4c0-0.1,0-0.2,0-0.2s0-0.2,0.1-0.2
				c0-0.1,0-0.2,0-0.3s0-0.2,0-0.3c0-0.3,0.1-0.5,0.1-0.8c0-0.3,0-0.5,0-0.8v-0.4v-0.3v-0.5c0-0.1,0-0.1,0-0.2s0-0.1,0-0.2
				c0-0.2,0-0.4,0-0.6s0-0.4,0-0.6c0-0.1,0-0.1,0-0.2c0-0.1,0-0.1,0-0.2c0-0.4,0-0.7,0.1-1.1c0-0.4,0.1-0.8,0.2-1.1
				c0.1-0.4,0.3-0.7,0.5-1S73,7,73.4,6.9c0.1,0,0.1-0.1,0.2-0.1c0.1,0,0.1-0.1,0.2-0.1c0.3-0.1,0.5-0.2,0.9-0.2c0.1,0,0.1,0,0.2,0
				s0.1,0,0.2,0c0.3,0,0.5,0,0.8,0c0.1,0,0.1,0,0.2,0c0.1,0,0.1,0,0.2,0c0.1,0,0.3,0,0.4-0.1c0.1,0,0.3,0,0.4-0.1
				c0.1,0,0.3,0,0.4-0.1c0.3,0,0.6-0.1,1-0.1c0.4,0,0.7-0.1,1,0c0.3,0,0.6,0.1,0.9,0.3s0.5,0.4,0.6,0.8c0,0.1,0.1,0.2,0.1,0.2
				s0.1,0.2,0.1,0.2c0.1,0.4,0.1,0.7,0.1,1.1c0,0.4,0,0.8-0.1,1.1c0,0.4-0.1,0.8-0.1,1.1c-0.1,0.4-0.1,0.7-0.1,1c0,0.7-0.1,1.3,0,2
				c0,0.6,0.1,1.3,0.1,2c0,0.5,0.1,1.1,0.2,1.6C81.2,18.1,81.2,18.6,81.1,19.2z M67.9,23.9c0,0.1,0,0.1,0,0.1
				C67.9,24,67.9,24,67.9,23.9z M70.7,18.4C70.7,18.4,70.7,18.4,70.7,18.4C70.7,18.4,70.7,18.4,70.7,18.4
				C70.7,18.4,70.7,18.4,70.7,18.4C70.7,18.4,70.7,18.4,70.7,18.4z M74.2,19.3c0.1,0,0.2,0,0.3,0c0.1,0,0.3,0,0.4,0s0.2,0,0.2,0
				c0,0,0,0-0.2,0c0.3,0,0.6,0,1,0c0.3,0,0.6,0,1,0c-0.1-0.5-0.1-1.1-0.1-1.6c0.1-0.5,0.1-1.1,0.2-1.7c0.1-0.6,0.2-1.1,0.2-1.7
				c0.1-0.5,0.1-1.1,0-1.7c0-0.4-0.1-0.8-0.1-1.1c0-0.4-0.1-0.8-0.1-1.1c0-0.1,0-0.1,0-0.2s0-0.1,0-0.2c0-0.2,0-0.4,0-0.6
				c0-0.2,0-0.4-0.2-0.4c-0.2-0.1-0.4-0.2-0.6-0.2c-0.1,0-0.2-0.1-0.3-0.1c-0.1,0-0.2,0-0.3,0c-0.1,0-0.2,0-0.3,0.1
				c-0.2,0.1-0.4,0.4-0.4,0.7c0,0.3,0,0.6,0.1,0.8c0.2,0.5,0.2,1.1,0.2,1.6v0.4c0,0.1,0,0.1,0,0.2c0,0.1,0,0.1,0,0.2
				c0,0.1,0,0.2,0,0.3c0,0.1,0,0.2-0.1,0.2c0,0.1,0,0.2,0,0.2c0,0.6,0,1.2,0,1.8c0,0.6-0.1,1.2-0.2,1.8c0,0.1,0,0.2,0,0.3
				s0,0.2,0,0.2c0,0.1,0,0.1,0,0.2s0,0.2,0,0.2c0,0.1-0.1,0.3-0.1,0.4c0,0.1-0.1,0.3-0.1,0.4c0,0.1,0,0.2-0.1,0.3
				C74.3,19.1,74.3,19.2,74.2,19.3z"/>
			<linearGradient id="SVGID_2_" gradientUnits="userSpaceOnUse" x1="105.4913" y1="6.0563" x2="105.4913" y2="47.1047">
				<stop  offset="0" style="stop-color:#D2D700"/>
				<stop  offset="1" style="stop-color:#87BC2F"/>
			</linearGradient>
			<path class="st2" d="M85.4,13c-0.2-0.8-0.3-1.4-0.3-2c0-0.6,0-1.1,0-1.5c0.1-0.4,0.2-0.8,0.3-1.2c0.1-0.3,0.3-0.6,0.5-0.9
				c0.2-0.2,0.4-0.4,0.6-0.5c0.2-0.1,0.5-0.2,0.7-0.2c0.3,0,0.5,0,0.8,0c0.3,0,0.5,0.1,0.8,0.1c0.4,0.1,0.8,0.1,1.2,0.1
				c0.4,0,0.8,0,1.2-0.1c0.4,0,0.7,0,1.1,0c0.4,0,0.7,0.2,1,0.4c0.1,0.1,0.2,0.3,0.3,0.5s0.1,0.4,0.1,0.6c0,0.2,0,0.4-0.1,0.6
				c-0.1,0.2-0.2,0.4-0.3,0.5c-0.2,0.2-0.4,0.3-0.6,0.4S92.3,9.9,92,9.9c-0.3,0-0.6,0-0.8,0c-0.3,0-0.5,0-0.8,0
				c-0.2,0-0.3,0-0.5-0.1c-0.2,0-0.4-0.1-0.6-0.1c-0.2,0-0.4,0-0.6,0.1c-0.2,0.1-0.3,0.2-0.5,0.3C88.1,10.4,88,10.7,88,11
				c0,0.3,0,0.6,0.1,1c0.1,0.3,0.2,0.7,0.3,1c0.1,0.3,0.2,0.6,0.2,0.9c0.3-0.1,0.5-0.2,0.8-0.4c0.3-0.2,0.5-0.4,0.8-0.5
				s0.5-0.3,0.8-0.4c0.3-0.1,0.6-0.1,0.9-0.1c0.2,0,0.4,0.1,0.5,0.3c0.1,0.1,0.3,0.3,0.3,0.5s0.1,0.4,0.1,0.6c0,0.2,0,0.4-0.1,0.6
				c-0.1,0.3-0.4,0.6-0.7,0.9s-0.7,0.5-1.1,0.7c-0.4,0.2-0.8,0.3-1.3,0.5c-0.4,0.1-0.8,0.2-1.2,0.2c-0.1,0.2-0.1,0.4-0.2,0.6
				c-0.1,0.2-0.1,0.4-0.1,0.6c-0.1,0.4-0.1,0.7,0.1,0.9c0.1,0.2,0.3,0.2,0.5,0.2c0.2,0,0.5-0.1,0.8-0.2c0.3-0.1,0.6-0.2,0.9-0.4
				s0.6-0.3,0.9-0.4c0.3-0.1,0.5-0.1,0.7-0.1c0.4,0.1,0.9,0.3,1.2,0.6c0.4,0.3,0.7,0.7,0.9,1.1s0.3,0.8,0.2,1.3
				c-0.1,0.4-0.3,0.8-0.7,1.1c-0.2,0.2-0.5,0.3-0.7,0.3c-0.2,0-0.5,0-0.7-0.1c-0.2-0.1-0.5-0.1-0.7-0.2s-0.5-0.1-0.7-0.1
				c-0.4,0-0.9,0-1.3,0.2c-0.5,0.1-0.9,0.2-1.3,0.2c-0.5,0-0.9-0.1-1.3-0.2s-0.7-0.4-0.9-0.8c-0.3-0.3-0.5-0.7-0.6-1.1
				c-0.1-0.4-0.2-0.9-0.2-1.3c0-0.2,0-0.5,0.1-0.7c0.1-0.2,0.1-0.4,0.2-0.6c0.1-0.2,0.2-0.4,0.2-0.6c0.1-0.2,0.1-0.4,0.2-0.6
				c0.1-0.5,0.1-1,0-1.6S85.5,13.5,85.4,13z"/>
			<linearGradient id="SVGID_3_" gradientUnits="userSpaceOnUse" x1="105.4913" y1="6.0563" x2="105.4913" y2="47.1047">
				<stop  offset="0" style="stop-color:#D2D700"/>
				<stop  offset="1" style="stop-color:#87BC2F"/>
			</linearGradient>
			<path class="st3" d="M98.6,13.6c0-0.5,0-0.8,0-1.1s0-0.5-0.1-0.6c0-0.1-0.1-0.3-0.2-0.3c-0.1-0.1-0.3-0.2-0.5-0.3
				c-0.2-0.1-0.4-0.2-0.7-0.4c-0.3-0.2-0.6-0.3-0.8-0.5c-0.3-0.2-0.5-0.4-0.8-0.6c-0.2-0.2-0.4-0.5-0.5-0.7
				c-0.1-0.2-0.2-0.5-0.1-0.8c0-0.3,0.2-0.5,0.5-0.8C95.6,7,96,6.9,96.4,6.9c0.4,0,0.9,0.1,1.3,0.3c0.5,0.2,0.9,0.4,1.4,0.6
				c0.5,0.2,0.9,0.3,1.2,0.4c0.6,0.1,1.1,0.1,1.6,0c0.5-0.1,1-0.2,1.5-0.3c0.2,0,0.4-0.1,0.6-0.1c0.2,0,0.4,0,0.6,0.1
				c0.2,0,0.3,0.1,0.5,0.3c0.1,0.1,0.2,0.3,0.3,0.5c0.1,0.4,0.2,0.7,0.1,1c-0.1,0.3-0.2,0.5-0.5,0.8c-0.2,0.2-0.5,0.4-0.9,0.6
				c-0.3,0.2-0.7,0.3-1,0.4s-0.7,0.2-1,0.2s-0.6,0-0.8,0c0.1,0.3,0.2,0.9,0.3,1.6c0.1,0.7,0.2,1.5,0.2,2.4s0,1.7-0.1,2.6
				s-0.2,1.7-0.4,2.3c-0.2,0.7-0.5,1.2-1,1.6c-0.4,0.4-1,0.4-1.7,0.3c-0.4-0.1-0.6-0.2-0.8-0.5c-0.2-0.2-0.3-0.5-0.3-0.8
				c0-0.3,0-0.7,0.1-1c0.1-0.4,0.2-0.7,0.3-1.1c0.1-0.4,0.2-0.7,0.3-1c0.1-0.3,0.2-0.6,0.2-0.8c0.1-0.5,0.2-1.1,0.2-1.6
				C98.6,14.7,98.6,14.1,98.6,13.6z"/>
			<linearGradient id="SVGID_4_" gradientUnits="userSpaceOnUse" x1="105.4913" y1="6.0563" x2="105.4913" y2="47.1047">
				<stop  offset="0" style="stop-color:#D2D700"/>
				<stop  offset="1" style="stop-color:#87BC2F"/>
			</linearGradient>
			<path class="st4" d="M117.6,17.9c0.2,0.6,0.3,1.2,0.3,1.6c0,0.5,0,0.9-0.1,1.2c-0.1,0.3-0.2,0.6-0.4,0.8
				c-0.2,0.2-0.3,0.4-0.4,0.5c-0.1,0.1-0.3,0.2-0.3,0.2s-0.1,0.1-0.1,0.1c-0.5,0.1-0.9,0-1.2-0.3c-0.3-0.2-0.5-0.6-0.7-1
				s-0.3-0.8-0.3-1.3c0-0.5-0.1-0.9-0.1-1.2c0-0.5,0-1,0-1.6c0-0.5,0-1,0-1.6c0-0.1,0-0.2,0-0.5s0-0.5,0-0.9l0-1.2
				c-0.3,0.2-0.6,0.5-0.8,0.9s-0.3,0.8-0.4,1.2c-0.1,0.4-0.2,0.8-0.3,1.2c-0.1,0.4-0.2,0.8-0.3,1.2c-0.2,0.4-0.3,0.8-0.6,1.2
				s-0.4,0.9-0.7,1.4s-0.6,0.9-0.9,1.2s-0.7,0.6-1.1,0.8c-0.5,0.2-0.9,0.2-1.2,0.2c-0.3-0.1-0.6-0.3-0.8-0.5s-0.3-0.6-0.4-1
				c-0.1-0.4-0.2-0.8-0.2-1.2c0-0.4,0-0.8,0-1.2c0-0.4,0-0.7,0.1-1c0.1-0.9,0.2-1.7,0.2-2.5s0-1.7-0.2-2.5c-0.1-0.4-0.2-0.7-0.2-1
				s-0.1-0.7-0.2-1c0-0.3-0.1-0.7-0.1-1c0-0.3,0.1-0.7,0.1-1.1c0.1-0.6,0.4-1,0.7-1.2c0.3-0.3,0.7-0.4,1-0.4c0.4,0,0.7,0.1,1.1,0.3
				c0.3,0.2,0.6,0.5,0.8,0.9c0.1,0.2,0.1,0.5,0.1,0.8s0,0.6-0.1,0.9c-0.1,0.3-0.1,0.6-0.2,0.9c-0.1,0.3-0.1,0.6-0.1,0.8
				c0,0.2,0,0.6,0,1.1c0,0.5,0,1-0.1,1.5c0,0.5,0,1,0,1.5c0,0.5,0.1,0.8,0.2,1.1c0.3-0.3,0.6-0.6,0.9-1c0.3-0.4,0.5-0.8,0.8-1.3
				c0.2-0.5,0.4-1,0.6-1.5c0.2-0.5,0.4-1.1,0.6-1.6c0.2-0.5,0.4-1.1,0.6-1.6c0.2-0.5,0.4-1,0.6-1.5c0.3-0.6,0.7-1,1.1-1.1
				c0.4-0.1,0.7,0,1.1,0.2c0.3,0.3,0.6,0.6,0.9,1.1c0.2,0.5,0.3,1,0.3,1.5c0,0.7-0.1,1.4-0.2,2c-0.1,0.7-0.2,1.4-0.2,2
				c0,0.7,0,1.4,0.1,2.1C117.3,16.5,117.4,17.2,117.6,17.9z"/>
			<linearGradient id="SVGID_5_" gradientUnits="userSpaceOnUse" x1="105.4913" y1="6.0563" x2="105.4913" y2="47.1047">
				<stop  offset="0" style="stop-color:#D2D700"/>
				<stop  offset="1" style="stop-color:#87BC2F"/>
			</linearGradient>
			<path class="st5" d="M72.8,33.6c0.1,0.7,0.1,1.5,0.2,2.4c0,0.9,0,1.8,0,2.7c0,0.9-0.1,1.8-0.3,2.6c-0.2,0.9-0.4,1.6-0.8,2.3
				s-0.8,1.3-1.3,1.8c-0.6,0.5-1.2,0.8-2.1,0.9c-0.3,0.1-0.5,0.1-0.8,0c-0.2-0.1-0.4-0.2-0.6-0.3c-0.2-0.2-0.3-0.3-0.4-0.6
				c-0.1-0.2-0.2-0.5-0.2-0.7c0-0.3,0-0.7,0-1c0-0.3,0.1-0.7,0.3-1c0.2-0.4,0.3-0.6,0.4-0.7c0.1-0.1,0.2-0.2,0.4-0.3
				c0.1-0.1,0.3-0.1,0.5-0.2c0.2-0.1,0.5-0.2,0.8-0.4c0.2-0.2,0.4-0.4,0.5-0.5c0.1-0.2,0.3-0.3,0.4-0.5s0.2-0.4,0.3-0.7
				c0.1-0.3,0.2-0.6,0.2-1.1c0.1-0.4,0.1-0.8,0.1-1.2s0-0.8,0-1.2c0-0.6,0-1.2-0.1-1.8c-0.1-0.6-0.1-1.2-0.1-1.8
				c0-0.4,0.1-0.7,0.3-0.9s0.4-0.3,0.6-0.4C71.5,31,71.7,31,72,31c0.3,0,0.6,0,0.9,0c0.4,0,0.8,0,1.2,0.1c0.4,0,0.8,0,1.2,0
				c0,0,0.2,0,0.4-0.1c0.2,0,0.4-0.1,0.6-0.1s0.3-0.1,0.4-0.1c0.1,0-0.1,0-0.3,0c0.2-0.1,0.5-0.1,0.9-0.2c0.3-0.1,0.7-0.1,1-0.1
				c0.3,0,0.7,0,1,0.1c0.3,0.1,0.6,0.2,0.8,0.4c0.4,0.4,0.6,0.7,0.8,1.1c0.2,0.4,0.3,0.9,0.2,1.4c0,0.3-0.1,0.5-0.2,0.8
				c-0.1,0.2-0.2,0.5-0.3,0.7s-0.2,0.5-0.3,0.7C80,35.9,80,36.2,80,36.5c0,0.7,0,1.3,0.1,2c0,0.7,0,1.3,0,2c0,0.3,0,0.6,0.1,0.8
				c0.1,0.3,0.1,0.5,0.2,0.7c0.1,0.2,0.2,0.5,0.3,0.7c0.1,0.2,0.2,0.5,0.3,0.8c0.1,0.3,0.1,0.5,0.1,0.8s0,0.6-0.1,0.8
				s-0.2,0.5-0.4,0.7c-0.2,0.2-0.4,0.4-0.7,0.5c-0.5,0.2-1,0.2-1.4,0.1c-0.4-0.1-0.8-0.3-1.1-0.6c-0.3-0.3-0.5-0.6-0.7-1.1
				c-0.2-0.4-0.3-0.9-0.3-1.3c0-0.5,0-1,0-1.5c0-0.5,0.1-1,0.1-1.5c0-0.5,0.1-1,0.1-1.5c0-0.5,0-1,0-1.5c0-0.6-0.1-1.2-0.2-1.8
				c-0.1-0.6-0.1-1.2-0.1-1.8c0-0.2-0.1-0.4-0.4-0.5c-0.3-0.1-0.6-0.1-1-0.2c-0.4,0-0.8,0-1.1,0.1S73,33.5,72.8,33.6z"/>
			<linearGradient id="SVGID_6_" gradientUnits="userSpaceOnUse" x1="105.4913" y1="6.0563" x2="105.4913" y2="47.1047">
				<stop  offset="0" style="stop-color:#D2D700"/>
				<stop  offset="1" style="stop-color:#87BC2F"/>
			</linearGradient>
			<path class="st6" d="M87,42.5c0-0.1,0.1-0.1,0.2-0.3c0.1-0.1,0.1-0.2,0.2-0.4c0.1-0.1,0.1-0.3,0.1-0.4c0-0.1,0-0.2,0-0.2
				c-0.1-0.2-0.3-0.4-0.5-0.6s-0.4-0.4-0.5-0.6c-0.3-0.4-0.6-0.7-0.8-1c-0.2-0.3-0.4-0.6-0.6-0.9c-0.2-0.3-0.4-0.5-0.6-0.8
				c-0.2-0.3-0.4-0.5-0.7-0.9c-0.2-0.3-0.4-0.5-0.6-0.8s-0.4-0.5-0.6-0.8c-0.2-0.3-0.4-0.6-0.5-1c-0.1-0.4-0.1-0.7-0.1-1.1
				c0-0.4,0.1-0.7,0.3-1s0.4-0.6,0.8-0.8c0.4-0.2,0.8-0.3,1.2-0.2c0.3,0.1,0.6,0.3,0.9,0.6c0.3,0.3,0.5,0.7,0.7,1.1
				c0.2,0.4,0.4,0.9,0.6,1.4c0.2,0.5,0.4,1,0.6,1.5s0.4,1,0.6,1.4c0.2,0.4,0.4,0.8,0.7,1c0.2,0.3,0.5,0.4,0.8,0.5
				c0.2-0.7,0.4-1.5,0.5-2.2c0.1-0.7,0.3-1.5,0.4-2.2c0.1-0.4,0.1-0.8,0.2-1.2c0.1-0.4,0.2-0.8,0.4-1.1s0.4-0.6,0.8-0.8
				c0.3-0.2,0.7-0.3,1.2-0.3c0.2,0,0.4,0,0.6,0c0.2,0,0.4,0,0.6,0c0.2,0,0.4,0.1,0.6,0.2c0.2,0.1,0.3,0.2,0.5,0.4
				c0.2,0.4,0.3,0.7,0.3,1.1c-0.1,0.4-0.2,0.7-0.3,1.1c-0.1,0.4-0.3,0.9-0.5,1.3c-0.2,0.4-0.4,0.8-0.6,1.2c-0.2,0.4-0.4,0.8-0.7,1.2
				c-0.2,0.4-0.4,0.8-0.6,1.2c-0.3,0.7-0.6,1.4-1,2.1s-0.7,1.4-1.1,2c-0.2,0.4-0.5,0.8-0.8,1.2c-0.3,0.4-0.5,0.8-0.8,1.1
				c-0.3,0.4-0.6,0.7-1,1c-0.4,0.3-0.8,0.6-1.2,0.8c-0.3,0.2-0.7,0.3-1,0.4c-0.4,0.1-0.7,0.2-1.1,0.3c-0.4,0-0.7,0-1-0.1
				c-0.3-0.1-0.7-0.3-1-0.6c-0.3-0.3-0.5-0.6-0.5-1c0-0.4,0-0.8,0.1-1.1s0.4-0.7,0.7-0.9c0.3-0.3,0.7-0.4,1.1-0.4
				c0.3,0,0.6,0,0.9,0.1c0.3,0.1,0.6,0.2,0.9,0.2c0.3,0,0.5,0,0.8-0.1C86.6,43.2,86.8,42.9,87,42.5z"/>
			<linearGradient id="SVGID_7_" gradientUnits="userSpaceOnUse" x1="105.4913" y1="6.0563" x2="105.4913" y2="47.1047">
				<stop  offset="0" style="stop-color:#D2D700"/>
				<stop  offset="1" style="stop-color:#87BC2F"/>
			</linearGradient>
			<path class="st7" d="M103.2,32c0.2-0.6,0.5-1,0.8-1.2c0.3-0.2,0.7-0.3,1-0.3c0.3,0,0.7,0.1,1,0.3c0.3,0.2,0.6,0.5,0.8,0.9
				c0.2,0.4,0.4,0.7,0.4,1.2c0.1,0.4,0,0.9-0.2,1.3c-0.1,0.3-0.2,0.6-0.3,0.9s-0.1,0.5-0.2,0.8c0,0.3-0.1,0.5-0.1,0.8
				c0,0.3,0,0.6,0,0.9c0,0.3,0,0.6,0,1c0,0.3,0,0.7-0.1,1c0,0.4,0,0.7,0,1s0.1,0.7,0.1,1c0.1,0.3,0.2,0.5,0.3,0.8
				c0.1,0.3,0.2,0.5,0.3,0.8c0.1,0.3,0.2,0.5,0.2,0.8c0.1,0.3,0.1,0.6,0,0.9c-0.1,0.6-0.3,1.1-0.7,1.3c-0.4,0.3-0.8,0.4-1.3,0.4
				c-0.5,0-0.9-0.1-1.3-0.4c-0.4-0.3-0.8-0.6-1-1.1c-0.1-0.4-0.2-0.7-0.3-1.1c0-0.4-0.1-0.7,0-1.1s0-0.8,0.1-1.1
				c0-0.4,0.1-0.8,0.1-1.1c-0.6,0-1.2,0-1.9,0c-0.7,0-1.3,0-1.9-0.2c-0.6-0.1-1.2-0.4-1.6-0.7c-0.5-0.4-0.8-0.9-1-1.6
				c-0.1-0.5-0.3-1.1-0.3-1.7c-0.1-0.6-0.1-1.2-0.2-1.8C96,34,96,33.5,96,32.9s0.1-1.1,0.3-1.6c0.1-0.2,0.3-0.4,0.6-0.6
				c0.2-0.1,0.5-0.2,0.8-0.3c0.3,0,0.6,0,0.9,0s0.5,0.2,0.8,0.3c0.2,0.2,0.4,0.4,0.4,0.7c0.1,0.3,0.2,0.6,0.2,0.9c0,0.3,0,0.7,0,1
				c0,0.3,0,0.6-0.1,0.8c0,0.3-0.1,0.5-0.1,0.8c-0.1,0.3-0.1,0.6-0.1,0.8s0,0.5,0.1,0.8c0.1,0.2,0.3,0.5,0.5,0.6
				c0.2,0.1,0.4,0.2,0.7,0.3c0.2,0,0.5,0.1,0.7,0.1c0.2,0,0.5,0,0.7,0c0.2,0,0.5,0,0.7,0c0-0.5-0.1-0.9-0.1-1.4
				c-0.1-0.5-0.1-1-0.1-1.5c0-0.5,0-1,0-1.5C102.9,32.9,103,32.5,103.2,32z"/>
			<linearGradient id="SVGID_8_" gradientUnits="userSpaceOnUse" x1="105.4913" y1="6.0563" x2="105.4913" y2="47.1047">
				<stop  offset="0" style="stop-color:#D2D700"/>
				<stop  offset="1" style="stop-color:#87BC2F"/>
			</linearGradient>
			<path class="st8" d="M119.8,42.2c0.2,0.6,0.3,1.2,0.3,1.6c0,0.5,0,0.9-0.1,1.2c-0.1,0.3-0.2,0.6-0.4,0.8
				c-0.2,0.2-0.3,0.4-0.4,0.5c-0.1,0.1-0.3,0.2-0.3,0.2s-0.1,0.1-0.1,0.1c-0.5,0.1-0.9,0-1.2-0.3c-0.3-0.2-0.5-0.6-0.7-1
				c-0.2-0.4-0.3-0.8-0.3-1.3c0-0.5-0.1-0.9-0.1-1.2c0-0.5,0-1,0-1.6c0-0.5,0-1,0-1.6c0-0.1,0-0.2,0-0.5s0-0.5,0-0.9l0-1.2
				c-0.3,0.2-0.6,0.5-0.8,0.9s-0.3,0.8-0.4,1.2c-0.1,0.4-0.2,0.8-0.3,1.2c-0.1,0.4-0.2,0.8-0.3,1.2c-0.2,0.4-0.3,0.8-0.6,1.2
				s-0.4,0.9-0.7,1.4s-0.6,0.9-0.9,1.2c-0.3,0.4-0.7,0.6-1.1,0.8c-0.5,0.2-0.9,0.2-1.2,0.2c-0.3-0.1-0.6-0.3-0.8-0.5s-0.3-0.6-0.4-1
				s-0.2-0.8-0.2-1.2c0-0.4,0-0.8,0-1.2c0-0.4,0-0.7,0.1-1c0.1-0.9,0.2-1.7,0.2-2.5c0-0.8,0-1.7-0.2-2.5c-0.1-0.4-0.2-0.7-0.2-1
				c-0.1-0.3-0.1-0.7-0.2-1c0-0.3-0.1-0.7-0.1-1s0.1-0.7,0.1-1.1c0.1-0.6,0.4-1,0.7-1.2c0.3-0.3,0.7-0.4,1-0.4
				c0.4,0,0.7,0.1,1.1,0.3c0.3,0.2,0.6,0.5,0.8,0.9c0.1,0.2,0.1,0.5,0.1,0.8s0,0.6-0.1,0.9c-0.1,0.3-0.1,0.6-0.2,0.9
				c-0.1,0.3-0.1,0.6-0.1,0.8c0,0.2,0,0.6,0,1.1c0,0.5,0,1-0.1,1.5c0,0.5,0,1,0,1.5c0,0.5,0.1,0.8,0.2,1.1c0.3-0.3,0.6-0.6,0.9-1
				c0.3-0.4,0.5-0.8,0.8-1.3c0.2-0.5,0.4-1,0.6-1.5c0.2-0.5,0.4-1.1,0.6-1.6s0.4-1.1,0.6-1.6c0.2-0.5,0.4-1,0.6-1.5
				c0.3-0.6,0.7-1,1.1-1.1c0.4-0.1,0.7,0,1.1,0.2c0.3,0.3,0.6,0.6,0.9,1.1c0.2,0.5,0.3,1,0.3,1.5c0,0.7-0.1,1.4-0.2,2
				c-0.1,0.7-0.2,1.4-0.2,2c0,0.7,0,1.4,0.1,2.1S119.6,41.5,119.8,42.2z"/>
			<linearGradient id="SVGID_9_" gradientUnits="userSpaceOnUse" x1="105.4913" y1="6.0563" x2="105.4913" y2="47.1047">
				<stop  offset="0" style="stop-color:#D2D700"/>
				<stop  offset="1" style="stop-color:#87BC2F"/>
			</linearGradient>
			<path class="st9" d="M122.5,38.7c0-0.2,0-0.5,0-0.9s0-0.7-0.1-1c0-0.4-0.1-0.7-0.1-1c-0.1-0.3-0.1-0.6-0.1-0.8
				c0-0.2-0.1-0.4-0.1-0.5s0,0,0,0.1c0-0.2-0.1-0.5-0.1-0.8c0-0.3-0.1-0.5-0.1-0.8s0-0.5,0.1-0.8c0.1-0.2,0.2-0.5,0.3-0.7
				c0.1-0.2,0.2-0.3,0.4-0.4c0.2-0.1,0.3-0.2,0.5-0.2c0.2,0,0.3,0,0.5,0.1c0.2,0.1,0.3,0.2,0.4,0.4c0.2,0.3,0.4,0.6,0.5,1
				s0.2,0.8,0.2,1.2c0,0.4,0.1,0.8,0.1,1.2c0,0.4,0,0.8,0,1.1c0.4-0.2,0.7-0.4,0.9-0.7s0.5-0.5,0.8-0.8c0.2-0.3,0.4-0.6,0.6-0.9
				c0.2-0.3,0.4-0.6,0.6-1c0.1-0.2,0.3-0.4,0.5-0.7c0.2-0.2,0.4-0.5,0.6-0.6s0.5-0.3,0.8-0.4c0.3-0.1,0.6-0.1,0.9-0.1
				c0.4,0.1,0.7,0.2,0.9,0.5c0.2,0.3,0.3,0.5,0.3,0.9c0,0.3,0,0.6-0.1,1c-0.1,0.3-0.3,0.6-0.5,0.9c-0.2,0.3-0.5,0.6-0.8,0.9
				s-0.6,0.5-0.9,0.8c-0.3,0.3-0.6,0.5-0.9,0.8c-0.3,0.3-0.6,0.5-0.9,0.8c0.5,0.2,0.9,0.6,1.3,1c0.4,0.4,0.7,0.9,1,1.3
				c0.3,0.5,0.5,1,0.7,1.5s0.3,1.1,0.4,1.6c0.1,0.4,0.1,0.8,0.2,1.2c0,0.4,0,0.9-0.1,1.3c-0.1,0.4-0.3,0.7-0.5,1s-0.6,0.4-1.1,0.4
				c-0.4,0-0.7-0.1-1-0.3c-0.3-0.2-0.5-0.5-0.6-0.8c-0.1-0.3-0.3-0.7-0.3-1s-0.1-0.7-0.2-1c-0.1-0.4-0.2-0.8-0.3-1.2s-0.2-0.7-0.4-1
				s-0.4-0.6-0.8-0.8c-0.3-0.2-0.7-0.3-1.2-0.3c0.1,0.8,0.1,1.6,0.1,2.4c0,0.8-0.2,1.6-0.4,2.4c-0.1,0.3-0.3,0.6-0.5,0.9
				c-0.2,0.3-0.5,0.5-0.8,0.6c-0.3,0.1-0.6,0.2-1,0.1c-0.3-0.1-0.7-0.2-1-0.6c-0.3-0.3-0.4-0.7-0.5-1.1c0-0.4,0-0.8,0.1-1.3
				c0.1-0.4,0.2-0.9,0.4-1.3c0.2-0.4,0.3-0.8,0.4-1.1c0.1-0.4,0.3-0.8,0.5-1.2C122.3,39.6,122.4,39.2,122.5,38.7z"/>
			<linearGradient id="SVGID_10_" gradientUnits="userSpaceOnUse" x1="105.4913" y1="6.0563" x2="105.4913" y2="47.1047">
				<stop  offset="0" style="stop-color:#D2D700"/>
				<stop  offset="1" style="stop-color:#87BC2F"/>
			</linearGradient>
			<path class="st10" d="M144.1,42.2c0.2,0.6,0.3,1.2,0.3,1.6c0,0.5,0,0.9-0.1,1.2c-0.1,0.3-0.2,0.6-0.4,0.8
				c-0.2,0.2-0.3,0.4-0.4,0.5c-0.1,0.1-0.3,0.2-0.3,0.2s-0.1,0.1-0.1,0.1c-0.5,0.1-0.9,0-1.2-0.3c-0.3-0.2-0.5-0.6-0.7-1
				c-0.2-0.4-0.3-0.8-0.3-1.3c0-0.5-0.1-0.9-0.1-1.2c0-0.5,0-1,0-1.6c0-0.5,0-1,0-1.6c0-0.1,0-0.2,0-0.5s0-0.5,0-0.9l0-1.2
				c-0.3,0.2-0.6,0.5-0.8,0.9s-0.3,0.8-0.4,1.2c-0.1,0.4-0.2,0.8-0.3,1.2c-0.1,0.4-0.2,0.8-0.3,1.2c-0.2,0.4-0.3,0.8-0.6,1.2
				s-0.4,0.9-0.7,1.4s-0.6,0.9-0.9,1.2c-0.3,0.4-0.7,0.6-1.1,0.8c-0.5,0.2-0.9,0.2-1.2,0.2c-0.3-0.1-0.6-0.3-0.8-0.5s-0.3-0.6-0.4-1
				s-0.2-0.8-0.2-1.2c0-0.4,0-0.8,0-1.2c0-0.4,0-0.7,0.1-1c0.1-0.9,0.2-1.7,0.2-2.5c0-0.8,0-1.7-0.2-2.5c-0.1-0.4-0.2-0.7-0.2-1
				c-0.1-0.3-0.1-0.7-0.2-1c0-0.3-0.1-0.7-0.1-1s0.1-0.7,0.1-1.1c0.1-0.6,0.4-1,0.7-1.2c0.3-0.3,0.7-0.4,1-0.4
				c0.4,0,0.7,0.1,1.1,0.3c0.3,0.2,0.6,0.5,0.8,0.9c0.1,0.2,0.1,0.5,0.1,0.8s0,0.6-0.1,0.9c-0.1,0.3-0.1,0.6-0.2,0.9
				c-0.1,0.3-0.1,0.6-0.1,0.8c0,0.2,0,0.6,0,1.1c0,0.5,0,1-0.1,1.5c0,0.5,0,1,0,1.5c0,0.5,0.1,0.8,0.2,1.1c0.3-0.3,0.6-0.6,0.9-1
				c0.3-0.4,0.5-0.8,0.8-1.3c0.2-0.5,0.4-1,0.6-1.5c0.2-0.5,0.4-1.1,0.6-1.6s0.4-1.1,0.6-1.6c0.2-0.5,0.4-1,0.6-1.5
				c0.3-0.6,0.7-1,1.1-1.1c0.4-0.1,0.7,0,1.1,0.2c0.3,0.3,0.6,0.6,0.9,1.1c0.2,0.5,0.3,1,0.3,1.5c0,0.7-0.1,1.4-0.2,2
				c-0.1,0.7-0.2,1.4-0.2,2c0,0.7,0,1.4,0.1,2.1S143.9,41.5,144.1,42.2z"/>
		</g>
	</g>
	<linearGradient id="SVGID_11_" gradientUnits="userSpaceOnUse" x1="26.5612" y1="0.1953" x2="26.5612" y2="64">
		<stop  offset="0" style="stop-color:#D2D700"/>
		<stop  offset="1" style="stop-color:#87BC2F"/>
	</linearGradient>
	<path class="st11" d="M47.9,0.2H5.3C2.4,0.2,0,2.6,0,5.5v53.3C0,61.6,2.4,64,5.3,64c3.7,0,8.3-0.8,11.7-2.3
		c2.9-1.3,4.2-4.1,4.2-6.9c0-2.6,0.1-6.7,0-8.9c-0.1-3.1,0.1-6.7-5.3-9.4c-1.6-0.8-6.3-2.2-9.9-6.7c-1.7-2.1,0.8-4,2.6-2.3
		c1.5,1.5,6.6,6.3,15.8,5.7c8.3-0.5,13.4-5.2,16.2-9.3c0,0,0,0,0,0c1.4-1.9,3.7-0.6,2.8,1.6c-1.4,3.3-3.8,6.2-10.1,10.2
		c-3.1,2-6.7,3.9-6.7,9.4v0.6c0,0,6.4-9.3,21.3-5.8c-7.4,1.1-5.2,8.4-7.2,12.9c-0.8,2.1-3.6,3.6-6,3.6c-2,0-3.8-1.1-4.8-2.7
		c-1.5-2.7-0.3-5.9,1.4-7.7c1.8-1.9,5.6-3.4,7.6-4.1c2.9-0.7,1.8-1.6-0.3-1c-2,0.6-10.7,2.6-12,10.4c0,0.2-0.1,1.7-0.1,1.9
		c0,5.3,2.8,7.1,5.4,8.3c2.4,1.1,7.6,2.4,15.8,2.4c3,0,5.3-2.4,5.3-5.3V5.5C53.1,2.6,50.8,0.2,47.9,0.2z M18.6,22.6
		c-2.1,0-3.8-1.7-3.8-3.8c0-2.1,1.7-3.8,3.8-3.8c2.1,0,3.8,1.7,3.8,3.8C22.4,20.9,20.7,22.6,18.6,22.6z M31.9,24.3
		c-1.6,0-2.8-1.3-2.8-2.8s1.3-2.8,2.8-2.8s2.8,1.3,2.8,2.8S33.5,24.3,31.9,24.3z"/>
</g>
</svg>
