<svg width="310" height="49" viewBox="0 0 310 49" fill="none" xmlns="http://www.w3.org/2000/svg">
<g clip-path="url(#clip0)">
<path d="M2.42923 26.1003C3.08832 24.7068 3.9169 22.9179 4.91496 20.6958C5.91301 18.4925 6.91107 16.2328 7.90912 13.8977C8.90718 11.5815 9.86757 9.28404 10.7526 7.04312C11.6565 4.8022 12.4475 2.6931 13.1254 0.71582C13.4078 0.71582 13.728 0.753483 14.1046 0.809977C14.4812 0.86647 14.7449 0.904133 14.8955 0.904133C15.1403 0.904133 15.4416 0.86647 15.8182 0.809977C16.1949 0.753483 16.4962 0.71582 16.741 0.71582C17.3059 2.29765 18.2098 4.63272 19.4338 7.70221C20.6579 10.7905 21.9007 13.8412 23.1436 16.8919C24.3865 19.9237 25.6858 22.9932 27.0228 26.1003H29.2073C29.1319 26.8913 29.0943 27.6068 29.0943 28.2848C29.0943 29.3958 29.1319 30.1302 29.2073 30.488H28.793C27.8138 29.7159 26.6274 29.2452 25.2527 29.0569C23.878 28.8685 21.8066 28.7744 19.0384 28.7744H10.1689C7.43834 28.7744 5.40457 28.8685 4.01106 29.0569C2.63637 29.2452 1.45001 29.7159 0.470781 30.488H0C0.131819 30.1302 0.188312 29.3958 0.188312 28.2848C0.188312 27.475 0.131819 26.7406 0 26.1003H2.42923ZM22.1644 26.1003C20.5072 20.9971 17.852 14.3873 14.2364 6.23338H13.841C13.4832 7.04312 12.8994 8.4178 12.1085 10.3574C11.2987 12.2782 10.3007 14.7639 9.09549 17.7958C7.89029 20.8276 6.83574 23.5958 5.93184 26.1192H22.1644V26.1003Z" fill="#464646"/>
<path d="M46.4756 0.321289C49.1685 0.321289 51.5412 0.905057 53.6126 2.09143C55.6841 3.27779 57.3036 4.95377 58.4523 7.1382C59.601 9.32262 60.1847 11.846 60.1847 14.746C60.1847 16.648 59.8646 18.4746 59.2432 20.2259C58.6217 21.9961 57.6613 23.559 56.3997 24.9526C55.138 26.3461 53.575 27.4383 51.7295 28.2292C49.884 29.0201 47.7749 29.4156 45.4022 29.4156C43.5002 29.4156 41.6924 29.0766 39.9788 28.3987C38.2652 27.7207 36.7775 26.7415 35.5158 25.461C34.2541 24.1805 33.256 22.6175 32.5216 20.772C31.806 18.9266 31.4482 16.8551 31.4482 14.5577C31.4482 11.7707 32.1073 9.30379 33.4067 7.1382C34.706 4.97261 36.5139 3.29663 38.8113 2.09143C41.1275 0.923889 43.6697 0.321289 46.4756 0.321289ZM36.6457 15.4616C36.6457 18.7759 37.3989 21.6383 38.9242 24.011C40.4496 26.3837 42.7658 27.5889 45.873 27.5889C48.0009 27.5889 49.7522 26.8733 51.1081 25.4233C52.4828 23.9733 53.462 22.2409 54.0646 20.1883C54.6672 18.1545 54.9685 16.2525 54.9685 14.4636C54.9685 12.4486 54.686 10.509 54.1399 8.6447C53.575 6.78041 52.6711 5.23624 51.3905 4.01221C50.11 2.78818 48.4529 2.16675 46.4191 2.16675C44.0652 2.16675 42.1632 2.80701 40.6944 4.08754C39.2256 5.36806 38.1898 7.00638 37.5684 9.00249C36.9658 10.9986 36.6457 13.1454 36.6457 15.4616Z" fill="#464646"/>
<path d="M83.6671 0.735352H85.2489C86.3599 2.95744 87.7158 5.53732 89.3164 8.49383C90.9171 11.4503 92.4236 14.162 93.8924 16.6666C95.3424 19.1523 96.5853 21.1861 97.621 22.7491C101.105 16.7419 105.041 9.39773 109.391 0.754183H110.972C111.293 3.5977 111.631 6.36589 111.952 9.07759C112.272 11.7705 112.554 14.0114 112.761 15.8004C112.968 17.5893 113.27 20.0562 113.665 23.1822C114.042 26.3082 114.268 28.2478 114.343 28.9634C114.061 28.9446 113.628 28.9069 113.063 28.8692C112.479 28.8127 112.046 28.7939 111.744 28.7939C111.481 28.7939 111.085 28.8127 110.52 28.8692C109.974 28.9257 109.504 28.9446 109.146 28.9634C108.769 21.4121 108.223 14.9906 107.564 9.69903C106.246 11.8646 105.003 13.9549 103.854 15.9698C102.705 17.9848 101.557 20.0939 100.37 22.2783C99.2028 24.4627 98.0353 26.7036 96.9054 28.9634H95.5496C91.821 21.638 88.2431 15.2166 84.7969 9.69903C84.2885 13.39 83.9307 16.1205 83.7236 17.853C83.4976 19.6043 83.3093 21.4309 83.121 23.3705C82.9326 25.3101 82.8197 27.1744 82.782 28.9634C82.6313 28.9446 82.4054 28.9069 82.1229 28.8692C81.8404 28.8127 81.558 28.7939 81.3132 28.7939C81.1248 28.7939 80.8612 28.8127 80.5222 28.8692C80.1833 28.9257 79.9008 28.9446 79.656 28.9634C80.0138 27.4381 80.3716 25.6679 80.6729 23.6906C80.993 21.6945 81.3132 19.4348 81.671 16.8926C82.0099 14.3503 82.33 11.8646 82.6313 9.47305C82.9138 7.02499 83.2716 4.12498 83.6671 0.735352Z" fill="#464646"/>
<path d="M118.599 0.678987C118.9 0.697819 119.333 0.735481 119.898 0.791975C120.463 0.848469 120.99 0.8673 121.442 0.8673C121.819 0.8673 122.29 0.848469 122.817 0.791975C123.344 0.735481 123.815 0.697819 124.229 0.678987C126.452 7.53356 129.37 14.8401 133.042 22.6174C133.852 20.9414 134.813 18.7946 135.905 16.1771C136.997 13.5784 138.033 10.9797 139.031 8.3998C140.029 5.81992 140.97 3.24004 141.893 0.660156C142.515 0.791975 143.174 0.848469 143.833 0.848469C144.473 0.848469 145.113 0.791975 145.735 0.660156C144.228 4.01212 142.364 8.13616 140.142 13.0323C137.92 17.9096 136.168 21.8076 134.888 24.6888C133.607 27.57 132.233 30.7148 130.783 34.1233C129.333 37.5317 127.958 40.846 126.659 44.085C126.357 44.0662 126 44.0285 125.585 43.9909C125.171 43.9344 124.851 43.9155 124.644 43.9155C124.399 43.9155 124.06 43.9344 123.608 43.9909C123.156 44.0473 122.836 44.0662 122.648 44.085C127.016 35.5545 129.653 30.4324 130.576 28.7187L118.599 0.678987Z" fill="#464646"/>
<path d="M155.264 44.0845C154.962 44.0657 154.548 44.028 154.021 43.9904C153.512 43.9339 153.136 43.9151 152.891 43.9151C152.608 43.9151 152.213 43.9339 151.686 43.9904C151.158 44.0469 150.782 44.0657 150.518 44.0845V0.678512C150.782 0.697344 151.14 0.735006 151.629 0.7915C152.1 0.847994 152.533 0.866825 152.891 0.866825C153.211 0.866825 153.606 0.847994 154.077 0.7915C154.548 0.735006 154.943 0.697344 155.245 0.678512V6.30906H155.358C156.205 4.59541 157.335 3.14541 158.71 1.97787C160.084 0.810331 162.306 0.226562 165.357 0.226562C167.786 0.226562 169.914 0.847994 171.722 2.10969C173.53 3.37138 174.905 5.04736 175.846 7.13763C176.788 9.2279 177.258 11.4688 177.258 13.8792C177.258 17.0429 176.731 19.8111 175.658 22.165C174.584 24.5189 173.078 26.3267 171.138 27.5695C169.199 28.8124 166.977 29.4338 164.491 29.4338C160.423 29.4338 157.391 27.5507 155.377 23.7656H155.264V44.0845V44.0845ZM163.964 26.9293C165.847 26.9293 167.41 26.3643 168.615 25.2156C169.839 24.0669 170.705 22.5416 171.251 20.6208C171.797 18.7 172.061 16.5344 172.061 14.1052C172.061 10.8097 171.421 8.09802 170.159 5.93243C168.879 3.78567 166.807 2.69346 163.907 2.69346C161.798 2.69346 160.103 3.35255 158.823 4.65191C157.523 5.95126 156.619 7.58958 156.073 9.5292C155.527 11.4688 155.264 13.5026 155.264 15.5929C155.264 18.9448 155.998 21.6754 157.467 23.7845C158.917 25.8747 161.082 26.9293 163.964 26.9293Z" fill="#464646"/>
<path d="M203.924 23.9733C203.924 25.0844 204.018 25.8565 204.187 26.2896C204.357 26.7227 204.809 26.9298 205.524 26.9298C206.052 26.9298 206.617 26.8545 207.238 26.7039V28.0032C206.466 28.3234 205.863 28.5305 205.468 28.587C204.828 28.7 204.187 28.7565 203.585 28.7565C201.099 28.6811 199.687 27.4948 199.385 25.1409L198.858 25.6681C196.372 28.1539 193.453 29.3967 190.102 29.3967C187.936 29.3967 186.053 28.7188 184.509 27.363C182.946 26.0071 182.174 24.2746 182.174 22.1655C182.174 20.0941 182.663 18.4746 183.661 17.3259C184.64 16.1772 185.883 15.3863 187.371 14.9155C188.859 14.4447 190.798 14.0304 193.19 13.6538C194.96 13.3525 196.241 13.0889 197.069 12.8441C197.898 12.5993 198.5 12.2603 198.877 11.7895C199.254 11.3187 199.461 10.622 199.461 9.68042C199.461 7.49599 198.858 5.80118 197.653 4.57715C196.448 3.37195 194.753 2.75052 192.55 2.75052C190.648 2.75052 189.066 3.20247 187.823 4.10637C186.58 5.01027 185.808 5.91417 185.526 6.81807H184.866V3.57909C187.974 1.4135 191.137 0.321289 194.339 0.321289C200.722 0.321289 203.924 3.63559 203.924 10.2454V23.9733ZM199.197 14.2187L197.126 14.6895C196.41 14.8213 195.355 15.0285 193.962 15.311C192.568 15.5934 191.382 15.9512 190.403 16.3843C189.424 16.8175 188.633 17.4389 187.992 18.2486C187.371 19.0584 187.051 20.0941 187.051 21.3746C187.051 23.2013 187.559 24.5571 188.576 25.4798C189.593 26.4026 191.024 26.8733 192.851 26.8733C193.604 26.8733 194.433 26.6474 195.337 26.1954C196.241 25.7435 196.994 25.2162 197.559 24.6324C197.672 24.5383 197.879 24.35 198.18 24.0675C198.481 23.785 198.726 23.5402 198.896 23.3519C199.065 23.1636 199.159 22.9941 199.159 22.8623V14.2187H199.197Z" fill="#464646"/>
<path d="M228.028 26.1009V0.678711C228.461 0.81053 229.252 0.867023 230.4 0.867023C231.38 0.867023 232.171 0.81053 232.754 0.678711V26.1197C233.263 26.1386 233.997 26.1574 234.995 26.195C235.993 26.2327 236.878 26.2327 237.65 26.2327C238.441 26.2327 239.308 26.2139 240.287 26.195C241.247 26.1574 241.963 26.1386 242.452 26.1197V0.678711C242.886 0.81053 243.676 0.867023 244.825 0.867023C245.936 0.867023 246.727 0.81053 247.198 0.678711V28.7749H213.603V0.678711C214.093 0.81053 214.865 0.867023 215.976 0.867023C217.011 0.867023 217.802 0.81053 218.348 0.678711V26.1197C218.8 26.1386 219.497 26.1574 220.401 26.195C221.305 26.2327 222.134 26.2327 222.887 26.2327C223.715 26.2327 224.657 26.2139 225.693 26.195C226.728 26.1574 227.519 26.1197 228.028 26.1009Z" fill="#464646"/>
<path d="M277.949 25.913C274.691 28.248 271.302 29.3967 267.78 29.3967C265.069 29.3967 262.658 28.813 260.53 27.6643C258.421 26.4967 256.764 24.8207 255.597 22.6363C254.41 20.4331 253.826 17.8532 253.826 14.859C253.826 12.0908 254.354 9.60509 255.408 7.40184C256.463 5.19858 258.007 3.46611 260.041 2.20441C262.074 0.94272 264.523 0.321289 267.366 0.321289C269.532 0.321289 271.528 0.810901 273.373 1.79013C275.219 2.76935 276.688 4.25702 277.78 6.2343C278.872 8.21158 279.437 10.6408 279.437 13.522C279.437 13.6538 279.418 13.861 279.399 14.1623C279.38 14.4447 279.362 14.6707 279.362 14.8213C275.332 14.7084 271.339 14.6519 267.347 14.6519H259.024C258.986 14.9343 258.967 15.3486 258.967 15.8947C258.967 17.9285 259.363 19.7928 260.154 21.4688C260.945 23.1448 262.131 24.4818 263.694 25.461C265.257 26.4402 267.102 26.9298 269.249 26.9298C272.262 26.9298 275.181 25.574 278.006 22.8435L277.949 25.913ZM274.748 12.4486C274.597 5.59404 272.13 2.14792 267.366 2.14792C265.634 2.14792 264.146 2.63753 262.922 3.61676C261.698 4.59598 260.775 5.87651 260.154 7.4395C259.532 9.00249 259.156 10.6785 259.024 12.4486H274.748Z" fill="#464646"/>
<path d="M290.717 11.0166C290.717 12.203 290.811 12.8433 291.018 12.9563C292.129 12.9563 293.843 11.7887 296.159 9.47248L299.831 5.74389L304.445 0.640625C304.671 0.659456 305.029 0.697119 305.518 0.753613C306.008 0.810106 306.422 0.828937 306.799 0.828937C307.119 0.828937 307.495 0.810106 307.947 0.753613C308.399 0.697119 308.776 0.659456 309.115 0.640625V1.05491C308.983 1.18673 307.853 2.14712 305.744 3.93609C303.635 5.72506 301.865 7.25039 300.434 8.51209C299.003 9.77378 297.553 11.092 296.103 12.4666C297.251 13.8037 298.89 15.6868 300.98 18.1349C303.07 20.5829 304.765 22.5602 306.045 24.0479C307.326 25.5355 308.644 27.0609 310.019 28.605V28.8875C309.605 28.8687 309.096 28.831 308.475 28.7933C307.853 28.7368 307.401 28.718 307.119 28.718C306.761 28.718 306.253 28.7368 305.612 28.7933C304.972 28.8498 304.482 28.8687 304.162 28.8875C302.524 26.7596 298.758 22.3154 292.882 15.5926C292.299 14.9524 291.847 14.6322 291.527 14.6322C290.999 14.6322 290.754 15.3667 290.754 16.8355V28.8875C290.453 28.8687 290.039 28.831 289.53 28.7933C289.022 28.7368 288.645 28.718 288.382 28.718C288.099 28.718 287.704 28.7368 287.158 28.7933C286.63 28.8498 286.254 28.8687 286.009 28.8875V0.678288C286.235 0.697119 286.593 0.734781 287.082 0.791275C287.572 0.847769 288.005 0.8666 288.363 0.8666C288.702 0.8666 289.116 0.847769 289.568 0.791275C290.02 0.734781 290.416 0.697119 290.736 0.678288V11.0166H290.717Z" fill="#464646"/>
<path d="M179.82 40.6539C179.82 41.0117 179.707 41.3318 179.499 41.6331C179.292 41.9344 178.991 42.1604 178.596 42.3487C179.499 42.6688 179.97 43.2902 179.97 44.1941C179.97 44.9286 179.669 45.5123 179.085 45.9454C178.483 46.3786 177.692 46.6045 176.694 46.6045C176.091 46.6045 175.526 46.5104 175.036 46.3032C174.528 46.0961 174.151 45.8136 173.869 45.437C173.586 45.0604 173.455 44.6084 173.455 44.1H175.244C175.244 44.4201 175.394 44.7026 175.677 44.9097C175.959 45.1357 176.336 45.2299 176.769 45.2299C177.202 45.2299 177.56 45.1357 177.805 44.9286C178.068 44.7214 178.181 44.4578 178.181 44.1376C178.181 43.7422 178.068 43.4785 177.842 43.2902C177.616 43.1208 177.277 43.0266 176.807 43.0266H175.526V41.7461H176.844C177.635 41.7272 178.049 41.4071 178.049 40.7668C178.049 40.4467 177.936 40.1831 177.71 40.0136C177.484 39.8253 177.164 39.75 176.769 39.75C176.373 39.75 176.053 39.8441 175.771 40.0324C175.507 40.2207 175.375 40.4655 175.375 40.7668H173.586C173.586 40.0701 173.888 39.4863 174.471 39.0344C175.055 38.5824 175.808 38.3564 176.712 38.3564C177.692 38.3564 178.464 38.5636 179.01 38.959C179.556 39.3357 179.82 39.9006 179.82 40.6539Z" fill="#464646"/>
<path d="M184.226 45.0081C184.716 44.462 185.055 43.9347 185.224 43.4263C185.394 42.9366 185.488 42.2964 185.525 41.5243L185.62 38.4736H191.137V45.0081H192.248V48.7932H190.459V46.4204H185.356V48.7932H183.548V44.9893H184.226V45.0081ZM186.335 45.0081H189.386V40.0178H187.371L187.314 41.5431C187.258 42.9931 186.919 44.1607 186.335 45.0081Z" fill="#464646"/>
<path d="M199.762 46.5706C198.632 46.5706 197.709 46.2128 197.012 45.4972C196.316 44.7817 195.958 43.8401 195.958 42.6537V42.4278C195.958 41.6368 196.108 40.9213 196.41 40.2998C196.711 39.6784 197.144 39.1888 197.709 38.831C198.255 38.492 198.877 38.3037 199.555 38.3037C200.647 38.3037 201.475 38.6427 202.059 39.3394C202.643 40.0362 202.944 41.0154 202.944 42.2771V42.9927H197.747C197.803 43.6518 198.029 44.1602 198.406 44.5557C198.782 44.9323 199.272 45.1206 199.856 45.1206C200.666 45.1206 201.344 44.7817 201.852 44.1226L202.812 45.0453C202.492 45.5161 202.059 45.8927 201.532 46.1563C201.005 46.4576 200.421 46.5706 199.762 46.5706ZM199.536 39.7537C199.046 39.7537 198.651 39.9232 198.349 40.2622C198.048 40.6011 197.86 41.0907 197.766 41.6933H201.174V41.5615C201.136 40.9589 200.967 40.507 200.703 40.2057C200.421 39.9232 200.025 39.7537 199.536 39.7537Z" fill="#464646"/>
<path d="M210.307 45.1577C210.759 45.1577 211.117 45.0259 211.418 44.7623C211.72 44.4986 211.87 44.1785 211.889 43.8019H213.565C213.546 44.2915 213.396 44.7623 213.094 45.1954C212.812 45.6285 212.416 45.9675 211.927 46.2123C211.437 46.4571 210.891 46.5889 210.326 46.5889C209.215 46.5889 208.33 46.2311 207.671 45.5155C207.012 44.7999 206.692 43.8019 206.692 42.5214V42.333C206.692 41.1278 207.012 40.1486 207.671 39.433C208.33 38.7174 209.196 38.3408 210.326 38.3408C211.268 38.3408 212.04 38.6233 212.642 39.1694C213.245 39.7155 213.546 40.4499 213.584 41.335H211.908C211.889 40.883 211.738 40.5064 211.437 40.2051C211.155 39.9038 210.778 39.772 210.326 39.772C209.742 39.772 209.309 39.9791 208.989 40.3934C208.669 40.8077 208.518 41.448 208.518 42.2954V42.5778C208.518 43.4441 208.669 44.0843 208.989 44.5175C209.272 44.9318 209.724 45.1577 210.307 45.1577Z" fill="#464646"/>
<path d="M219.553 40.9973H221.305C221.964 40.9973 222.529 41.1103 223.018 41.3363C223.508 41.5622 223.866 41.8824 224.129 42.2778C224.374 42.6921 224.506 43.1629 224.506 43.6902C224.506 44.4999 224.224 45.159 223.64 45.6674C223.056 46.1571 222.284 46.4207 221.324 46.4207H217.764V38.4551H219.553V40.9973ZM219.553 42.4473V45.0084H221.305C221.738 45.0084 222.077 44.8954 222.34 44.6882C222.585 44.4622 222.717 44.1609 222.717 43.7655C222.717 43.37 222.585 43.0499 222.34 42.8051C222.096 42.5791 221.757 42.4473 221.342 42.4473H219.553Z" fill="#464646"/>
<path d="M234.769 42.3898C234.769 41.6177 234.92 40.9021 235.24 40.2807C235.541 39.6593 235.974 39.1697 236.539 38.8307C237.104 38.4917 237.744 38.3223 238.46 38.3223C239.533 38.3223 240.4 38.6612 241.077 39.358C241.755 40.0547 242.113 40.9586 242.17 42.1073V42.5216C242.17 43.3125 242.019 44.0093 241.718 44.6307C241.416 45.2522 240.983 45.7229 240.418 46.0619C239.853 46.4009 239.213 46.5704 238.479 46.5704C237.349 46.5704 236.464 46.1937 235.786 45.4405C235.108 44.6872 234.769 43.6892 234.769 42.4463V42.3898ZM236.558 42.5405C236.558 43.3502 236.728 44.0093 237.066 44.4613C237.405 44.932 237.876 45.158 238.479 45.158C239.081 45.158 239.552 44.932 239.891 44.4613C240.23 43.9905 240.4 43.2937 240.4 42.3898C240.4 41.5801 240.23 40.9398 239.872 40.469C239.533 39.9982 239.063 39.7723 238.46 39.7723C237.876 39.7723 237.405 39.9982 237.066 40.469C236.728 40.921 236.558 41.6177 236.558 42.5405Z" fill="#464646"/>
<path d="M259.607 38.4739V46.4395H257.819V39.9239H255.578L255.427 42.6921C255.333 44.0291 255.069 44.9895 254.655 45.5545C254.241 46.1382 253.6 46.4207 252.734 46.4207H252.188V44.9142L252.565 44.8765C252.96 44.82 253.243 44.5752 253.412 44.161C253.6 43.7467 253.713 42.9746 253.751 41.8447L253.902 38.4551H259.607V38.4739Z" fill="#464646"/>
<path d="M266.161 41.6739H267.667C267.799 40.6571 268.195 39.8473 268.835 39.2447C269.494 38.6421 270.304 38.3408 271.302 38.3408C272.375 38.3408 273.241 38.6798 273.919 39.3765C274.597 40.0733 274.955 40.9772 275.012 42.1259V42.5402C275.012 43.3311 274.861 44.0279 274.56 44.6493C274.258 45.2707 273.825 45.7415 273.26 46.0805C272.695 46.4194 272.055 46.5889 271.321 46.5889C270.285 46.5889 269.437 46.2688 268.778 45.6285C268.119 44.9882 267.743 44.1597 267.63 43.1051H266.142V46.4383H264.353V38.4726H266.142V41.6739H266.161ZM269.4 42.5402C269.4 43.3499 269.569 44.009 269.908 44.461C270.247 44.9318 270.718 45.1577 271.321 45.1577C271.923 45.1577 272.394 44.9318 272.733 44.461C273.072 43.9902 273.241 43.2934 273.241 42.3895C273.241 41.5798 273.072 40.9207 272.714 40.4688C272.375 39.998 271.904 39.772 271.321 39.772C270.737 39.772 270.266 39.998 269.927 40.4688C269.569 40.9207 269.4 41.6175 269.4 42.5402Z" fill="#464646"/>
<path d="M279.117 45.0081C279.606 44.462 279.945 43.9347 280.115 43.4263C280.284 42.9366 280.378 42.2964 280.416 41.5243L280.51 38.4736H286.028V45.0081H287.139V48.7932H285.35V46.4204H280.247V48.7932H278.439V44.9893H279.117V45.0081ZM281.207 45.0081H284.258V40.0178H282.243L282.186 41.5431C282.13 42.9931 281.791 44.1607 281.207 45.0081Z" fill="#464646"/>
<path d="M297.496 38.4736V46.4393H295.707V43.5204H294.031L292.336 46.4393H290.491L292.374 43.2191C291.884 43.012 291.508 42.7107 291.244 42.334C290.98 41.9574 290.849 41.5055 290.849 41.0159C290.849 40.2814 291.131 39.66 291.696 39.1892C292.261 38.7184 293.033 38.4736 294.012 38.4736H297.496V38.4736ZM292.637 41.0723C292.637 41.4113 292.769 41.6749 293.014 41.8821C293.259 42.0892 293.579 42.2022 293.974 42.2022H295.726V39.9048H294.087C293.654 39.9048 293.297 40.0178 293.052 40.2438C292.769 40.4509 292.637 40.7334 292.637 41.0723Z" fill="#464646"/>
<path d="M305.047 41.0912L306.554 38.4736H308.531L306.102 42.3905L308.625 46.4204H306.648L305.066 43.7087L303.484 46.4204H301.507L304.03 42.3905L301.601 38.4736H303.578L305.047 41.0912Z" fill="#464646"/>
</g>
<defs>
<clipPath id="clip0">
<rect width="310" height="48.5846" fill="white" transform="translate(0 0.208008)"/>
</clipPath>
</defs>
</svg>
