<svg width="41" height="41" viewBox="0 0 41 41" fill="none" xmlns="http://www.w3.org/2000/svg">
<path d="M12.4745 0.927307H29.1982C35.5691 0.927307 40.7454 6.10367 40.7454 12.4746V29.1982C40.7454 32.2607 39.5288 35.1978 37.3633 37.3634C35.1978 39.5289 32.2607 40.7455 29.1982 40.7455H12.4745C6.10361 40.7455 0.927246 35.5691 0.927246 29.1982V12.4746C0.927246 9.41205 2.14383 6.47496 4.30936 4.30943C6.4749 2.14389 9.41199 0.927307 12.4745 0.927307ZM12.0763 4.90913C10.1755 4.90913 8.35243 5.66425 7.00831 7.00837C5.66419 8.3525 4.90906 10.1755 4.90906 12.0764V29.5964C4.90906 33.5583 8.11443 36.7637 12.0763 36.7637H29.5963C31.4972 36.7637 33.3202 36.0085 34.6644 34.6644C36.0085 33.3203 36.7636 31.4973 36.7636 29.5964V12.0764C36.7636 8.11449 33.5582 4.90913 29.5963 4.90913H12.0763ZM31.2886 7.89549C31.9486 7.89549 32.5816 8.15768 33.0483 8.62439C33.5151 9.0911 33.7772 9.7241 33.7772 10.3841C33.7772 11.0442 33.5151 11.6771 33.0483 12.1439C32.5816 12.6106 31.9486 12.8728 31.2886 12.8728C30.6286 12.8728 29.9956 12.6106 29.5289 12.1439C29.0622 11.6771 28.8 11.0442 28.8 10.3841C28.8 9.7241 29.0622 9.0911 29.5289 8.62439C29.9956 8.15768 30.6286 7.89549 31.2886 7.89549ZM20.8363 10.8819C23.4764 10.8819 26.0084 11.9306 27.8753 13.7975C29.7421 15.6643 30.7909 18.1963 30.7909 20.8364C30.7909 23.4765 29.7421 26.0085 27.8753 27.8753C26.0084 29.7422 23.4764 30.7909 20.8363 30.7909C18.1962 30.7909 15.6642 29.7422 13.7974 27.8753C11.9306 26.0085 10.8818 23.4765 10.8818 20.8364C10.8818 18.1963 11.9306 15.6643 13.7974 13.7975C15.6642 11.9306 18.1962 10.8819 20.8363 10.8819ZM20.8363 14.8637C19.2523 14.8637 17.7331 15.4929 16.613 16.613C15.4929 17.7331 14.8636 19.2523 14.8636 20.8364C14.8636 22.4205 15.4929 23.9396 16.613 25.0598C17.7331 26.1799 19.2523 26.8091 20.8363 26.8091C22.4204 26.8091 23.9396 26.1799 25.0597 25.0598C26.1798 23.9396 26.8091 22.4205 26.8091 20.8364C26.8091 19.2523 26.1798 17.7331 25.0597 16.613C23.9396 15.4929 22.4204 14.8637 20.8363 14.8637Z" fill="url(#paint0_linear)"/>
<defs>
<linearGradient id="paint0_linear" x1="20.8363" y1="0.927307" x2="20.8363" y2="40.7455" gradientUnits="userSpaceOnUse">
<stop stop-color="#3CB9FF"/>
<stop offset="1" stop-color="#FF3CE0"/>
</linearGradient>
</defs>
</svg>
