<svg width="322" height="386" viewBox="0 0 322 386" fill="none" xmlns="http://www.w3.org/2000/svg">
<path d="M289.245 6.96148e-05H32.6631C24.2382 6.50516e-05 16.1579 3.35297 10.1975 9.32209C4.23709 15.2912 0.883758 23.3882 0.875 31.8342V353.787C0.875 362.238 4.22484 370.344 10.1862 376.32C16.1476 382.296 24.2325 385.654 32.6631 385.654C55.0996 385.654 82.9217 380.817 103.31 371.443C120.756 363.459 128.621 346.731 128.621 329.538C128.621 314.102 129.117 289.224 128.621 275.775C128.093 257.092 129.018 235.46 96.9654 218.963C87.5811 214.094 58.8667 205.713 36.992 178.583C26.5833 165.697 41.9484 154.467 52.5222 164.835C61.7414 173.879 92.174 202.699 148.05 199.32C198.805 196.272 228.974 166.624 246.454 141.614C256.367 127.469 270.906 140.753 262.712 152.579C254.517 164.405 240.01 190.077 201.713 214.525C182.845 226.582 161.07 238.177 161.07 271.634V275.311C161.07 275.311 199.698 219.361 289.774 240.263C244.835 246.889 258.151 291.178 246.321 318.275C241.728 330.333 229.37 339.907 212.485 339.907C203.193 339.682 194.358 335.825 187.863 329.16C181.368 322.494 177.729 313.548 177.723 304.23C177.744 302.004 177.977 299.786 178.418 297.605C180.425 290.006 184.234 283.005 189.52 277.199C200.358 265.472 223.125 256.462 235.516 252.719C253.294 248.578 246.355 243.145 233.733 246.756C221.11 250.367 169 262.657 161.632 309.464C161.433 310.921 161.07 319.634 161.07 321.157C161.07 353.389 178.186 363.923 193.948 371.211C208.355 377.836 239.581 385.521 289.311 385.521C293.494 385.557 297.642 384.756 301.513 383.167C305.383 381.578 308.899 379.231 311.856 376.264C314.812 373.298 317.149 369.77 318.73 365.888C320.312 362.006 321.106 357.847 321.066 353.654V31.7017C321.031 23.2702 317.661 15.1971 311.695 9.25375C305.729 3.31042 297.655 -0.0175507 289.245 6.96148e-05ZM112.926 135.552C106.791 135.552 100.908 133.109 96.5702 128.76C92.2324 124.412 89.7953 118.514 89.7953 112.364C89.7953 106.214 92.2324 100.316 96.5702 95.9671C100.908 91.6185 106.791 89.1755 112.926 89.1755C119.06 89.1755 124.943 91.6185 129.281 95.9671C133.619 100.316 136.056 106.214 136.056 112.364C136.056 118.514 133.619 124.412 129.281 128.76C124.943 133.109 119.06 135.552 112.926 135.552ZM193.089 145.755C188.532 145.755 184.161 143.94 180.939 140.71C177.717 137.479 175.907 133.098 175.907 128.529C175.907 126.269 176.351 124.03 177.215 121.942C178.079 119.854 179.345 117.958 180.941 116.361C182.536 114.764 184.431 113.498 186.516 112.636C188.6 111.774 190.834 111.332 193.089 111.337C197.637 111.337 201.999 113.148 205.216 116.372C208.432 119.597 210.238 123.97 210.238 128.529C210.243 130.79 209.803 133.029 208.943 135.119C208.083 137.208 206.82 139.108 205.227 140.708C203.634 142.308 201.742 143.577 199.659 144.443C197.576 145.309 195.344 145.755 193.089 145.755Z" fill="url(#paint0_linear_543_553)"/>
<defs>
<linearGradient id="paint0_linear_543_553" x1="160.871" y1="6.96142e-05" x2="160.871" y2="385.654" gradientUnits="userSpaceOnUse">
<stop stop-color="#D3D802"/>
<stop offset="1" stop-color="#88BD30"/>
</linearGradient>
</defs>
</svg>
