<svg width="1010" height="227" viewBox="0 0 1010 227" fill="none" xmlns="http://www.w3.org/2000/svg">
<path d="M236.832 87.68C232.396 92.1333 226.379 94.6396 220.101 94.6483C213.817 94.6483 207.791 92.146 203.347 87.6917C198.904 83.2375 196.409 77.1962 196.409 70.8969C196.418 64.6034 198.917 58.5706 203.36 54.1236C207.802 49.6765 213.823 47.1786 220.101 47.1786C226.373 47.1874 232.385 49.6891 236.82 54.1352C241.255 58.5814 243.751 64.6091 243.759 70.8969C243.759 77.1904 241.268 83.2267 236.832 87.68Z" fill="url(#paint0_linear_674_881)"/>
<path d="M121.72 78.1586C117.867 79.7548 113.739 80.5741 109.571 80.5697V80.636C105.399 80.636 101.269 79.8112 97.4158 78.209C93.5629 76.6067 90.0629 74.2583 87.1164 71.2982C84.1699 68.3382 81.835 64.8247 80.2447 60.9588C78.6544 57.0929 77.84 52.9505 77.8488 48.7687C77.8444 44.5898 78.6614 40.4509 80.2536 36.5888C81.8458 32.7267 84.1824 29.2171 87.1285 26.2606C90.0745 23.3041 93.5723 20.9586 97.4231 19.3584C101.274 17.7582 105.402 16.9346 109.571 16.9346C117.993 16.9346 126.069 20.2885 132.024 26.2585C137.979 32.2286 141.325 40.3258 141.325 48.7687C141.325 52.9477 140.503 57.0857 138.907 60.9461C137.311 64.8065 134.972 68.3137 132.023 71.2672C129.073 74.2206 125.572 76.5623 121.72 78.1586Z" fill="url(#paint1_linear_674_881)"/>
<path d="M157.913 168.453C227.899 164.279 270.128 123.832 293.622 88.9506C307.732 67.9818 329.309 85.4724 315.993 103.99C217.16 241.761 74.4452 207.674 14.967 151.128C11.3745 147.549 7.97687 143.778 4.78943 139.832C-9.58441 122.044 11.6302 106.574 26.2023 120.884C38.957 133.373 80.9878 173.091 157.913 168.453Z" fill="url(#paint2_linear_674_881)"/>
<path d="M650.097 122.078C649.799 124.065 649.337 136.09 649.337 138.177C649.337 182.599 664.339 226.922 688.593 226.922H563.457C585.134 221.04 596.399 194.468 609.989 162.412C637.502 97.5173 674.543 10.1455 826.78 26.4427C783.55 32.799 779.412 64.4592 775.326 95.7218C773.556 109.264 771.796 122.732 766.872 134.036C760.528 150.599 743.345 163.85 720.215 163.85C707.405 163.538 695.224 158.22 686.273 149.029C677.321 139.838 672.307 127.503 672.302 114.657C672.336 111.641 672.657 108.635 673.26 105.68C676.018 95.2111 681.256 85.5635 688.527 77.5562C703.495 61.3907 734.886 48.9684 752.003 43.8008C776.488 38.1031 766.905 30.6166 749.492 35.5855C749.229 35.6612 748.953 35.7398 748.663 35.8217C748.068 35.9898 747.417 36.1712 746.715 36.367L746.685 36.3752C725.855 42.1795 659.751 60.5998 650.097 122.078Z" fill="url(#paint3_linear_674_881)"/>
<path d="M473.345 66.5577V101.605C473.345 102.484 473.694 103.326 474.313 103.947C474.933 104.569 475.773 104.918 476.65 104.918H509.924C510.801 104.918 511.641 105.267 512.261 105.888C512.88 106.509 513.229 107.352 513.229 108.23V119.228C513.229 120.107 512.88 120.949 512.261 121.571C511.641 122.192 510.801 122.541 509.924 122.541H476.881C476.005 122.541 475.164 122.89 474.545 123.511C473.925 124.132 473.577 124.975 473.577 125.853V161.464C473.577 162.342 473.228 163.185 472.609 163.806C471.989 164.427 471.149 164.776 470.272 164.776H458.31C457.434 164.776 456.594 164.427 455.974 163.806C455.354 163.185 455.006 162.342 455.006 161.464V125.853C455.006 124.975 454.658 124.132 454.039 123.511C453.419 122.89 452.578 122.541 451.702 122.541H418.461C417.584 122.541 416.743 122.192 416.124 121.571C415.504 120.949 415.156 120.107 415.156 119.228V108.23C415.156 107.352 415.504 106.509 416.124 105.888C416.743 105.267 417.584 104.918 418.461 104.918H451.702C452.578 104.918 453.419 104.569 454.039 103.947C454.658 103.326 455.006 102.484 455.006 101.605V66.5577C455.006 65.6792 455.354 64.8366 455.974 64.2154C456.594 63.5941 457.434 63.2451 458.31 63.2451H470.272C471.108 63.3039 471.891 63.6787 472.461 64.2936C473.031 64.9086 473.347 65.7179 473.345 66.5577Z" fill="url(#paint4_linear_674_881)"/>
<path d="M869.371 96.5042V104.951C869.371 105.434 869.466 105.912 869.65 106.358C869.835 106.805 870.105 107.21 870.446 107.551C870.786 107.893 871.191 108.164 871.636 108.348C872.081 108.533 872.557 108.628 873.038 108.628H953.169C954.136 108.62 955.061 108.228 955.741 107.54C956.422 106.851 956.804 105.921 956.804 104.951V96.5042C956.808 96.0229 956.717 95.5454 956.537 95.0995C956.356 94.6536 956.089 94.248 955.751 93.9061C955.413 93.5642 955.011 93.2928 954.568 93.1077C954.124 92.9225 953.649 92.8271 953.169 92.8271H873.038C872.557 92.8271 872.081 92.9223 871.636 93.1071C871.191 93.2918 870.786 93.5627 870.446 93.9041C870.105 94.2455 869.835 94.6509 869.65 95.097C869.466 95.5431 869.371 96.0213 869.371 96.5042Z" fill="url(#paint5_linear_674_881)"/>
<path d="M869.371 131.651V140.264C869.371 140.747 869.466 141.225 869.65 141.671C869.835 142.117 870.105 142.522 870.446 142.864C870.786 143.205 871.191 143.476 871.636 143.661C872.081 143.846 872.557 143.941 873.038 143.941H953.169C953.649 143.941 954.124 143.845 954.568 143.66C955.011 143.475 955.413 143.204 955.751 142.862C956.089 142.52 956.356 142.114 956.537 141.668C956.717 141.222 956.808 140.745 956.804 140.264V131.651C956.804 130.681 956.422 129.751 955.741 129.062C955.061 128.374 954.136 127.983 953.169 127.974H873.038C872.557 127.974 872.081 128.069 871.636 128.254C871.191 128.439 870.786 128.709 870.446 129.051C870.105 129.392 869.835 129.798 869.65 130.244C869.466 130.69 869.371 131.168 869.371 131.651Z" fill="url(#paint6_linear_674_881)"/>
<defs>
<linearGradient id="paint0_linear_674_881" x1="-277166" y1="-7078.91" x2="-277166" y2="-5526.59" gradientUnits="userSpaceOnUse">
<stop stop-color="#D3D802"/>
<stop offset="1" stop-color="#88BD30"/>
</linearGradient>
<linearGradient id="paint1_linear_674_881" x1="-277166" y1="-7078.91" x2="-277166" y2="-5526.59" gradientUnits="userSpaceOnUse">
<stop stop-color="#D3D802"/>
<stop offset="1" stop-color="#88BD30"/>
</linearGradient>
<linearGradient id="paint2_linear_674_881" x1="-277166" y1="-7078.91" x2="-277166" y2="-5526.59" gradientUnits="userSpaceOnUse">
<stop stop-color="#D3D802"/>
<stop offset="1" stop-color="#88BD30"/>
</linearGradient>
<linearGradient id="paint3_linear_674_881" x1="-277166" y1="-7078.91" x2="-277166" y2="-5526.59" gradientUnits="userSpaceOnUse">
<stop stop-color="#D3D802"/>
<stop offset="1" stop-color="#88BD30"/>
</linearGradient>
<linearGradient id="paint4_linear_674_881" x1="-277166" y1="-7078.91" x2="-277166" y2="-5526.59" gradientUnits="userSpaceOnUse">
<stop stop-color="#D3D802"/>
<stop offset="1" stop-color="#88BD30"/>
</linearGradient>
<linearGradient id="paint5_linear_674_881" x1="-277166" y1="-7078.91" x2="-277166" y2="-5526.59" gradientUnits="userSpaceOnUse">
<stop stop-color="#D3D802"/>
<stop offset="1" stop-color="#88BD30"/>
</linearGradient>
<linearGradient id="paint6_linear_674_881" x1="-277166" y1="-7078.91" x2="-277166" y2="-5526.59" gradientUnits="userSpaceOnUse">
<stop stop-color="#D3D802"/>
<stop offset="1" stop-color="#88BD30"/>
</linearGradient>
</defs>
</svg>
