<svg width="1360" height="386" viewBox="0 0 1360 386" fill="none" xmlns="http://www.w3.org/2000/svg">
<g clip-path="url(#clip0_539_1274)">
<path d="M1328.24 6.96148e-05H1071.66C1063.24 6.50516e-05 1055.16 3.35297 1049.2 9.32209C1043.24 15.2912 1039.88 23.3882 1039.88 31.8342V353.787C1039.88 362.238 1043.22 370.344 1049.19 376.32C1055.15 382.296 1063.23 385.654 1071.66 385.654C1094.1 385.654 1121.92 380.817 1142.31 371.443C1159.76 363.459 1167.62 346.731 1167.62 329.538C1167.62 314.102 1168.12 289.224 1167.62 275.775C1167.09 257.092 1168.02 235.46 1135.97 218.963C1126.58 214.094 1097.87 205.713 1075.99 178.583C1065.58 165.697 1080.95 154.467 1091.52 164.835C1100.74 173.879 1131.17 202.699 1187.05 199.32C1237.81 196.272 1267.97 166.624 1285.45 141.614C1295.37 127.469 1309.91 140.753 1301.71 152.579C1293.52 164.405 1279.01 190.077 1240.71 214.525C1221.85 226.582 1200.07 238.177 1200.07 271.634V275.311C1200.07 275.311 1238.7 219.361 1328.77 240.263C1283.83 246.889 1297.15 291.178 1285.32 318.275C1280.73 330.333 1268.37 339.907 1251.49 339.907C1242.19 339.682 1233.36 335.825 1226.86 329.16C1220.37 322.494 1216.73 313.548 1216.72 304.23C1216.74 302.004 1216.98 299.786 1217.42 297.605C1219.43 290.006 1223.23 283.005 1228.52 277.199C1239.36 265.472 1262.12 256.462 1274.52 252.719C1292.29 248.578 1285.36 243.145 1272.73 246.756C1260.11 250.367 1208 262.657 1200.63 309.464C1200.43 310.921 1200.07 319.634 1200.07 321.157C1200.07 353.389 1217.19 363.923 1232.95 371.211C1247.36 377.836 1278.58 385.521 1328.31 385.521C1332.49 385.557 1336.64 384.756 1340.51 383.167C1344.38 381.578 1347.9 379.231 1350.86 376.264C1353.81 373.298 1356.15 369.77 1357.73 365.888C1359.31 362.006 1360.11 357.847 1360.07 353.654V31.7017C1360.03 23.2702 1356.66 15.1971 1350.7 9.25375C1344.73 3.31042 1336.66 -0.0175507 1328.24 6.96148e-05ZM1151.93 135.552C1145.79 135.552 1139.91 133.109 1135.57 128.76C1131.23 124.412 1128.8 118.514 1128.8 112.364C1128.8 106.214 1131.23 100.316 1135.57 95.9671C1139.91 91.6185 1145.79 89.1755 1151.93 89.1755C1158.06 89.1755 1163.94 91.6185 1168.28 95.9671C1172.62 100.316 1175.06 106.214 1175.06 112.364C1175.06 118.514 1172.62 124.412 1168.28 128.76C1163.94 133.109 1158.06 135.552 1151.93 135.552ZM1232.09 145.755C1227.53 145.755 1223.16 143.94 1219.94 140.71C1216.72 137.479 1214.91 133.098 1214.91 128.529C1214.91 126.269 1215.35 124.03 1216.22 121.942C1217.08 119.854 1218.34 117.958 1219.94 116.361C1221.54 114.764 1223.43 113.498 1225.52 112.636C1227.6 111.774 1229.83 111.332 1232.09 111.337C1236.64 111.337 1241 113.148 1244.22 116.372C1247.43 119.597 1249.24 123.97 1249.24 128.529C1249.24 130.79 1248.8 133.029 1247.94 135.119C1247.08 137.208 1245.82 139.108 1244.23 140.708C1242.63 142.308 1240.74 143.577 1238.66 144.443C1236.58 145.309 1234.34 145.755 1232.09 145.755Z" fill="url(#paint0_linear_539_1274)"/>
<path d="M649.337 238.176C649.337 236.089 649.799 224.064 650.097 222.077C660.241 157.481 732.706 140.421 749.492 135.585C766.905 130.616 776.488 138.102 752.003 143.8C734.886 148.967 703.495 161.39 688.527 177.555C681.256 185.563 676.018 195.21 673.26 205.679C672.657 208.634 672.336 211.64 672.302 214.656C672.307 227.502 677.321 239.837 686.273 249.028C695.225 258.219 707.405 263.537 720.215 263.849C743.345 263.849 760.528 250.598 766.872 234.035C783.163 196.636 764.823 135.551 826.78 126.442C599.342 102.094 629.015 309.132 563.457 326.921H688.593C664.339 326.921 649.337 282.598 649.337 238.176Z" fill="url(#paint1_linear_539_1274)"/>
<path d="M220.101 194.648C226.379 194.64 232.396 192.133 236.832 187.68C241.268 183.227 243.759 177.19 243.759 170.897C243.751 164.609 241.255 158.581 236.82 154.135C232.385 149.689 226.373 147.187 220.101 147.179C213.823 147.179 207.802 149.676 203.36 154.124C198.917 158.571 196.418 164.603 196.409 170.897C196.409 177.196 198.904 183.237 203.347 187.692C207.791 192.146 213.817 194.648 220.101 194.648ZM109.571 180.57C113.739 180.574 117.868 179.755 121.72 178.159C125.572 176.562 129.074 174.221 132.023 171.267C134.972 168.314 137.311 164.807 138.907 160.946C140.503 157.086 141.325 152.948 141.325 148.769C141.325 140.326 137.979 132.229 132.024 126.259C126.069 120.288 117.993 116.935 109.571 116.935C105.402 116.935 101.274 117.758 97.4231 119.358C93.5723 120.959 90.0745 123.304 87.1285 126.261C84.1824 129.217 81.8458 132.727 80.2536 136.589C78.6614 140.451 77.8444 144.59 77.8487 148.769C77.84 152.95 78.6544 157.093 80.2447 160.959C81.835 164.825 84.1699 168.338 87.1164 171.298C90.0629 174.258 93.5629 176.607 97.4158 178.209C101.269 179.811 105.399 180.636 109.571 180.636V180.57ZM293.622 188.951C270.128 223.832 227.899 264.279 157.913 268.453C80.9878 273.091 38.9571 233.373 26.2023 220.884C11.6302 206.574 -9.58443 222.044 4.78945 239.832C7.97686 243.778 11.3745 247.549 14.9671 251.128C74.4452 307.674 217.16 341.761 315.993 203.99C329.309 185.472 307.732 167.982 293.622 188.951Z" fill="url(#paint2_linear_539_1274)"/>
<path d="M473.345 166.558V201.605C473.345 202.484 473.694 203.326 474.313 203.947C474.933 204.569 475.773 204.918 476.65 204.918H509.924C510.801 204.918 511.641 205.267 512.261 205.888C512.88 206.509 513.229 207.352 513.229 208.23V219.228C513.229 220.107 512.88 220.949 512.261 221.571C511.641 222.192 510.801 222.541 509.924 222.541H476.881C476.005 222.541 475.164 222.89 474.545 223.511C473.925 224.132 473.577 224.975 473.577 225.853V261.464C473.577 262.342 473.228 263.185 472.609 263.806C471.989 264.428 471.149 264.777 470.272 264.777H458.31C457.434 264.777 456.594 264.428 455.974 263.806C455.354 263.185 455.006 262.342 455.006 261.464V225.853C455.006 224.975 454.658 224.132 454.039 223.511C453.419 222.89 452.578 222.541 451.702 222.541H418.461C417.584 222.541 416.743 222.192 416.124 221.571C415.504 220.949 415.156 220.107 415.156 219.228V208.23C415.156 207.352 415.504 206.509 416.124 205.888C416.743 205.267 417.584 204.918 418.461 204.918H451.702C452.578 204.918 453.419 204.569 454.039 203.947C454.658 203.326 455.006 202.484 455.006 201.605V166.558C455.006 165.679 455.354 164.837 455.974 164.215C456.594 163.594 457.434 163.245 458.31 163.245H470.272C471.108 163.304 471.891 163.679 472.461 164.294C473.032 164.909 473.347 165.718 473.345 166.558Z" fill="url(#paint3_linear_539_1274)"/>
<path d="M869.371 204.951V196.504C869.371 196.021 869.466 195.543 869.65 195.097C869.835 194.651 870.105 194.246 870.446 193.904C870.786 193.563 871.191 193.292 871.636 193.107C872.081 192.922 872.557 192.827 873.038 192.827H953.169C953.649 192.827 954.124 192.922 954.568 193.108C955.011 193.293 955.413 193.564 955.751 193.906C956.089 194.248 956.356 194.654 956.537 195.1C956.717 195.545 956.808 196.023 956.804 196.504V204.951C956.804 205.921 956.422 206.851 955.741 207.54C955.061 208.228 954.136 208.62 953.169 208.628H873.038C872.557 208.628 872.081 208.533 871.636 208.348C871.191 208.164 870.786 207.893 870.446 207.551C870.105 207.21 869.835 206.805 869.65 206.358C869.466 205.912 869.371 205.434 869.371 204.951ZM869.371 240.098V231.651C869.371 231.168 869.466 230.69 869.65 230.244C869.835 229.798 870.105 229.392 870.446 229.051C870.786 228.709 871.191 228.439 871.636 228.254C872.081 228.069 872.557 227.974 873.038 227.974H953.169C954.136 227.983 955.061 228.374 955.741 229.063C956.422 229.751 956.804 230.681 956.804 231.651V240.264C956.808 240.745 956.717 241.222 956.537 241.668C956.356 242.114 956.089 242.52 955.751 242.862C955.413 243.204 955.011 243.475 954.568 243.66C954.124 243.845 953.649 243.941 953.169 243.941H873.038C872.557 243.941 872.081 243.846 871.636 243.661C871.191 243.476 870.786 243.205 870.446 242.864C870.105 242.522 869.835 242.117 869.65 241.671C869.466 241.225 869.371 240.747 869.371 240.264V240.098Z" fill="url(#paint4_linear_539_1274)"/>
</g>
<defs>
<linearGradient id="paint0_linear_539_1274" x1="1199.87" y1="6.96142e-05" x2="1199.87" y2="385.654" gradientUnits="userSpaceOnUse">
<stop stop-color="#D3D802"/>
<stop offset="1" stop-color="#88BD30"/>
</linearGradient>
<linearGradient id="paint1_linear_539_1274" x1="-854171" y1="-41482.4" x2="-854171" y2="-17052.8" gradientUnits="userSpaceOnUse">
<stop stop-color="#D3D802"/>
<stop offset="1" stop-color="#88BD30"/>
</linearGradient>
<linearGradient id="paint2_linear_539_1274" x1="-1.09107e+06" y1="-31318.7" x2="-1.09107e+06" y2="524.475" gradientUnits="userSpaceOnUse">
<stop stop-color="#D3D802"/>
<stop offset="1" stop-color="#88BD30"/>
</linearGradient>
<linearGradient id="paint3_linear_539_1274" x1="-324785" y1="-16526.5" x2="-324785" y2="-10335.1" gradientUnits="userSpaceOnUse">
<stop stop-color="#D3D802"/>
<stop offset="1" stop-color="#88BD30"/>
</linearGradient>
<linearGradient id="paint4_linear_539_1274" x1="-277166" y1="-6978.91" x2="-277166" y2="-5426.59" gradientUnits="userSpaceOnUse">
<stop stop-color="#D3D802"/>
<stop offset="1" stop-color="#88BD30"/>
</linearGradient>
<clipPath id="clip0_539_1274">
<rect width="1360" height="385.654" fill="white"/>
</clipPath>
</defs>
</svg>
