<svg width="145" height="64" viewBox="0 0 145 64" fill="none" xmlns="http://www.w3.org/2000/svg">
<g clip-path="url(#clip0_402_441)">
<path d="M69.1991 58.3118C69.0783 58.3118 68.9978 58.2721 68.9173 58.1925C68.8368 58.113 68.7965 57.9936 68.7965 57.9141V52.4647C68.7965 52.3454 68.8368 52.2261 68.9173 52.1465C68.9978 52.067 69.1186 52.0272 69.1991 52.0272H70.8093C71.2118 52.0272 71.5741 52.1067 71.8962 52.3056C72.2182 52.4647 72.4597 52.7432 72.6208 53.0216C72.7818 53.3 72.9026 53.6978 72.9026 54.0956C72.9026 54.4933 72.822 54.8513 72.6208 55.1297C72.4195 55.4082 72.2182 55.6866 71.8962 55.8457C71.5741 56.0048 71.2118 56.0844 70.8093 56.0844H69.6016V57.8345C69.6016 57.9538 69.5614 58.0334 69.4809 58.113C69.4003 58.2721 69.3198 58.3118 69.1991 58.3118ZM69.6016 55.3684H70.8093C71.0508 55.3684 71.2923 55.3286 71.4534 55.2093C71.6546 55.09 71.7754 54.9706 71.8962 54.7717C72.0169 54.5729 72.0572 54.374 72.0572 54.1353C72.0572 53.8967 72.0169 53.658 71.8962 53.4591C71.7754 53.2603 71.6546 53.1011 71.4534 52.9818C71.2521 52.8625 71.0508 52.8227 70.8093 52.8227H69.6016V55.3684Z" fill="#7F7F7F"/>
<path d="M73.3454 58.3118C73.1844 58.3118 73.0636 58.2323 72.9831 58.113C72.9026 57.9936 72.9026 57.8345 72.9428 57.7152L75.2374 52.3056C75.3179 52.1067 75.4387 52.0272 75.6399 52.0272C75.8412 52.0272 75.962 52.1067 76.0425 52.3056L78.3371 57.7152C78.3773 57.8743 78.3773 57.9936 78.2968 58.113C78.2163 58.2323 78.0955 58.3118 77.9345 58.3118C77.854 58.3118 77.7735 58.2721 77.693 58.2323C77.6125 58.1925 77.5722 58.113 77.5319 58.0334L75.5192 53.1011H75.7607L73.7077 58.0334C73.6674 58.113 73.6272 58.1925 73.5467 58.2323C73.4661 58.2721 73.3856 58.3118 73.3454 58.3118ZM73.7479 56.9197L74.07 56.2435H77.2502L77.5722 56.9197H73.7479Z" fill="#7F7F7F"/>
<path d="M81.9601 58.3915C81.5173 58.3915 81.1147 58.3119 80.7122 58.1528C80.3499 57.9937 79.9876 57.7551 79.7058 57.4766C79.424 57.1982 79.1825 56.8402 79.0214 56.4424C78.8604 56.0447 78.7799 55.6469 78.7799 55.1696C78.7799 54.7321 78.8604 54.2945 79.0214 53.8968C79.1825 53.499 79.3837 53.1808 79.7058 52.8626C79.9876 52.5841 80.3096 52.3455 80.7122 52.1864C81.1147 52.0273 81.5173 51.9477 81.9601 51.9477C82.3626 51.9477 82.7249 51.9875 83.047 52.1068C83.369 52.2262 83.6508 52.3853 83.9729 52.6239C84.0131 52.6637 84.0534 52.7035 84.0936 52.7432C84.1339 52.783 84.1339 52.8228 84.1339 52.8626C84.1339 52.9023 84.1339 52.9421 84.1339 52.9819C84.1339 53.1012 84.0936 53.1808 84.0131 53.2206C83.9326 53.3001 83.8521 53.3399 83.7313 53.3399C83.6106 53.3399 83.5301 53.3001 83.4495 53.2206C83.2483 53.0615 83.047 52.9024 82.8457 52.8228C82.6444 52.7432 82.3626 52.7035 82.0003 52.7035C81.6783 52.7035 81.3965 52.783 81.1147 52.9024C80.8329 53.0217 80.5914 53.2206 80.3901 53.4194C80.1888 53.6581 80.0278 53.8968 79.9071 54.215C79.7863 54.4934 79.746 54.8116 79.746 55.1696C79.746 55.5276 79.7863 55.8458 79.9071 56.1242C80.0278 56.4027 80.1888 56.6811 80.3901 56.9198C80.5914 57.1584 80.8329 57.3175 81.1147 57.4368C81.3965 57.5562 81.6783 57.6357 82.0003 57.6357C82.2821 57.6357 82.5237 57.5959 82.7652 57.4766C83.0067 57.3971 83.2483 57.238 83.4898 57.0789C83.5703 56.9993 83.6911 56.9595 83.7716 56.9993C83.8521 56.9993 83.9326 57.0391 84.0131 57.1186C84.0936 57.1982 84.0936 57.2777 84.0936 57.3971C84.0936 57.4368 84.0936 57.5164 84.0534 57.5562C84.0131 57.5959 84.0131 57.6357 83.9729 57.7153C83.6911 57.9539 83.369 58.113 83.047 58.2324C82.6847 58.3119 82.3626 58.3915 81.9601 58.3915Z" fill="#7F7F7F"/>
<path d="M85.1401 52.783C85.0193 52.783 84.9388 52.7432 84.8583 52.6636C84.7778 52.5841 84.7375 52.5045 84.7375 52.3852C84.7375 52.2659 84.7778 52.1863 84.8583 52.1068C84.9388 52.0272 85.0193 51.9874 85.1401 51.9874H89.4877C89.6085 51.9874 89.689 52.0272 89.7695 52.1068C89.85 52.1863 89.8902 52.2659 89.8902 52.3852C89.8902 52.5045 89.85 52.5841 89.7695 52.6636C89.689 52.7432 89.6085 52.783 89.4877 52.783H85.1401ZM87.3139 58.3119C87.1931 58.3119 87.1126 58.2721 87.0321 58.1925C86.9516 58.113 86.9113 57.9937 86.9113 57.9141V52.067H87.7567V57.9141C87.7567 58.0334 87.7164 58.113 87.6359 58.1925C87.5554 58.2721 87.4347 58.3119 87.3139 58.3119Z" fill="#7F7F7F"/>
<path d="M91.259 58.3118C91.1382 58.3118 91.0174 58.2721 90.9369 58.1925C90.8564 58.113 90.8162 57.9936 90.8162 57.9141V52.4647C90.8162 52.3454 90.8564 52.2261 90.9369 52.1465C91.0174 52.067 91.1382 52.0272 91.259 52.0272C91.3797 52.0272 91.5005 52.067 91.5408 52.1465C91.581 52.2261 91.6615 52.3056 91.6615 52.4647V57.039L95.5663 52.2261C95.6468 52.1067 95.7676 52.067 95.8883 52.067C96.0091 52.067 96.1299 52.1067 96.2104 52.1863C96.2909 52.2658 96.3312 52.3454 96.3312 52.5045V57.9538C96.3312 58.0732 96.2909 58.1527 96.2104 58.2323C96.1299 58.3118 96.0494 58.3516 95.8883 58.3516C95.7676 58.3516 95.6871 58.3118 95.6066 58.2323C95.526 58.1527 95.4858 58.0334 95.4858 57.9538V53.4194L91.581 58.2323C91.5408 58.2721 91.5005 58.3118 91.42 58.3516C91.3797 58.2721 91.3395 58.3118 91.259 58.3118Z" fill="#7F7F7F"/>
<path d="M98.3842 58.3118C98.2635 58.3118 98.183 58.2721 98.1025 58.1925C98.0219 58.113 97.9817 57.9936 97.9817 57.9141V52.4647C97.9817 52.3454 98.0219 52.2261 98.1025 52.1465C98.183 52.067 98.3037 52.0272 98.3842 52.0272C98.5453 52.0272 98.666 52.1067 98.7465 52.2658L101.283 57.3174H101.041L103.537 52.2658C103.617 52.1067 103.738 52.0272 103.899 52.0272C104.02 52.0272 104.101 52.067 104.181 52.1465C104.262 52.2261 104.302 52.3056 104.302 52.4647V57.9141C104.302 58.0334 104.262 58.113 104.181 58.1925C104.101 58.2721 103.98 58.3118 103.899 58.3118C103.778 58.3118 103.698 58.2721 103.617 58.1925C103.537 58.113 103.497 57.9936 103.497 57.9141V53.6182L103.658 53.5785L101.524 57.8743C101.444 58.0334 101.323 58.0732 101.162 58.0732C101.001 58.0732 100.84 57.9936 100.759 57.8345L98.666 53.658L98.8271 53.6182V57.9141C98.8271 58.0334 98.7868 58.113 98.7063 58.1925C98.5855 58.2721 98.505 58.3118 98.3842 58.3118Z" fill="#7F7F7F"/>
<path d="M110.26 57.039L107.563 52.6238C107.442 52.3852 107.482 52.2261 107.724 52.1068C107.965 51.9874 108.126 52.0272 108.287 52.2659L110.823 56.6412L110.26 57.039ZM109.092 58.3914C108.851 58.3914 108.609 58.3119 108.368 58.1925C108.247 58.113 108.207 58.0334 108.166 57.9539C108.126 57.8345 108.166 57.755 108.207 57.6754C108.247 57.5959 108.368 57.5163 108.448 57.5163C108.569 57.5163 108.69 57.5163 108.77 57.5959C108.81 57.6357 108.851 57.6357 108.891 57.6357C108.931 57.6357 108.971 57.6754 109.012 57.6754C109.173 57.6754 109.293 57.5959 109.455 57.4766C109.616 57.3572 109.736 57.1583 109.857 56.9197L112.111 52.3852C112.232 52.1465 112.393 52.067 112.635 52.1863C112.876 52.3056 112.916 52.4647 112.796 52.7034L110.541 57.2379C110.34 57.6357 110.099 57.9539 109.857 58.1527C109.696 58.2721 109.414 58.3914 109.092 58.3914Z" fill="#7F7F7F"/>
<path d="M113.802 58.3118C113.641 58.3118 113.52 58.2323 113.44 58.113C113.359 57.9936 113.359 57.8345 113.399 57.7152L115.694 52.3056C115.775 52.1067 115.895 52.0272 116.097 52.0272C116.298 52.0272 116.419 52.1067 116.499 52.3056L118.794 57.7152C118.834 57.8743 118.834 57.9936 118.794 58.113C118.713 58.2323 118.592 58.3118 118.431 58.3118C118.351 58.3118 118.27 58.2721 118.19 58.2323C118.109 58.1925 118.069 58.113 118.029 58.0334L116.016 53.1011H116.258L114.164 58.0334C114.124 58.113 114.084 58.1925 114.003 58.2323C113.923 58.2721 113.842 58.3118 113.802 58.3118Z" fill="#7F7F7F"/>
<path d="M120.203 58.3118C120.082 58.3118 120.001 58.2721 119.921 58.1925C119.84 58.113 119.8 57.9936 119.8 57.9141V52.425C119.8 52.3056 119.84 52.2261 119.921 52.1465C120.001 52.067 120.122 52.0272 120.203 52.0272C120.323 52.0272 120.444 52.067 120.525 52.1465C120.605 52.2261 120.645 52.3056 120.645 52.425V54.4535H122.014C122.417 54.4535 122.779 54.5331 123.101 54.6922C123.423 54.8513 123.665 55.09 123.826 55.3684C123.987 55.6468 124.107 55.965 124.107 56.3628C124.107 56.7606 124.027 57.0788 123.826 57.397C123.665 57.6754 123.423 57.9141 123.101 58.113C122.779 58.2721 122.417 58.3516 122.014 58.3516H120.203V58.3118ZM120.645 57.5163H122.014C122.256 57.5163 122.497 57.4765 122.658 57.397C122.859 57.3174 122.98 57.1583 123.101 56.9992C123.222 56.8003 123.262 56.6015 123.262 56.323C123.262 56.0446 123.222 55.8457 123.101 55.6866C122.98 55.5275 122.859 55.4082 122.658 55.3286C122.457 55.2491 122.256 55.2093 122.014 55.2093H120.645V57.5163ZM125.476 58.3118C125.355 58.3118 125.275 58.2721 125.194 58.1925C125.114 58.113 125.074 57.9936 125.074 57.9141V52.4647C125.074 52.3454 125.114 52.2261 125.194 52.1465C125.275 52.067 125.396 52.0272 125.476 52.0272C125.597 52.0272 125.677 52.067 125.758 52.1465C125.838 52.2261 125.879 52.3056 125.879 52.4647V57.9141C125.879 58.0334 125.838 58.113 125.758 58.1925C125.677 58.2721 125.597 58.3118 125.476 58.3118Z" fill="#7F7F7F"/>
<path d="M127.932 58.3118C127.811 58.3118 127.73 58.2721 127.65 58.1925C127.569 58.113 127.529 57.9936 127.529 57.9141V52.4647C127.529 52.3454 127.569 52.2261 127.65 52.1465C127.73 52.067 127.851 52.0272 127.932 52.0272H131.394C131.514 52.0272 131.595 52.067 131.675 52.1465C131.756 52.2261 131.796 52.3056 131.796 52.425C131.796 52.5443 131.756 52.6238 131.675 52.7034C131.595 52.7829 131.514 52.8227 131.394 52.8227H128.375V54.6126H130.226C130.629 54.6126 130.991 54.6922 131.313 54.8513C131.635 55.0104 131.877 55.2093 132.038 55.4877C132.199 55.7662 132.32 56.0844 132.32 56.4424C132.32 56.8003 132.239 57.1583 132.038 57.4368C131.837 57.7152 131.635 57.9539 131.313 58.113C130.991 58.2721 130.629 58.3516 130.226 58.3516H127.932V58.3118ZM128.334 57.5163H130.186C130.428 57.5163 130.669 57.4765 130.83 57.397C131.031 57.3174 131.152 57.1981 131.273 57.039C131.394 56.8799 131.434 56.681 131.434 56.4026C131.434 56.1241 131.394 55.965 131.273 55.8059C131.152 55.6468 131.031 55.5275 130.83 55.4479C130.629 55.3684 130.428 55.3286 130.186 55.3286H128.334V57.5163Z" fill="#7F7F7F"/>
<path d="M133.97 58.3118C133.849 58.3118 133.769 58.2721 133.688 58.1925C133.608 58.113 133.568 57.9936 133.568 57.9141V52.4647C133.568 52.3454 133.608 52.2261 133.688 52.1465C133.769 52.067 133.89 52.0272 133.97 52.0272C134.091 52.0272 134.212 52.067 134.292 52.1465C134.373 52.2261 134.413 52.3056 134.413 52.4647V54.7717H135.741V55.5275H134.413V57.9141C134.413 58.0334 134.373 58.113 134.292 58.1925C134.212 58.2721 134.091 58.3118 133.97 58.3118ZM138.197 58.1925C138.116 58.2721 138.036 58.3118 137.875 58.3118C137.754 58.3118 137.633 58.2721 137.553 58.1925L134.896 55.1297L137.392 52.1863C137.472 52.1067 137.553 52.067 137.674 52.0272C137.794 52.0272 137.875 52.067 137.955 52.1465C138.036 52.2261 138.076 52.3056 138.076 52.425C138.076 52.5045 138.036 52.6238 137.955 52.7034L135.902 55.0502L138.157 57.6356C138.237 57.7152 138.277 57.7947 138.277 57.9141C138.358 58.0334 138.318 58.113 138.197 58.1925Z" fill="#7F7F7F"/>
<path d="M139.928 58.3118C139.807 58.3118 139.686 58.2721 139.606 58.1925C139.525 58.113 139.485 57.9936 139.485 57.9141V52.4647C139.485 52.3454 139.525 52.2261 139.606 52.1465C139.686 52.067 139.807 52.0272 139.928 52.0272C140.049 52.0272 140.169 52.067 140.21 52.1465C140.25 52.2261 140.33 52.3056 140.33 52.4647V57.039L144.235 52.2261C144.316 52.1067 144.436 52.067 144.557 52.067C144.678 52.067 144.799 52.1067 144.879 52.1863C144.96 52.2658 145 52.3454 145 52.5045V57.9538C145 58.0732 144.96 58.1527 144.879 58.2323C144.799 58.3118 144.718 58.3516 144.557 58.3516C144.436 58.3516 144.356 58.3118 144.275 58.2323C144.195 58.1527 144.155 58.0334 144.155 57.9538V53.4194L140.25 58.2323C140.21 58.2721 140.169 58.3118 140.089 58.3516C140.049 58.2721 140.008 58.3118 139.928 58.3118Z" fill="#7F7F7F"/>
<path d="M81.2356 19.7291C81.3967 19.7291 81.5979 19.7291 81.7992 19.7291C82.0005 19.7291 82.242 19.6894 82.4433 19.6894C82.6446 19.6894 82.8459 19.6894 83.0069 19.7291C83.1679 19.7689 83.3289 19.8087 83.4094 19.8485L83.651 20.0473C83.7717 20.1269 83.8522 20.2065 83.8925 20.2462C84.134 20.4053 84.2951 20.6042 84.4561 20.8031C84.6171 21.0418 84.6573 21.2804 84.6976 21.5588C84.6976 21.6384 84.6976 21.6782 84.6976 21.7577C84.6976 21.8373 84.6976 21.8771 84.7379 21.9566C84.7379 22.2748 84.7379 22.593 84.7379 22.9112C84.7379 22.9908 84.6976 23.0306 84.6976 23.0703C84.6976 23.1101 84.6976 23.1499 84.6976 23.2295C84.6976 23.309 84.6574 23.3488 84.6574 23.4283C84.6574 23.4681 84.6574 23.5477 84.6171 23.6272C84.6171 23.7068 84.5768 23.7465 84.5768 23.8261C84.5768 23.9056 84.5768 23.9454 84.5768 24.025C84.5366 24.2636 84.5366 24.5023 84.5366 24.7012C84.5366 24.9398 84.5768 25.1785 84.5768 25.3774C84.5768 25.4171 84.5768 25.4967 84.5768 25.5365C84.5768 25.5762 84.5768 25.616 84.5768 25.6956C84.6171 25.974 84.5768 26.2922 84.4561 26.5707C84.3353 26.8491 84.1743 27.0877 83.9328 27.2469C83.6107 27.4457 83.2887 27.5651 82.9666 27.5651C82.6446 27.5651 82.3225 27.5253 82.0408 27.406C81.759 27.2866 81.4772 27.0877 81.2759 26.8491C81.0746 26.6104 80.9136 26.2922 80.8331 25.974C80.7928 25.8945 80.7928 25.8547 80.7928 25.7751C80.7928 25.6956 80.7928 25.616 80.7526 25.5763C80.6721 25.0592 80.7123 24.5818 80.7928 24.0648C80.8733 23.5477 81.1149 23.1101 81.4772 22.7124C81.1551 22.7124 80.8331 22.7521 80.511 22.7521C80.189 22.7521 79.867 22.7521 79.5449 22.7124C79.4644 22.7124 79.4241 22.7124 79.3436 22.7124C79.2631 22.7124 79.2229 22.7124 79.1424 22.7124C78.6593 22.6726 78.1762 22.6328 77.6932 22.6328C77.2101 22.6328 76.727 22.6328 76.2037 22.6328C75.2778 22.6726 74.352 22.7521 73.4663 22.8715C72.5807 22.9908 71.6549 22.9908 70.729 22.951C70.8497 23.1897 70.9705 23.4283 71.0913 23.7068C71.212 23.9852 71.2926 24.2239 71.3731 24.5023C71.4536 24.7807 71.4536 25.0592 71.4536 25.3376C71.4536 25.616 71.3731 25.8945 71.2523 26.1331C71.1315 26.3718 70.9303 26.5707 70.6887 26.7298C70.4472 26.8889 70.2057 27.0082 69.9239 27.048C69.6421 27.0877 69.4005 27.1275 69.1188 27.048C68.837 26.9684 68.5954 26.8491 68.3942 26.69C68.1929 26.5309 68.0721 26.332 67.9916 26.1729C67.9111 25.974 67.8708 25.7751 67.8306 25.5763C67.7903 25.3774 67.7903 25.1387 67.7903 24.9001C67.7903 24.6614 67.7903 24.4625 67.7501 24.2239C67.7501 24.1443 67.7098 24.1045 67.7098 24.025C67.7098 23.9852 67.6696 23.9056 67.6696 23.8261C67.5891 23.5874 67.5488 23.3886 67.5085 23.1499C67.4683 22.9112 67.428 22.7124 67.3475 22.4737C67.267 22.1555 67.2268 21.8373 67.267 21.5191C67.3073 21.2009 67.3878 20.8827 67.5085 20.6042C67.6696 20.3258 67.8708 20.1269 68.1124 19.928C68.3539 19.7689 68.676 19.6894 69.0382 19.6894H69.5213C69.6421 19.6894 69.7628 19.6894 69.8434 19.6894C69.9239 19.6894 70.0044 19.6894 70.0849 19.6894C70.1654 19.6894 70.2057 19.6496 70.2459 19.57C70.2862 19.5303 70.3667 19.4507 70.4472 19.3314C70.568 19.1723 70.6887 19.0132 70.8095 18.8541C70.9303 18.695 71.051 18.5359 71.1718 18.4165C71.212 18.337 71.2523 18.2972 71.2926 18.2176C71.3328 18.1779 71.3328 18.0983 71.3731 18.0188C71.4133 17.8994 71.4938 17.7801 71.5341 17.621L71.6549 17.1835C71.6549 17.1039 71.6951 17.0244 71.6951 16.9448C71.6951 16.8652 71.7354 16.7857 71.7354 16.7061C71.7354 16.6266 71.7756 16.547 71.7756 16.4675C71.7756 16.3879 71.7756 16.3084 71.8159 16.2288C71.8561 15.9504 71.8561 15.7117 71.8964 15.4333C71.9366 15.1549 71.9366 14.9162 71.9366 14.6378V14.2798V13.9218V13.3649C71.9366 13.2854 71.9366 13.2456 71.9366 13.1661C71.9366 13.1263 71.9366 13.0467 71.9366 12.9672C71.9366 12.7683 71.9366 12.6092 71.9366 12.4103C71.9366 12.2114 71.9366 12.0523 71.8964 11.8534C71.8964 11.7739 71.8964 11.7341 71.8964 11.6546C71.8964 11.575 71.8964 11.5352 71.8964 11.4557C71.8964 11.0977 71.9366 10.7397 71.9769 10.3419C72.0172 9.94418 72.0977 9.58619 72.1782 9.22821C72.2989 8.87022 72.46 8.51223 72.621 8.2338C72.8223 7.91559 73.104 7.67693 73.4663 7.51783C73.5469 7.47805 73.5871 7.47805 73.6676 7.43828C73.7481 7.3985 73.7884 7.3985 73.8689 7.35872C74.1104 7.27917 74.4325 7.19962 74.7143 7.15984C74.7948 7.15984 74.835 7.12006 74.8753 7.12006C74.9155 7.12006 74.996 7.12006 75.0363 7.08029C75.2778 7.12006 75.5596 7.12006 75.8414 7.08029C75.9219 7.08029 75.9622 7.08029 76.0427 7.08029C76.1232 7.08029 76.1635 7.08029 76.244 7.08029C76.405 7.04051 76.5258 7.04051 76.6868 7.00074C76.8478 6.96096 76.9686 6.96096 77.1296 6.92118C77.2504 6.92118 77.4114 6.88141 77.5724 6.84163C77.8542 6.80186 78.2165 6.76208 78.5385 6.7223C78.9008 6.68253 79.2229 6.68253 79.5449 6.68253C79.867 6.7223 80.189 6.80185 80.4305 6.96096C80.7123 7.12006 80.9136 7.35872 81.0344 7.71671C81.0746 7.79626 81.0746 7.87581 81.1149 7.95537C81.1551 8.03492 81.1551 8.11447 81.1954 8.19402C81.2759 8.55201 81.3162 8.91 81.3162 9.26798C81.3162 9.62597 81.2759 10.0237 81.2356 10.3817C81.1954 10.7795 81.1551 11.1375 81.0746 11.4955C81.0344 11.8534 80.9941 12.2114 80.9539 12.5296C80.9136 13.2058 80.9136 13.8423 80.9136 14.5184C80.9136 15.1549 80.9539 15.8311 81.0344 16.5073C81.0746 17.0641 81.1551 17.5812 81.2356 18.1381C81.3162 18.6552 81.3162 19.212 81.2356 19.7291ZM67.9111 24.4625C67.9111 24.5023 67.9111 24.5421 67.9514 24.5818C67.9111 24.5421 67.9111 24.5023 67.9111 24.4625ZM70.729 18.9734C70.729 19.0132 70.6887 19.0132 70.6887 19.0529C70.6887 19.0132 70.6887 19.0132 70.729 18.9734ZM74.3117 19.8485C74.352 19.8485 74.4727 19.8087 74.5935 19.8087C74.7143 19.8087 74.8753 19.8087 74.9961 19.8087C75.1168 19.8087 75.1973 19.8087 75.2376 19.8087C75.2778 19.8087 75.1973 19.8087 75.0363 19.8087C75.3583 19.8087 75.6804 19.7689 76.0024 19.7689C76.3245 19.7689 76.6465 19.7689 76.9686 19.7291C76.8881 19.1723 76.8478 18.6552 76.8881 18.0983C76.9283 17.5414 77.0088 16.9846 77.0893 16.4675C77.1698 15.9106 77.2504 15.3538 77.3309 14.8367C77.4114 14.2798 77.4114 13.7229 77.3309 13.2058C77.2906 12.8478 77.2504 12.4501 77.2101 12.0921C77.1698 11.7341 77.1296 11.3363 77.0893 10.9784C77.0893 10.8988 77.0491 10.859 77.0491 10.7795C77.0491 10.6999 77.0491 10.6602 77.0088 10.5806C76.9686 10.3817 76.9686 10.1828 77.0088 9.98396C77.0491 9.78507 76.9686 9.62597 76.8478 9.54642C76.6465 9.42709 76.4452 9.34754 76.244 9.30776C76.1232 9.26798 76.0024 9.22821 75.8817 9.22821C75.7609 9.18843 75.6401 9.18843 75.5194 9.22821C75.4389 9.22821 75.3181 9.26798 75.1973 9.34754C74.9558 9.50664 74.7948 9.70552 74.7545 10.0237C74.7143 10.3022 74.7143 10.5806 74.835 10.859C74.996 11.3761 75.0766 11.933 75.0766 12.4899V12.8876C75.0766 12.9672 75.0766 13.007 75.0766 13.0865C75.0766 13.1263 75.0766 13.2058 75.0363 13.2456C75.0363 13.3252 75.0363 13.4445 74.9961 13.6036C74.9558 13.6831 74.9558 13.7627 74.9558 13.8423C74.9558 13.9218 74.9558 14.0014 74.9558 14.0809C74.9155 14.6776 74.9155 15.2742 74.9155 15.8708C74.9155 16.4675 74.835 17.0244 74.7143 17.621C74.7143 17.7005 74.674 17.8199 74.674 17.8994C74.674 17.979 74.674 18.0585 74.6337 18.1381C74.6337 18.2176 74.5935 18.2972 74.5935 18.3767C74.5935 18.4563 74.5935 18.5359 74.5532 18.6154C74.513 18.7745 74.513 18.8938 74.4727 19.0529C74.4325 19.1723 74.3922 19.3314 74.3117 19.4905C74.2715 19.57 74.2715 19.6894 74.2312 19.7689C74.352 19.6496 74.352 19.7689 74.3117 19.8485Z" fill="url(#paint0_linear_402_441)"/>
<path d="M85.3818 13.6035C85.2207 12.8477 85.1 12.1715 85.0597 11.5749C85.0195 10.9783 85.0195 10.5009 85.0597 10.0236C85.1 9.58609 85.2207 9.18833 85.3818 8.87012C85.5428 8.55191 85.7038 8.2337 85.9453 7.99504C86.1063 7.79616 86.3479 7.63705 86.5492 7.51773C86.7907 7.43817 87.0322 7.35862 87.314 7.35862C87.5555 7.31884 87.8373 7.35862 88.1191 7.35862C88.4009 7.3984 88.6424 7.43817 88.9242 7.47795C89.3268 7.5575 89.7696 7.5575 90.1319 7.5575C90.5344 7.51773 90.937 7.51773 91.3395 7.47795C91.7018 7.43817 92.0641 7.43817 92.4667 7.47795C92.8692 7.51773 93.1913 7.63705 93.4731 7.87571C93.5938 7.99504 93.7146 8.15415 93.7951 8.31325C93.8756 8.51213 93.9159 8.67124 93.9561 8.87012C93.9561 9.069 93.9561 9.26788 93.8756 9.46676C93.7951 9.66564 93.7146 9.82475 93.5938 9.94408C93.4328 10.143 93.1913 10.2623 92.9498 10.3418C92.7082 10.4214 92.4264 10.4612 92.1446 10.4612C91.8629 10.4612 91.5811 10.4612 91.2993 10.4612C91.0175 10.4214 90.776 10.4214 90.5344 10.4214C90.3734 10.4214 90.1721 10.4214 89.9709 10.3816C89.7696 10.3418 89.5683 10.3418 89.367 10.3418C89.1658 10.3418 88.9645 10.3816 88.8035 10.4214C88.6022 10.4612 88.4814 10.5805 88.3606 10.7396C88.1996 10.9783 88.0789 11.2567 88.0789 11.5749C88.0789 11.8931 88.1191 12.2113 88.1594 12.5693C88.2399 12.9273 88.3204 13.2455 88.4009 13.5637C88.5217 13.8819 88.5619 14.2001 88.6022 14.4388C88.8437 14.3592 89.1255 14.2001 89.4073 14.041C89.6891 13.8819 89.9306 13.683 90.2124 13.5239C90.4942 13.3648 90.7357 13.2057 91.0175 13.1262C91.2993 13.0068 91.5811 13.0069 91.9031 13.0864C92.1044 13.1262 92.2654 13.2057 92.4264 13.3648C92.5875 13.4842 92.7082 13.6433 92.7485 13.8422C92.829 14.041 92.8692 14.2001 92.8692 14.399C92.8692 14.5979 92.829 14.7968 92.7485 14.9559C92.5875 15.2741 92.3459 15.5525 92.0239 15.7912C91.7018 16.0298 91.2993 16.2685 90.8967 16.4674C90.4942 16.6663 90.0514 16.8254 89.6086 16.9049C89.1658 17.0243 88.8035 17.1038 88.4412 17.1436C88.4009 17.3425 88.3204 17.5413 88.2801 17.7402C88.2399 17.9391 88.1594 18.138 88.1191 18.3369C88.0386 18.7346 88.0386 19.0528 88.1594 19.2119C88.2801 19.3711 88.4412 19.4506 88.6827 19.4506C88.9242 19.4506 89.1658 19.3711 89.4878 19.2517C89.7696 19.1324 90.0916 19.0131 90.4137 18.8937C90.7357 18.7744 91.0175 18.6551 91.2993 18.5357C91.5811 18.4164 91.7824 18.4164 91.9836 18.4164C92.4264 18.496 92.829 18.6551 93.2316 18.9733C93.6341 19.2915 93.9159 19.6495 94.0769 20.0472C94.2782 20.445 94.3184 20.8825 94.2782 21.3201C94.2379 21.7576 93.9964 22.1554 93.5536 22.4736C93.3121 22.6327 93.0705 22.752 92.829 22.752C92.5875 22.7918 92.3459 22.752 92.1044 22.7123C91.8629 22.6725 91.6213 22.5929 91.3798 22.5134C91.1383 22.4338 90.8967 22.394 90.6552 22.394C90.2124 22.3543 89.7696 22.4338 89.2865 22.5532C88.8437 22.6725 88.3606 22.752 87.9178 22.752C87.4348 22.7918 86.992 22.7123 86.6297 22.5134C86.2674 22.3145 85.9453 22.0758 85.6635 21.7576C85.3817 21.4394 85.2207 21.0417 85.1 20.6439C84.9792 20.2064 84.8987 19.7688 84.9389 19.3313C84.9389 19.0926 84.9792 18.8937 85.0194 18.6551C85.1 18.4562 85.1402 18.2175 85.2207 18.0187C85.3012 17.8198 85.3817 17.6209 85.4623 17.422C85.5428 17.2231 85.6233 17.0243 85.6635 16.7856C85.744 16.2685 85.744 15.7514 85.7038 15.2343C85.6635 14.7172 85.4623 14.1206 85.3818 13.6035Z" fill="url(#paint1_linear_402_441)"/>
<path d="M98.5856 14.1604C98.5856 13.683 98.5856 13.3251 98.5856 13.0864C98.5856 12.8477 98.5453 12.6489 98.5051 12.4898C98.4648 12.3306 98.3843 12.2511 98.2635 12.1715C98.1428 12.092 97.9818 11.9727 97.7805 11.8533C97.5792 11.734 97.3377 11.6147 97.0559 11.4556C96.7741 11.2965 96.4923 11.0976 96.2105 10.9385C95.9287 10.7396 95.6872 10.5407 95.4457 10.3021C95.2041 10.0634 95.0431 9.82474 94.8821 9.58608C94.7613 9.34743 94.7211 9.06899 94.7211 8.83034C94.7613 8.5519 94.9223 8.27347 95.1639 8.03481C95.4859 7.7166 95.8885 7.5575 96.291 7.5575C96.7338 7.59727 97.1766 7.67682 97.6597 7.83593C98.1428 7.99503 98.5856 8.19392 99.0687 8.3928C99.5517 8.59168 99.9543 8.71101 100.317 8.75078C100.88 8.83034 101.403 8.79056 101.887 8.71101C102.37 8.63145 102.893 8.51213 103.416 8.3928C103.618 8.35302 103.819 8.31324 103.98 8.31324C104.181 8.31324 104.382 8.31324 104.543 8.35302C104.704 8.3928 104.865 8.47235 105.026 8.59168C105.147 8.71101 105.268 8.87011 105.348 9.06899C105.51 9.42698 105.51 9.74519 105.429 10.0236C105.348 10.3021 105.187 10.5805 104.946 10.7794C104.704 11.018 104.423 11.2169 104.101 11.376C103.779 11.5351 103.416 11.6942 103.054 11.7738C102.692 11.8931 102.37 11.9329 102.007 11.9727C101.685 12.0124 101.403 12.0124 101.162 11.9727C101.242 12.2909 101.363 12.8477 101.444 13.5637C101.564 14.2797 101.605 15.0752 101.645 15.9105C101.685 16.7458 101.645 17.6209 101.605 18.496C101.524 19.371 101.403 20.1666 101.162 20.8428C100.92 21.519 100.598 22.0361 100.196 22.394C99.753 22.752 99.1894 22.8316 98.5051 22.6327C98.1428 22.5531 97.9012 22.394 97.7402 22.1554C97.5792 21.9167 97.4987 21.6383 97.4584 21.3201C97.4182 21.0019 97.4584 20.6439 97.4987 20.2859C97.5792 19.9279 97.6597 19.5301 97.7402 19.1722C97.861 18.8142 97.9415 18.496 98.0623 18.1778C98.183 17.8595 98.2233 17.5811 98.2635 17.3822C98.3843 16.8254 98.4246 16.3083 98.4648 15.7514C98.5453 15.2343 98.5453 14.7172 98.5856 14.1604Z" fill="url(#paint2_linear_402_441)"/>
<path d="M117.586 18.4164C117.787 19.0528 117.868 19.5699 117.908 20.0472C117.908 20.5246 117.868 20.9223 117.787 21.2405C117.707 21.5587 117.546 21.8372 117.425 22.036C117.264 22.2349 117.103 22.394 116.982 22.5134C116.821 22.6327 116.741 22.7122 116.62 22.752C116.539 22.7918 116.499 22.8316 116.58 22.8316C116.056 22.8714 115.654 22.7918 115.332 22.5531C115.01 22.3145 114.808 21.9963 114.647 21.5985C114.486 21.2007 114.406 20.803 114.325 20.3257C114.285 19.8484 114.245 19.4506 114.245 19.0926C114.245 18.5755 114.245 18.0584 114.245 17.5413C114.245 17.0242 114.245 16.5071 114.285 15.9901C114.285 15.9105 114.285 15.7514 114.285 15.5127C114.285 15.2741 114.285 14.9559 114.325 14.6774L114.366 13.5239C114.044 13.7626 113.802 14.0808 113.601 14.4388C113.44 14.7968 113.279 15.1945 113.158 15.5923C113.037 15.9901 112.957 16.4276 112.876 16.8254C112.796 17.2231 112.675 17.6209 112.554 17.9789C112.393 18.3369 112.192 18.7744 111.991 19.2119C111.789 19.6892 111.548 20.1268 111.266 20.5643C110.984 21.0019 110.702 21.3996 110.34 21.7576C110.018 22.1156 109.615 22.394 109.213 22.5531C108.73 22.752 108.327 22.7918 108.046 22.7122C107.723 22.6327 107.482 22.4338 107.281 22.1952C107.079 21.9565 106.959 21.6383 106.838 21.2405C106.757 20.8428 106.677 20.445 106.677 20.0472C106.637 19.6495 106.637 19.2517 106.677 18.8539C106.717 18.496 106.717 18.1778 106.757 17.8993C106.838 17.064 106.918 16.2287 106.959 15.3934C106.999 14.5581 106.918 13.7228 106.717 12.8875C106.637 12.5295 106.556 12.2113 106.476 11.8533C106.395 11.5351 106.355 11.1771 106.315 10.8589C106.274 10.5407 106.274 10.2225 106.274 9.86451C106.274 9.5463 106.315 9.18832 106.395 8.79056C106.516 8.23369 106.757 7.83593 107.079 7.55749C107.401 7.31883 107.764 7.19951 108.126 7.15973C108.488 7.15973 108.851 7.23928 109.173 7.47794C109.495 7.67682 109.777 7.99503 109.938 8.35302C110.018 8.59167 110.058 8.83033 110.058 9.14854C110.058 9.46675 110.018 9.74519 109.978 10.0634C109.938 10.3816 109.857 10.6998 109.817 11.018C109.736 11.3362 109.736 11.6147 109.696 11.8533C109.696 12.092 109.696 12.45 109.656 12.9273C109.615 13.4046 109.615 13.8819 109.615 14.399C109.615 14.9161 109.615 15.3934 109.656 15.8707C109.696 16.348 109.736 16.706 109.857 16.9447C110.179 16.706 110.501 16.3878 110.783 15.9901C111.065 15.5923 111.306 15.1945 111.548 14.6774C111.789 14.2001 111.991 13.683 112.192 13.1659C112.393 12.6489 112.594 12.092 112.796 11.5351C112.997 10.9782 113.198 10.4612 113.399 9.94407C113.601 9.42698 113.802 8.94966 114.044 8.47235C114.366 7.83592 114.728 7.51772 115.13 7.39839C115.533 7.31883 115.895 7.39839 116.217 7.63704C116.539 7.8757 116.861 8.23369 117.063 8.711C117.304 9.18832 117.425 9.66563 117.425 10.1827C117.425 10.8589 117.345 11.5351 117.224 12.2113C117.103 12.8875 117.022 13.5637 116.982 14.2399C116.942 14.9559 116.982 15.6718 117.103 16.348C117.224 17.064 117.385 17.7402 117.586 18.4164Z" fill="url(#paint3_linear_402_441)"/>
<path d="M72.9026 34.1281C72.9831 34.8441 73.0234 35.6396 73.0636 36.5147C73.1039 37.3898 73.1039 38.2648 73.0636 39.1797C73.0234 40.0946 72.9026 40.9696 72.7416 41.8049C72.5806 42.68 72.339 43.4358 71.9767 44.1517C71.6145 44.8677 71.1716 45.4644 70.6081 45.9417C70.0445 46.419 69.3601 46.7372 68.5148 46.8565C68.233 46.9361 67.9915 46.9361 67.7499 46.8963C67.5084 46.8565 67.3071 46.7372 67.1461 46.5781C66.9851 46.419 66.8241 46.2201 66.7435 46.0212C66.6228 45.8223 66.5825 45.5837 66.5825 45.3052C66.5825 44.987 66.5825 44.6291 66.6228 44.3108C66.663 43.9926 66.7435 43.6744 66.9046 43.3562C67.0656 42.9982 67.2266 42.7596 67.3474 42.6005C67.4681 42.4811 67.5889 42.3618 67.7097 42.322C67.8304 42.2425 67.9915 42.2027 68.1927 42.1231C68.394 42.0436 68.6758 41.9243 69.0381 41.6856C69.2394 41.4867 69.4004 41.2878 69.5212 41.1287C69.6419 40.9696 69.7627 40.7708 69.8835 40.5719C70.0042 40.373 70.0847 40.1343 70.1653 39.8559C70.2458 39.5775 70.3263 39.2195 70.4068 38.7819C70.4873 38.424 70.5276 38.0262 70.5276 37.6284C70.5276 37.2307 70.5276 36.8329 70.5276 36.4749C70.5276 35.8783 70.4873 35.2816 70.4068 34.685C70.3263 34.0883 70.286 33.4917 70.3263 32.8951C70.3263 32.4973 70.4068 32.1791 70.5678 31.9802C70.7288 31.7813 70.9704 31.662 71.2119 31.6222C71.4534 31.5824 71.7352 31.5427 72.0573 31.5427C72.3793 31.5427 72.6611 31.5824 72.9429 31.5824C73.3454 31.6222 73.748 31.6222 74.1505 31.662C74.5531 31.662 74.9556 31.662 75.3582 31.6222C75.3985 31.6222 75.5192 31.5824 75.7608 31.5427C75.962 31.5029 76.1633 31.4631 76.3646 31.4233C76.5659 31.3836 76.6866 31.3438 76.7269 31.3438C76.7671 31.304 76.6464 31.3438 76.3646 31.3836C76.6061 31.304 76.8879 31.2642 77.2502 31.1847C77.5722 31.1051 77.9345 31.0653 78.2566 31.0256C78.5786 30.9858 78.9409 31.0256 79.2227 31.0653C79.5448 31.1051 79.7863 31.2642 79.9876 31.4631C80.3499 31.8211 80.6317 32.2189 80.8329 32.5768C81.0342 32.9746 81.1147 33.4519 81.0342 33.969C80.994 34.2474 80.9135 34.4861 80.8329 34.7645C80.7122 35.0032 80.6317 35.2419 80.5109 35.5203C80.3901 35.7589 80.3096 35.9976 80.1889 36.276C80.1083 36.5147 80.0681 36.7931 80.0681 37.0716C80.0681 37.7478 80.0681 38.3842 80.1083 39.0604C80.1486 39.7366 80.1486 40.373 80.1083 41.0492C80.1083 41.3674 80.1486 41.6458 80.1889 41.8845C80.2291 42.1231 80.3096 42.3618 80.3901 42.6402C80.4706 42.8789 80.5511 43.1176 80.6719 43.3562C80.7524 43.5949 80.8732 43.8733 80.9537 44.1517C81.0342 44.4302 81.0745 44.7086 81.0745 44.987C81.0745 45.2655 81.0342 45.5439 80.9537 45.7826C80.8732 46.0212 80.7524 46.2599 80.5512 46.4588C80.3499 46.6576 80.1486 46.8167 79.8266 46.9361C79.3032 47.135 78.8202 47.1747 78.4176 47.0554C78.0151 46.9361 77.6125 46.7372 77.3307 46.4588C77.0087 46.1803 76.7671 45.8223 76.6061 45.3848C76.4048 44.987 76.3243 44.5495 76.2841 44.0722C76.2438 43.5551 76.2438 43.0778 76.2841 42.5607C76.3243 42.0436 76.3646 41.5663 76.4048 41.0492C76.4451 40.5321 76.4854 40.0548 76.5256 39.5377C76.5659 39.0206 76.5659 38.5433 76.5659 38.0262C76.5256 37.4295 76.4451 36.8329 76.3646 36.2363C76.2438 35.6396 76.2438 35.0827 76.2841 34.4463C76.2841 34.2474 76.1633 34.0883 75.8815 33.969C75.5997 33.8895 75.2374 33.8099 74.8349 33.8099C74.4323 33.8099 74.07 33.8497 73.6675 33.8895C73.2649 33.9292 73.0234 34.0486 72.9026 34.1281Z" fill="url(#paint4_linear_402_441)"/>
<path d="M86.9921 42.9983C87.0323 42.9585 87.0726 42.8392 87.1531 42.7198C87.2336 42.6005 87.2739 42.4812 87.3544 42.3618C87.4349 42.2425 87.4751 42.1232 87.5154 42.0039C87.5556 41.8845 87.5556 41.805 87.5154 41.7652C87.3544 41.5265 87.1934 41.3277 87.0323 41.1288C86.8713 40.9299 86.67 40.731 86.509 40.5321C86.187 40.1742 85.9052 39.8162 85.7039 39.498C85.4624 39.1797 85.2611 38.9013 85.0598 38.6229C84.8585 38.3444 84.6573 38.1058 84.456 37.8274C84.2547 37.5887 84.0132 37.2705 83.7716 36.9921C83.5704 36.7136 83.3691 36.475 83.1678 36.1965C82.9665 35.9181 82.7653 35.6794 82.564 35.401C82.3224 35.1226 82.1614 34.8044 82.0809 34.4464C81.9601 34.0884 81.9601 33.6906 81.9601 33.3326C82.0004 32.9747 82.1212 32.6167 82.2822 32.2985C82.4835 31.9802 82.725 31.7018 83.0873 31.5427C83.5301 31.3041 83.8924 31.2245 84.2547 31.3438C84.5767 31.4234 84.8988 31.6223 85.1806 31.9007C85.4624 32.1791 85.7039 32.5769 85.9052 33.0144C86.1065 33.452 86.348 33.9293 86.509 34.4464C86.7103 34.9635 86.9116 35.4806 87.0726 35.9976C87.2739 36.5147 87.4349 36.9921 87.6362 37.3898C87.8374 37.8274 88.079 38.1456 88.3205 38.424C88.562 38.7024 88.8438 38.8615 89.1256 38.9013C89.3269 38.1853 89.5282 37.4296 89.6489 36.7136C89.81 35.9976 89.9307 35.2419 90.0112 34.4861C90.0515 34.1282 90.132 33.7304 90.2125 33.2929C90.293 32.8951 90.454 32.4973 90.6151 32.1791C90.8163 31.8211 91.0579 31.5427 91.3799 31.3438C91.702 31.1449 92.1045 31.0256 92.5876 31.0654C92.7889 31.0654 93.0304 31.0654 93.2317 31.0654C93.4329 31.0654 93.6745 31.0654 93.8758 31.1052C94.077 31.1449 94.2783 31.1847 94.4796 31.2643C94.6809 31.3438 94.8419 31.5029 94.9626 31.7018C95.2042 32.0598 95.2847 32.4178 95.2042 32.7758C95.1237 33.1338 95.0432 33.4917 94.9224 33.8895C94.7614 34.327 94.6004 34.7646 94.3991 35.1623C94.1978 35.5601 93.9965 35.9579 93.755 36.3556C93.5135 36.7534 93.3122 37.1114 93.0706 37.5091C92.8291 37.9069 92.6278 38.3047 92.4266 38.7024C92.1045 39.3786 91.7825 40.0548 91.4604 40.7708C91.1384 41.4868 90.7761 42.163 90.3735 42.7994C90.132 43.1971 89.8905 43.6347 89.6087 44.0324C89.3671 44.4302 89.0854 44.828 88.7633 45.1462C88.4815 45.5042 88.1192 45.8224 87.7569 46.1406C87.3946 46.4588 86.9921 46.6975 86.5493 46.9361C86.2272 47.0952 85.8649 47.2543 85.5026 47.3736C85.1403 47.493 84.778 47.6123 84.4157 47.6521C84.0534 47.6919 83.6911 47.6521 83.3691 47.5725C83.047 47.493 82.725 47.2941 82.403 47.0157C82.0809 46.7372 81.9199 46.3792 81.8796 45.9815C81.8394 45.5837 81.8796 45.2257 82.0407 44.8677C82.2017 44.5098 82.403 44.2313 82.725 43.9529C83.047 43.6745 83.4093 43.5551 83.8522 43.5551C84.1339 43.5551 84.4157 43.5949 84.6975 43.7142C84.9793 43.8336 85.3013 43.9131 85.5831 43.9529C85.8649 43.9927 86.1065 43.9927 86.348 43.8733C86.6298 43.6347 86.8311 43.396 86.9921 42.9983Z" fill="url(#paint5_linear_402_441)"/>
<path d="M103.175 32.537C103.376 31.9802 103.658 31.5824 104.02 31.3438C104.342 31.1051 104.704 30.9858 105.026 31.0255C105.389 31.0255 105.711 31.1449 106.033 31.3835C106.355 31.5824 106.637 31.9006 106.878 32.2188C107.079 32.5768 107.24 32.9746 107.281 33.4121C107.321 33.8497 107.281 34.2872 107.079 34.7645C106.959 35.0827 106.838 35.3612 106.798 35.5998C106.717 35.8385 106.677 36.1169 106.637 36.3556C106.596 36.5942 106.556 36.8727 106.556 37.1511C106.556 37.4295 106.556 37.708 106.556 38.0659C106.556 38.3842 106.556 38.7024 106.516 39.0603C106.476 39.4183 106.476 39.7365 106.435 40.0945C106.395 40.4525 106.395 40.7707 106.435 41.1287C106.435 41.4469 106.516 41.7651 106.596 42.0833C106.677 42.3618 106.757 42.6004 106.878 42.8789C106.999 43.1175 107.079 43.396 107.2 43.6346C107.281 43.8733 107.361 44.1517 107.442 44.4301C107.482 44.7086 107.522 44.987 107.482 45.2654C107.402 45.8621 107.2 46.2996 106.798 46.6178C106.435 46.8963 105.993 47.0554 105.55 47.0554C105.067 47.0554 104.624 46.9361 104.181 46.6576C103.738 46.3792 103.416 46.0212 103.215 45.5439C103.054 45.1859 102.973 44.8279 102.933 44.4699C102.893 44.1119 102.893 43.7142 102.893 43.3562C102.893 42.9982 102.933 42.6004 102.973 42.2027C103.014 41.8049 103.054 41.4469 103.094 41.0889C102.49 41.0889 101.846 41.0889 101.162 41.1287C100.478 41.1685 99.8335 41.0889 99.2297 40.9696C98.6258 40.8503 98.0622 40.6116 97.5792 40.2536C97.0961 39.8956 96.7338 39.3388 96.5325 38.6228C96.3715 38.1057 96.2508 37.5091 96.2105 36.9124C96.13 36.3158 96.0897 35.7191 96.0092 35.1623C95.9287 34.6452 95.9287 34.1281 95.9287 33.5712C95.9287 33.0144 96.0495 32.4973 96.291 32.0199C96.4118 31.7813 96.6131 31.5824 96.8546 31.4631C97.0961 31.304 97.3779 31.2244 97.6597 31.1846C97.9415 31.1449 98.2635 31.1449 98.5453 31.1846C98.8271 31.2244 99.1089 31.3438 99.3102 31.5029C99.5114 31.662 99.6725 31.9006 99.753 32.1791C99.8335 32.4575 99.914 32.7757 99.9543 33.1337C99.9945 33.4519 99.9945 33.8099 99.9543 34.1281C99.914 34.4463 99.914 34.7247 99.8737 34.9634C99.8335 35.2418 99.7932 35.5203 99.753 35.7987C99.7127 36.0771 99.6725 36.3556 99.6725 36.634C99.6725 36.9124 99.7127 37.1511 99.8335 37.3897C99.914 37.6284 100.115 37.8273 100.397 38.0262C100.598 38.1853 100.84 38.2648 101.081 38.3046C101.323 38.3444 101.564 38.3842 101.766 38.3842C102.007 38.3842 102.249 38.3842 102.49 38.3842C102.732 38.3842 102.973 38.3842 103.215 38.4239C103.175 37.9466 103.134 37.5091 103.094 37.0318C103.014 36.5544 102.973 36.0771 102.933 35.5998C102.893 35.1225 102.893 34.6452 102.933 34.1679C102.893 33.4519 103.014 33.0144 103.175 32.537Z" fill="url(#paint6_linear_402_441)"/>
<path d="M119.76 42.6799C119.961 43.3164 120.042 43.8334 120.082 44.3108C120.082 44.7881 120.042 45.1858 119.961 45.504C119.881 45.8223 119.72 46.1007 119.599 46.2996C119.438 46.4985 119.277 46.6576 119.156 46.7769C118.995 46.8962 118.915 46.9758 118.794 47.0155C118.713 47.0553 118.673 47.0951 118.754 47.0951C118.23 47.1349 117.828 47.0553 117.506 46.8167C117.184 46.578 116.982 46.2598 116.821 45.862C116.66 45.4643 116.58 45.0665 116.499 44.5892C116.459 44.1119 116.419 43.7141 116.419 43.3561C116.419 42.839 116.419 42.3219 116.419 41.8049C116.419 41.2878 116.419 40.7707 116.459 40.2536C116.459 40.174 116.459 40.0149 116.459 39.7763C116.459 39.5376 116.459 39.2194 116.499 38.941L116.539 37.7875C116.217 38.0261 115.976 38.3443 115.775 38.7023C115.614 39.0603 115.453 39.4581 115.332 39.8558C115.211 40.2536 115.131 40.6911 115.05 41.0889C114.969 41.4866 114.849 41.8844 114.728 42.2424C114.567 42.6004 114.366 43.0379 114.164 43.4755C113.963 43.9528 113.722 44.3903 113.44 44.8278C113.158 45.2654 112.876 45.6631 112.514 46.0211C112.192 46.3791 111.789 46.6576 111.387 46.8167C110.904 47.0155 110.501 47.0553 110.219 46.9758C109.897 46.8962 109.656 46.6973 109.455 46.4587C109.253 46.22 109.132 45.9018 109.012 45.504C108.931 45.1063 108.851 44.7085 108.851 44.3108C108.81 43.913 108.81 43.5152 108.851 43.1175C108.891 42.7595 108.891 42.4413 108.931 42.1628C109.012 41.3275 109.092 40.4922 109.132 39.6569C109.173 38.8216 109.092 37.9863 108.891 37.151C108.81 36.793 108.73 36.4748 108.649 36.1168C108.569 35.7986 108.529 35.4407 108.488 35.1224C108.448 34.8042 108.448 34.486 108.448 34.128C108.448 33.8098 108.488 33.4518 108.569 33.0541C108.69 32.4972 108.931 32.0994 109.253 31.821C109.575 31.5824 109.938 31.463 110.3 31.4232C110.662 31.4232 111.024 31.5028 111.347 31.7415C111.669 31.9403 111.95 32.2585 112.111 32.6165C112.192 32.8552 112.232 33.0939 112.232 33.4121C112.232 33.7303 112.192 34.0087 112.152 34.3269C112.111 34.6451 112.031 34.9633 111.991 35.2815C111.91 35.5998 111.91 35.8782 111.87 36.1168C111.87 36.3555 111.87 36.7135 111.83 37.1908C111.789 37.6681 111.789 38.1454 111.789 38.6625C111.789 39.1796 111.789 39.6569 111.83 40.1343C111.87 40.6116 111.91 40.9696 112.031 41.2082C112.353 40.9696 112.675 40.6513 112.957 40.2536C113.239 39.8558 113.48 39.4581 113.722 38.941C113.963 38.4636 114.164 37.9466 114.366 37.4295C114.567 36.9124 114.768 36.3555 114.969 35.7986C115.171 35.2418 115.372 34.7247 115.573 34.2076C115.775 33.6905 115.976 33.2132 116.217 32.7359C116.539 32.0994 116.902 31.7812 117.304 31.6619C117.707 31.5824 118.069 31.6619 118.391 31.9006C118.713 32.1392 119.035 32.4972 119.237 32.9745C119.478 33.4518 119.599 33.9292 119.599 34.4462C119.599 35.1224 119.518 35.7986 119.398 36.4748C119.277 37.151 119.196 37.8272 119.156 38.5034C119.116 39.2194 119.156 39.9354 119.277 40.6116C119.357 41.2878 119.559 42.0037 119.76 42.6799Z" fill="url(#paint7_linear_402_441)"/>
<path d="M122.336 39.2196C122.336 38.981 122.336 38.7025 122.336 38.3446C122.336 38.0263 122.296 37.6684 122.256 37.3104C122.216 36.9524 122.175 36.5944 122.095 36.2762C122.054 35.958 121.974 35.6795 121.934 35.4409C121.893 35.2022 121.853 35.0829 121.853 35.0033C121.813 34.9238 121.853 34.9636 121.853 35.1227C121.813 34.884 121.813 34.6454 121.773 34.3669C121.732 34.1283 121.732 33.8498 121.732 33.5714C121.732 33.293 121.773 33.0543 121.813 32.8157C121.853 32.577 121.974 32.3383 122.135 32.0997C122.256 31.9406 122.377 31.8212 122.538 31.7019C122.699 31.5826 122.86 31.5428 123.061 31.503C123.222 31.4633 123.423 31.503 123.584 31.5826C123.745 31.6621 123.906 31.7417 124.027 31.9406C124.228 32.219 124.389 32.577 124.51 32.935C124.631 33.293 124.711 33.6907 124.752 34.0885C124.792 34.4863 124.832 34.884 124.832 35.2818C124.832 35.6795 124.832 36.0773 124.832 36.3955C125.194 36.1966 125.516 35.958 125.798 35.7193C126.08 35.4807 126.322 35.2022 126.563 34.884C126.805 34.5658 127.006 34.2874 127.207 33.9294C127.408 33.6112 127.61 33.293 127.851 32.9748C128.012 32.7759 128.173 32.5372 128.375 32.2986C128.576 32.0599 128.777 31.861 129.019 31.6621C129.26 31.4633 129.502 31.3439 129.784 31.2644C130.065 31.1848 130.347 31.145 130.669 31.1848C131.072 31.2644 131.394 31.4235 131.595 31.6621C131.796 31.9008 131.917 32.1792 131.917 32.4974C131.957 32.8156 131.917 33.1339 131.796 33.4918C131.676 33.8101 131.515 34.1283 131.313 34.4067C131.072 34.7249 130.83 35.0033 130.548 35.2818C130.267 35.5602 129.985 35.7989 129.663 36.0773C129.341 36.316 129.059 36.5944 128.737 36.8331C128.415 37.0717 128.133 37.3501 127.851 37.6286C128.375 37.8672 128.777 38.1854 129.18 38.5832C129.542 38.981 129.864 39.4185 130.146 39.9356C130.428 40.4129 130.669 40.93 130.83 41.4471C130.991 41.9642 131.152 42.4813 131.273 42.9984C131.353 43.3564 131.434 43.7541 131.474 44.1917C131.515 44.6292 131.474 45.0667 131.394 45.4247C131.313 45.8225 131.112 46.1407 130.87 46.4191C130.629 46.6976 130.226 46.8169 129.743 46.8567C129.341 46.8567 129.019 46.7771 128.737 46.5385C128.495 46.3396 128.294 46.0611 128.133 45.7429C127.972 45.4247 127.851 45.0667 127.811 44.7088C127.73 44.3508 127.69 43.9928 127.61 43.7143C127.529 43.3166 127.449 42.9188 127.328 42.5211C127.207 42.1233 127.086 41.7653 126.885 41.4869C126.684 41.1687 126.442 40.93 126.12 40.7311C125.798 40.5322 125.396 40.4129 124.872 40.4129C124.953 41.2084 124.953 42.004 124.953 42.7995C124.913 43.595 124.792 44.3905 124.55 45.1463C124.43 45.4645 124.269 45.7827 124.027 46.0611C123.785 46.3396 123.504 46.5385 123.182 46.6976C122.86 46.8169 122.538 46.8567 122.216 46.8169C121.853 46.7771 121.531 46.5782 121.249 46.2203C120.968 45.9418 120.807 45.5838 120.807 45.1463C120.766 44.7485 120.807 44.311 120.887 43.8735C120.968 43.4359 121.088 43.0381 121.249 42.6006C121.41 42.2028 121.531 41.8051 121.652 41.5267C121.813 41.1289 121.974 40.7311 122.095 40.3334C122.175 40.0549 122.296 39.6572 122.336 39.2196Z" fill="url(#paint8_linear_402_441)"/>
<path d="M143.953 42.6799C144.155 43.3164 144.235 43.8334 144.275 44.3108C144.275 44.7881 144.235 45.1858 144.155 45.504C144.074 45.8223 143.913 46.1007 143.792 46.2996C143.631 46.4985 143.47 46.6576 143.35 46.7769C143.189 46.8962 143.108 46.9758 142.987 47.0155C142.907 47.0553 142.866 47.0951 142.947 47.0951C142.424 47.1349 142.021 47.0553 141.699 46.8167C141.377 46.578 141.176 46.2598 141.015 45.862C140.854 45.4643 140.773 45.0665 140.693 44.5892C140.652 44.1119 140.612 43.7141 140.612 43.3561C140.612 42.839 140.612 42.3219 140.612 41.8049C140.612 41.2878 140.612 40.7707 140.652 40.2536C140.652 40.174 140.652 40.0149 140.652 39.7763C140.652 39.5376 140.652 39.2194 140.693 38.941L140.733 37.7875C140.411 38.0261 140.169 38.3443 139.968 38.7023C139.807 39.0603 139.646 39.4581 139.525 39.8558C139.405 40.2536 139.324 40.6911 139.243 41.0889C139.163 41.4866 139.042 41.8844 138.921 42.2424C138.76 42.6004 138.559 43.0379 138.358 43.4755C138.157 43.9528 137.915 44.3903 137.633 44.8278C137.351 45.2654 137.07 45.6631 136.707 46.0211C136.385 46.3791 135.983 46.6576 135.58 46.8167C135.097 47.0155 134.695 47.0553 134.413 46.9758C134.091 46.8962 133.849 46.6973 133.648 46.4587C133.447 46.22 133.326 45.9018 133.205 45.504C133.125 45.1063 133.044 44.7085 133.044 44.3108C133.004 43.913 133.004 43.5152 133.044 43.1175C133.084 42.7595 133.084 42.4413 133.125 42.1628C133.205 41.3275 133.286 40.4922 133.326 39.6569C133.366 38.8216 133.286 37.9863 133.084 37.151C133.004 36.793 132.923 36.4748 132.843 36.1168C132.762 35.7986 132.722 35.4407 132.682 35.1224C132.642 34.8042 132.642 34.486 132.642 34.128C132.642 33.8098 132.682 33.4518 132.762 33.0541C132.883 32.4972 133.125 32.0994 133.447 31.821C133.769 31.5824 134.131 31.463 134.493 31.4232C134.856 31.4232 135.218 31.5028 135.54 31.7415C135.862 31.9403 136.144 32.2585 136.305 32.6165C136.385 32.8552 136.426 33.0939 136.426 33.4121C136.426 33.7303 136.385 34.0087 136.345 34.3269C136.305 34.6451 136.224 34.9633 136.184 35.2815C136.104 35.5998 136.104 35.8782 136.063 36.1168C136.063 36.3555 136.063 36.7135 136.023 37.1908C135.983 37.6681 135.983 38.1454 135.983 38.6625C135.983 39.1796 135.983 39.6569 136.023 40.1343C136.063 40.6116 136.104 40.9696 136.224 41.2082C136.546 40.9696 136.868 40.6513 137.15 40.2536C137.432 39.8558 137.674 39.4581 137.915 38.941C138.157 38.4636 138.358 37.9466 138.559 37.4295C138.76 36.9124 138.962 36.3555 139.163 35.7986C139.364 35.2418 139.566 34.7247 139.767 34.2076C139.968 33.6905 140.169 33.2132 140.411 32.7359C140.733 32.0994 141.095 31.7812 141.498 31.6619C141.9 31.5824 142.263 31.6619 142.585 31.9006C142.907 32.1392 143.229 32.4972 143.43 32.9745C143.672 33.4518 143.792 33.9292 143.792 34.4462C143.792 35.1224 143.712 35.7986 143.591 36.4748C143.47 37.151 143.39 37.8272 143.35 38.5034C143.309 39.2194 143.35 39.9354 143.47 40.6116C143.551 41.2878 143.712 42.0037 143.953 42.6799Z" fill="url(#paint9_linear_402_441)"/>
<path d="M48.6332 1.15527e-05H5.36102C3.94017 1.07954e-05 2.57744 0.556432 1.57223 1.54702C0.567011 2.5376 0.00147697 3.88132 0 5.28295V58.7116C0 60.1141 0.564947 61.4593 1.57032 62.4511C2.5757 63.4428 3.93921 64 5.36102 64C9.1449 64 13.8371 63.1974 17.2754 61.6416C20.2178 60.3168 21.5442 57.5406 21.5442 54.6875C21.5442 52.1258 21.6278 47.9973 21.5442 45.7653C21.4551 42.6648 21.6111 39.0751 16.2055 36.3374C14.6229 35.5293 9.78023 34.1385 6.09108 29.6362C4.33568 27.4977 6.92696 25.6341 8.71024 27.3548C10.265 28.8555 15.3975 33.6382 24.8209 33.0775C33.3806 32.5717 38.4685 27.6516 41.4165 23.5011C43.0883 21.1538 45.5404 23.3582 44.1584 25.3207C42.7763 27.2833 40.3298 31.5437 33.871 35.6008C30.689 37.6018 27.0167 39.5259 27.0167 45.0782V45.6884C27.0167 45.6884 33.5312 36.4034 48.7224 39.8722C41.1435 40.9717 43.3892 48.3216 41.3942 52.8184C40.6196 54.8195 38.5354 56.4082 35.6877 56.4082C34.1207 56.3709 32.6306 55.7309 31.5353 54.6247C30.44 53.5185 29.8262 52.0338 29.8252 50.4875C29.8288 50.1182 29.8681 49.7501 29.9424 49.3881C30.2809 48.127 30.9232 46.9652 31.8147 46.0017C33.6426 44.0557 37.4821 42.5604 39.5719 41.9392C42.57 41.252 41.3999 40.3505 39.2711 40.9497C37.1423 41.5489 28.3541 43.5884 27.1114 51.3561C27.0779 51.598 27.0167 53.0438 27.0167 53.2967C27.0167 58.6456 29.9033 60.3937 32.5615 61.6032C34.9912 62.7026 40.2574 63.978 48.6443 63.978C49.3497 63.9839 50.0493 63.8511 50.7021 63.5873C51.3549 63.3235 51.9479 62.9341 52.4464 62.4418C52.945 61.9495 53.3392 61.3641 53.6059 60.7199C53.8726 60.0756 54.0065 59.3854 53.9998 58.6896V5.26096C53.9939 3.86174 53.4255 2.52198 52.4194 1.53568C51.4133 0.54937 50.0516 -0.00291258 48.6332 1.15527e-05V1.15527e-05ZM18.8972 22.4951C17.8626 22.4951 16.8704 22.0897 16.1389 21.368C15.4073 20.6464 14.9963 19.6676 14.9963 18.647C14.9963 17.6264 15.4073 16.6476 16.1389 15.9259C16.8704 15.2043 17.8626 14.7988 18.8972 14.7988C19.9318 14.7988 20.924 15.2043 21.6555 15.9259C22.3871 16.6476 22.7981 17.6264 22.7981 18.647C22.7981 19.6676 22.3871 20.6464 21.6555 21.368C20.924 22.0897 19.9318 22.4951 18.8972 22.4951V22.4951ZM32.4166 24.1883C31.6481 24.1883 30.911 23.8871 30.3675 23.351C29.8241 22.8149 29.5188 22.0878 29.5188 21.3297C29.5188 20.9545 29.5938 20.5831 29.7395 20.2366C29.8852 19.89 30.0986 19.5753 30.3678 19.3103C30.637 19.0453 30.9565 18.8352 31.3081 18.6922C31.6596 18.5491 32.0363 18.4758 32.4166 18.4766C33.1837 18.4766 33.9194 18.7772 34.4618 19.3122C35.0042 19.8473 35.3088 20.573 35.3088 21.3297C35.3096 21.7048 35.2353 22.0764 35.0903 22.4232C34.9453 22.77 34.7323 23.0852 34.4637 23.3507C34.195 23.6162 33.8759 23.8269 33.5246 23.9706C33.1734 24.1143 32.7969 24.1883 32.4166 24.1883V24.1883Z" fill="url(#paint10_linear_402_441)"/>
</g>
<defs>
<linearGradient id="paint0_linear_402_441" x1="105.424" y1="6.68491" x2="105.424" y2="47.5632" gradientUnits="userSpaceOnUse">
<stop stop-color="#D1D700"/>
<stop offset="1" stop-color="#7FBA23"/>
</linearGradient>
<linearGradient id="paint1_linear_402_441" x1="105.423" y1="6.68481" x2="105.423" y2="47.5631" gradientUnits="userSpaceOnUse">
<stop stop-color="#D1D700"/>
<stop offset="1" stop-color="#7FBA23"/>
</linearGradient>
<linearGradient id="paint2_linear_402_441" x1="105.423" y1="6.6848" x2="105.423" y2="47.5631" gradientUnits="userSpaceOnUse">
<stop stop-color="#D1D700"/>
<stop offset="1" stop-color="#7FBA23"/>
</linearGradient>
<linearGradient id="paint3_linear_402_441" x1="105.423" y1="6.6848" x2="105.423" y2="47.5631" gradientUnits="userSpaceOnUse">
<stop stop-color="#D1D700"/>
<stop offset="1" stop-color="#7FBA23"/>
</linearGradient>
<linearGradient id="paint4_linear_402_441" x1="105.423" y1="6.68488" x2="105.423" y2="47.5632" gradientUnits="userSpaceOnUse">
<stop stop-color="#D1D700"/>
<stop offset="1" stop-color="#7FBA23"/>
</linearGradient>
<linearGradient id="paint5_linear_402_441" x1="105.424" y1="6.68494" x2="105.424" y2="47.5632" gradientUnits="userSpaceOnUse">
<stop stop-color="#D1D700"/>
<stop offset="1" stop-color="#7FBA23"/>
</linearGradient>
<linearGradient id="paint6_linear_402_441" x1="105.423" y1="6.68485" x2="105.423" y2="47.5632" gradientUnits="userSpaceOnUse">
<stop stop-color="#D1D700"/>
<stop offset="1" stop-color="#7FBA23"/>
</linearGradient>
<linearGradient id="paint7_linear_402_441" x1="105.423" y1="6.6848" x2="105.423" y2="47.5631" gradientUnits="userSpaceOnUse">
<stop stop-color="#D1D700"/>
<stop offset="1" stop-color="#7FBA23"/>
</linearGradient>
<linearGradient id="paint8_linear_402_441" x1="105.423" y1="6.68503" x2="105.423" y2="47.5633" gradientUnits="userSpaceOnUse">
<stop stop-color="#D1D700"/>
<stop offset="1" stop-color="#7FBA23"/>
</linearGradient>
<linearGradient id="paint9_linear_402_441" x1="105.423" y1="6.6848" x2="105.423" y2="47.5631" gradientUnits="userSpaceOnUse">
<stop stop-color="#D1D700"/>
<stop offset="1" stop-color="#7FBA23"/>
</linearGradient>
<linearGradient id="paint10_linear_402_441" x1="26.9832" y1="1.15526e-05" x2="26.9832" y2="64" gradientUnits="userSpaceOnUse">
<stop stop-color="#D3D802"/>
<stop offset="1" stop-color="#88BD30"/>
</linearGradient>
<clipPath id="clip0_402_441">
<rect width="145" height="64" fill="white"/>
</clipPath>
</defs>
</svg>
